<?xml version="1.0" encoding="UTF-8"?>
<svg version="1.1" xmlns="http://www.w3.org/2000/svg" width="580" height="144">
<path d="M0 0 C5.29458712 0.04120301 5.29458712 0.04120301 8.3125 2.125 C11.79502769 7.66538496 11.29316198 14.00408816 10.6875 20.3125 C8.77886316 27.33723395 5.81424396 33.41565454 1.74609375 39.41015625 C0.1731929 42.23673453 -0.27813762 45.12871971 -0.85546875 48.28515625 C-1.47122751 51.01659896 -2.78190538 52.98599617 -4.3125 55.3125 C-5.88907098 58.79409425 -7.2969977 62.26831844 -8.5625 65.875 C-11.14537896 72.86800739 -14.4868507 80.55385329 -18.96875 86.515625 C-20.57309483 88.43877692 -20.57309483 88.43877692 -21.3125 91.8125 C-22.28233247 95.20691364 -23.14478288 96.64454046 -25.3125 99.3125 C-25.869375 100.4675 -26.42625 101.6225 -27 102.8125 C-29.34445723 107.02166066 -32.78790087 108.88972566 -37.3125 110.3125 C-38.6325 110.3125 -39.9525 110.3125 -41.3125 110.3125 C-41.6425 111.9625 -41.9725 113.6125 -42.3125 115.3125 C-43.9625 114.9825 -45.6125 114.6525 -47.3125 114.3125 C-50.39011568 121.51774142 -52.88543265 128.8802738 -55.29345703 136.32958984 C-57.21045014 142.21045014 -57.21045014 142.21045014 -58.3125 143.3125 C-60.8125 143.4375 -60.8125 143.4375 -63.3125 143.3125 C-63.6425 142.9825 -63.9725 142.6525 -64.3125 142.3125 C-63.905404 135.03658431 -62.05093679 128.63458514 -59.75 121.75 C-59.42064453 120.74130859 -59.09128906 119.73261719 -58.75195312 118.69335938 C-57.94653418 116.23041158 -57.13327961 113.77036243 -56.3125 111.3125 C-57.9625 111.3125 -59.6125 111.3125 -61.3125 111.3125 C-61.9375 108.9375 -61.9375 108.9375 -62.3125 106.3125 C-61.3225 105.3225 -61.3225 105.3225 -60.3125 104.3125 C-59.66482207 101.74188689 -59.66482207 101.74188689 -59.3125 99.3125 C-58.3225 99.3125 -57.3325 99.3125 -56.3125 99.3125 C-57.055 97.9821875 -57.055 97.9821875 -57.8125 96.625 C-59.25628674 93.43663762 -59.61409922 91.73062454 -59.3125 88.3125 C-56.8375 87.8175 -56.8375 87.8175 -54.3125 87.3125 C-54.05597656 86.18457031 -53.79945312 85.05664062 -53.53515625 83.89453125 C-46.97584898 56.40988097 -32.20506106 23.28705459 -10.125 4.5625 C-9.43019531 3.96953125 -8.73539063 3.3765625 -8.01953125 2.765625 C-7.45621094 2.28609375 -6.89289063 1.8065625 -6.3125 1.3125 C-4.58665266 -0.41334734 -2.35040633 0.0591493 0 0 Z " fill="#F3962C" transform="translate(79.3125,-0.3125)"/>
<path d="M0 0 C3.96 0 7.92 0 12 0 C13 1 13 1 13.11352539 3.50024414 C13.10828857 4.58426514 13.10305176 5.66828613 13.09765625 6.78515625 C13.09515869 7.83840088 13.09266113 8.89164551 13.09008789 9.97680664 C13.08098389 11.32508545 13.07187988 12.67336426 13.0625 14.0625 C13.041875 18.331875 13.02125 22.60125 13 27 C22.57 27 32.14 27 42 27 C42 18.09 42 9.18 42 0 C45.96 0 49.92 0 54 0 C55 1 55 1 55.12025452 3.51197815 C55.11803391 4.62894577 55.11581329 5.74591339 55.11352539 6.89672852 C55.11344986 8.15796036 55.11337433 9.4191922 55.11329651 10.71864319 C55.1081891 12.10539794 55.10297309 13.49215229 55.09765625 14.87890625 C55.09579201 16.28995209 55.09436814 17.70099857 55.09336853 19.11204529 C55.08954379 22.83240535 55.0797139 26.5527266 55.06866455 30.27307129 C55.05844948 34.06680781 55.05387071 37.86055058 55.04882812 41.65429688 C55.03809158 49.10288436 55.02049515 56.5514318 55 64 C50.71 64 46.42 64 42 64 C42 55.75 42 47.5 42 39 C32.43 39 22.86 39 13 39 C13 47.25 13 55.5 13 64 C8.71 64 4.42 64 0 64 C0 42.88 0 21.76 0 0 Z " fill="#C41F24" transform="translate(408,23)"/>
<path d="M0 0 C15.18 0 30.36 0 46 0 C46 3.96 46 7.92 46 12 C35.11 12 24.22 12 13 12 C13 16.62 13 21.24 13 26 C15.08183594 25.98839844 17.16367187 25.97679688 19.30859375 25.96484375 C21.31746298 25.95789265 23.32633251 25.95097611 25.33520508 25.94506836 C26.73495228 25.9400292 28.1346942 25.93319784 29.53442383 25.92456055 C31.54245777 25.9124768 33.55052957 25.90730193 35.55859375 25.90234375 C37.37315063 25.89448853 37.37315063 25.89448853 39.22436523 25.88647461 C42 26 42 26 43 27 C43 30.63 43 34.26 43 38 C33.1 38 23.2 38 13 38 C13 42.95 13 47.9 13 53 C24.22 53 35.44 53 47 53 C47 56.63 47 60.26 47 64 C31.49 64 15.98 64 0 64 C0 42.88 0 21.76 0 0 Z " fill="#CE2026" transform="translate(478,23)"/>
<path d="M0 0 C4.29 0 8.58 0 13 0 C18.96837981 11.59032934 24.41243955 23.37402099 29.66625977 35.30395508 C30.95381289 38.22450242 32.2510167 41.14063958 33.54882812 44.05664062 C34.37557767 45.92682807 35.20177071 47.79726165 36.02734375 49.66796875 C36.41268784 50.53254196 36.79803192 51.39711517 37.1950531 52.28788757 C37.54955032 53.09675919 37.90404755 53.9056308 38.26928711 54.73901367 C38.58046982 55.44354172 38.89165253 56.14806976 39.21226501 56.87394714 C40 59 40 59 41 64 C36.71 64 32.42 64 28 64 C26.99515796 62.04414675 25.99626195 60.08523763 25 58.125 C24.443125 57.03445312 23.88625 55.94390625 23.3125 54.8203125 C22 52 22 52 22 50 C12.1 50.33 2.2 50.66 -8 51 C-9.65 54.96 -11.3 58.92 -13 63 C-14 64 -14 64 -16.94140625 64.09765625 C-18.13636719 64.08605469 -19.33132812 64.07445313 -20.5625 64.0625 C-21.76003906 64.05347656 -22.95757812 64.04445313 -24.19140625 64.03515625 C-25.58166016 64.01775391 -25.58166016 64.01775391 -27 64 C-26.42126093 58.37683079 -24.34055032 53.85196836 -21.9921875 48.7890625 C-21.58847931 47.90326508 -21.18477112 47.01746765 -20.76882935 46.10482788 C-19.4775855 43.27509792 -18.176668 40.44994787 -16.875 37.625 C-15.60074113 34.8434334 -14.32852612 32.06093969 -13.05670166 29.27825928 C-12.22624684 27.46136357 -11.39499675 25.64483113 -10.56292725 23.82867432 C-6.94823421 15.9261102 -3.44744446 7.97674676 0 0 Z M6 17 C4.66087415 20.12254943 3.32969342 23.24842358 2 26.375 C1.42765625 27.70917969 1.42765625 27.70917969 0.84375 29.0703125 C0.4828125 29.92109375 0.121875 30.771875 -0.25 31.6484375 C-0.75273437 32.82672119 -0.75273437 32.82672119 -1.265625 34.02880859 C-2.11637101 35.96176935 -2.11637101 35.96176935 -2 38 C3.94 38 9.88 38 16 38 C13.76686274 30.55620912 10.59727921 23.88023305 7 17 C6.67 17 6.34 17 6 17 Z " fill="#B41C21" transform="translate(168,23)"/>
<path d="M0 0 C4.29 0 8.58 0 13 0 C19.29774594 12.20580667 24.91068915 24.65228785 30.375 37.25 C31.58347356 40.02635343 32.79315833 42.80217342 34.0038147 45.57757568 C34.74879894 47.28642935 35.49234425 48.9959113 36.23422241 50.70611572 C36.56862335 51.47502136 36.90302429 52.243927 37.24755859 53.03613281 C37.5387558 53.70735168 37.829953 54.37857056 38.12997437 55.07012939 C38.74017598 56.4236644 39.40553859 57.75302997 40.10952759 59.0602417 C41 61 41 61 41 64 C36.71 64 32.42 64 28 64 C26.99515796 62.04414675 25.99626195 60.08523763 25 58.125 C24.443125 57.03445312 23.88625 55.94390625 23.3125 54.8203125 C22 52 22 52 22 50 C12.1 50.33 2.2 50.66 -8 51 C-9.65 54.96 -11.3 58.92 -13 63 C-14 64 -14 64 -16.94140625 64.09765625 C-18.13636719 64.08605469 -19.33132813 64.07445313 -20.5625 64.0625 C-21.76003906 64.05347656 -22.95757812 64.04445313 -24.19140625 64.03515625 C-25.58166016 64.01775391 -25.58166016 64.01775391 -27 64 C-26.42126093 58.37683079 -24.34055032 53.85196836 -21.9921875 48.7890625 C-21.58847931 47.90326508 -21.18477112 47.01746765 -20.76882935 46.10482788 C-19.4775855 43.27509792 -18.176668 40.44994787 -16.875 37.625 C-15.60074113 34.8434334 -14.32852612 32.06093969 -13.05670166 29.27825928 C-12.22624684 27.46136357 -11.39499675 25.64483113 -10.56292725 23.82867432 C-6.94823421 15.9261102 -3.44744446 7.97674676 0 0 Z M6 17 C4.66087415 20.12254943 3.32969342 23.24842358 2 26.375 C1.42765625 27.70917969 1.42765625 27.70917969 0.84375 29.0703125 C0.4828125 29.92109375 0.121875 30.771875 -0.25 31.6484375 C-0.75273437 32.82672119 -0.75273437 32.82672119 -1.265625 34.02880859 C-2.11637101 35.96176935 -2.11637101 35.96176935 -2 38 C3.94 38 9.88 38 16 38 C13.76686274 30.55620912 10.59727921 23.88023305 7 17 C6.67 17 6.34 17 6 17 Z " fill="#BF1E23" transform="translate(294,23)"/>
<path d="M0 0 C38.87439467 0 38.87439467 0 46.55859375 7.36328125 C51.8016432 13.316771 51.52500043 19.74425281 51.34375 27.39453125 C50.81252846 32.96632081 49.45041397 36.59301109 45.45703125 40.515625 C38.51050908 46.04740924 30.52294632 46.29519708 22 46.125 C21.12988281 46.11597656 20.25976562 46.10695312 19.36328125 46.09765625 C17.2420658 46.07434619 15.12099438 46.03848579 13 46 C13 51.94 13 57.88 13 64 C8.71 64 4.42 64 0 64 C0 42.88 0 21.76 0 0 Z M13 11 C13 18.59 13 26.18 13 34 C15.866875 34.061875 18.73375 34.12375 21.6875 34.1875 C22.58170654 34.21481201 23.47591309 34.24212402 24.3972168 34.27026367 C29.08935444 34.3192004 32.22122733 34.09960512 36 31 C38.83716947 26.7442458 38.63026655 22.99426409 38 18 C36.14022399 14.42923007 34.76307654 13.34836103 31.125 11.6875 C25.26111968 10.30852155 18.96000054 10.88647618 13 11 Z " fill="#AC1B20" transform="translate(216,23)"/>
<path d="M0 0 C1.89422641 1.65576883 3.67825158 3.33407449 5.390625 5.17578125 C4.5603933 9.43642084 2.774511 11.42145544 -0.609375 14.17578125 C-4.47563629 14.30049936 -7.52628136 11.27490884 -10.609375 9.17578125 C-16.35623198 7.26016226 -23.3890118 6.95931176 -29.1015625 9.1171875 C-34.23317046 12.20583456 -37.6223156 15.778637 -39.921875 21.36328125 C-41.16594086 28.26219193 -40.72915624 33.93737293 -37.109375 40.05078125 C-33.30877265 45.18795907 -28.79221014 47.49833526 -22.53515625 48.51171875 C-16.07771462 48.84156842 -10.72636447 46.71941941 -5.609375 42.98828125 C-4.949375 42.39015625 -4.289375 41.79203125 -3.609375 41.17578125 C-2.45418582 42.08062917 -1.31052094 43.00020185 -0.171875 43.92578125 C0.46621094 44.43625 1.10429687 44.94671875 1.76171875 45.47265625 C3.57873054 47.37245754 3.99485697 48.61165033 4.390625 51.17578125 C-3.74685016 58.95945314 -11.3515593 61.80577695 -22.63647461 61.64624023 C-31.81950565 61.23866104 -39.22744978 58.55025052 -45.890625 52.16015625 C-52.50295186 44.52592433 -55.11511757 35.72356928 -54.85546875 25.75 C-53.99244134 16.72245933 -50.33531114 8.65710372 -43.72265625 2.38671875 C-31.38094213 -7.45755617 -13.29844822 -9.29696904 0 0 Z " fill="#AC1B20" transform="translate(392.609375,26.82421875)"/>
<path d="M0 0 C5.29458712 0.04120301 5.29458712 0.04120301 8.3125 2.125 C11.79502769 7.66538496 11.29316198 14.00408816 10.6875 20.3125 C8.77886316 27.33723395 5.81424396 33.41565454 1.74609375 39.41015625 C0.1731929 42.23673453 -0.27813762 45.12871971 -0.85546875 48.28515625 C-1.47122751 51.01659896 -2.78190538 52.98599617 -4.3125 55.3125 C-5.88907098 58.79409425 -7.2969977 62.26831844 -8.5625 65.875 C-11.14537896 72.86800739 -14.4868507 80.55385329 -18.96875 86.515625 C-20.57309483 88.43877692 -20.57309483 88.43877692 -21.3125 91.8125 C-22.26234983 95.1369744 -23.16093922 96.71269739 -25.3125 99.3125 C-25.6425 100.034375 -25.9725 100.75625 -26.3125 101.5 C-27.3125 103.3125 -27.3125 103.3125 -30.3125 104.3125 C-30.3125 103.3225 -30.3125 102.3325 -30.3125 101.3125 C-31.3025 100.9825 -32.2925 100.6525 -33.3125 100.3125 C-31.6625 98.6625 -30.0125 97.0125 -28.3125 95.3125 C-29.3025 95.6425 -30.2925 95.9725 -31.3125 96.3125 C-33.64549825 96.35204234 -35.97958189 96.35651732 -38.3125 96.3125 C-36.44599116 94.83484717 -34.57904484 93.46514173 -32.51171875 92.28125 C-23.62870941 87.1756757 -17.98013389 79.86395507 -14.3125 70.3125 C-13.96846692 67.98072025 -13.63300798 65.64762959 -13.3125 63.3125 C-12.03187515 61.6050002 -10.7052289 59.92986259 -9.3125 58.3125 C-9.3125 57.3225 -9.3125 56.3325 -9.3125 55.3125 C-8.673125 54.36375 -8.03375 53.415 -7.375 52.4375 C-5.44350817 49.51099723 -4.71480178 47.73206515 -4.3125 44.3125 C-5.3025 43.9825 -6.2925 43.6525 -7.3125 43.3125 C-6.590625 42.6525 -5.86875 41.9925 -5.125 41.3125 C3.69235483 32.42042183 7.10974361 21.70453309 7.21875 9.4140625 C6.90829563 6.25292119 6.90829563 6.25292119 4.96875 3.8984375 C2.79713564 2.16354752 2.79713564 2.16354752 0.21875 1.8203125 C-9.60508309 3.73050227 -18.41559722 20.0625121 -23.69433594 27.84228516 C-30.78521853 38.66690044 -37.69029665 50.18698896 -42.3125 62.3125 C-42.79009766 63.42818359 -42.79009766 63.42818359 -43.27734375 64.56640625 C-45.93688277 70.8788061 -48.46027778 77.48432925 -49.3125 84.3125 C-48.6525 85.3025 -47.9925 86.2925 -47.3125 87.3125 C-46.63072584 88.63817199 -45.96058564 89.97003688 -45.3125 91.3125 C-42.50406642 88.01705482 -41.28919036 84.77885808 -39.9375 80.6875 C-38.12536121 75.43066494 -36.06649055 70.57320644 -33.48828125 65.65625 C-32.32038564 63.32821888 -31.36550148 60.99504855 -30.4375 58.5625 C-27.84045679 51.92561179 -24.61982862 45.61873276 -21.3125 39.3125 C-20.90628418 38.53583984 -20.50006836 37.75917969 -20.08154297 36.95898438 C-18.7777342 34.48511584 -17.45466644 32.0225547 -16.125 29.5625 C-15.70911621 28.77552734 -15.29323242 27.98855469 -14.86474609 27.17773438 C-14.4620752 26.44361328 -14.0594043 25.70949219 -13.64453125 24.953125 C-13.29108643 24.29860352 -12.9376416 23.64408203 -12.57348633 22.96972656 C-11.05862981 20.97885608 -9.59843179 20.26479601 -7.3125 19.3125 C-8.96510861 23.99641281 -11.44008072 28.02463129 -14 32.25 C-21.26992126 44.42491252 -27.3885733 56.91260799 -32.25 70.25 C-34.05812365 75.16088399 -35.9768008 79.83622215 -38.4453125 84.45703125 C-39.86505054 87.49475903 -40.68434923 90.69678334 -41.58984375 93.91796875 C-42.24667715 96.0943951 -43.01733102 98.11156323 -43.9375 100.1875 C-45.01480845 102.63592829 -45.72146687 104.73648769 -46.3125 107.3125 C-45.19101562 107.0959375 -45.19101562 107.0959375 -44.046875 106.875 C-43.06203125 106.689375 -42.0771875 106.50375 -41.0625 106.3125 C-40.08796875 106.126875 -39.1134375 105.94125 -38.109375 105.75 C-35.3125 105.3125 -35.3125 105.3125 -31.3125 105.3125 C-32.3125 108.3125 -32.3125 108.3125 -34.625 109.5 C-37.3125 110.3125 -37.3125 110.3125 -41.3125 110.3125 C-41.6425 111.9625 -41.9725 113.6125 -42.3125 115.3125 C-43.9625 114.9825 -45.6125 114.6525 -47.3125 114.3125 C-50.39011568 121.51774142 -52.88543265 128.8802738 -55.29345703 136.32958984 C-57.21045014 142.21045014 -57.21045014 142.21045014 -58.3125 143.3125 C-60.8125 143.4375 -60.8125 143.4375 -63.3125 143.3125 C-63.6425 142.9825 -63.9725 142.6525 -64.3125 142.3125 C-63.905404 135.03658431 -62.05093679 128.63458514 -59.75 121.75 C-59.42064453 120.74130859 -59.09128906 119.73261719 -58.75195312 118.69335938 C-57.94653418 116.23041158 -57.13327961 113.77036243 -56.3125 111.3125 C-57.9625 111.3125 -59.6125 111.3125 -61.3125 111.3125 C-61.9375 108.9375 -61.9375 108.9375 -62.3125 106.3125 C-61.3225 105.3225 -61.3225 105.3225 -60.3125 104.3125 C-59.66482207 101.74188689 -59.66482207 101.74188689 -59.3125 99.3125 C-58.3225 99.3125 -57.3325 99.3125 -56.3125 99.3125 C-57.055 97.9821875 -57.055 97.9821875 -57.8125 96.625 C-59.25628674 93.43663762 -59.61409922 91.73062454 -59.3125 88.3125 C-56.8375 87.8175 -56.8375 87.8175 -54.3125 87.3125 C-54.05597656 86.18457031 -53.79945312 85.05664062 -53.53515625 83.89453125 C-46.97584898 56.40988097 -32.20506106 23.28705459 -10.125 4.5625 C-9.43019531 3.96953125 -8.73539063 3.3765625 -8.01953125 2.765625 C-7.45621094 2.28609375 -6.89289063 1.8065625 -6.3125 1.3125 C-4.58665266 -0.41334734 -2.35040633 0.0591493 0 0 Z " fill="#87738E" transform="translate(79.3125,-0.3125)"/>
<path d="M0 0 C1.75570312 0.01353516 1.75570312 0.01353516 3.546875 0.02734375 C4.43890625 0.03894531 5.3309375 0.05054688 6.25 0.0625 C6.5 5.703125 6.5 5.703125 4.25 8.9375 C3.59 9.63875 2.93 10.34 2.25 11.0625 C2.745 12.0525 2.745 12.0525 3.25 13.0625 C2.2909375 14.361875 2.2909375 14.361875 1.3125 15.6875 C-0.88843023 18.80747361 -0.88843023 18.80747361 -1.1875 21.8125 C-2.80995572 31.18668859 -8.85692123 38.79101931 -15.75 45.0625 C-18.64301213 47.01014054 -21.57037446 48.6342994 -24.75 50.0625 C-22.11 50.0625 -19.47 50.0625 -16.75 50.0625 C-18.5 53.9375 -18.5 53.9375 -20.75 55.0625 C-19.43 56.0525 -18.11 57.0425 -16.75 58.0625 C-17.08 59.0525 -17.41 60.0425 -17.75 61.0625 C-26.165 61.5575 -26.165 61.5575 -34.75 62.0625 C-33.80589018 56.39784106 -32.34078511 51.55819552 -30.4375 46.1875 C-30.14166016 45.32769531 -29.84582031 44.46789062 -29.54101562 43.58203125 C-27.86902654 38.82245973 -25.97835214 34.34323031 -23.65405273 29.86767578 C-22.36717497 27.29809052 -21.40780298 24.64023485 -20.4375 21.9375 C-18.54808558 16.95737682 -16.49479844 12.11004902 -14.1875 7.3125 C-13.62933594 6.14203125 -13.07117188 4.9715625 -12.49609375 3.765625 C-10.75 1.0625 -10.75 1.0625 -8.95703125 0.17578125 C-5.96402824 0.02215809 -2.99749357 -0.02997494 0 0 Z " fill="#BF2646" transform="translate(67.75,44.9375)"/>
<path d="M0 0 C2.5703125 0.39453125 2.5703125 0.39453125 5.1953125 2.20703125 C8.67784019 7.74741621 8.17597448 14.08611941 7.5703125 20.39453125 C5.66167566 27.4192652 2.69705646 33.49768579 -1.37109375 39.4921875 C-2.9439946 42.31876578 -3.39532512 45.21075096 -3.97265625 48.3671875 C-4.58841501 51.09863021 -5.89909288 53.06802742 -7.4296875 55.39453125 C-9.00625848 58.8761255 -10.4141852 62.35034969 -11.6796875 65.95703125 C-14.26256646 72.95003864 -17.6040382 80.63588454 -22.0859375 86.59765625 C-23.69028233 88.52080817 -23.69028233 88.52080817 -24.4296875 91.89453125 C-25.37953733 95.21900565 -26.27812672 96.79472864 -28.4296875 99.39453125 C-28.9246875 100.47734375 -28.9246875 100.47734375 -29.4296875 101.58203125 C-30.4296875 103.39453125 -30.4296875 103.39453125 -33.4296875 104.39453125 C-33.4296875 103.40453125 -33.4296875 102.41453125 -33.4296875 101.39453125 C-34.4196875 101.06453125 -35.4096875 100.73453125 -36.4296875 100.39453125 C-34.7796875 98.74453125 -33.1296875 97.09453125 -31.4296875 95.39453125 C-32.9146875 95.88953125 -32.9146875 95.88953125 -34.4296875 96.39453125 C-36.76268575 96.43407359 -39.09676939 96.43854857 -41.4296875 96.39453125 C-39.56317866 94.91687842 -37.69623234 93.54717298 -35.62890625 92.36328125 C-26.74589691 87.25770695 -21.09732139 79.94598632 -17.4296875 70.39453125 C-17.08565442 68.0627515 -16.75019548 65.72966084 -16.4296875 63.39453125 C-15.14906265 61.68703145 -13.8224164 60.01189384 -12.4296875 58.39453125 C-12.4296875 57.40453125 -12.4296875 56.41453125 -12.4296875 55.39453125 C-11.7903125 54.44578125 -11.1509375 53.49703125 -10.4921875 52.51953125 C-8.56069567 49.59302848 -7.83198928 47.8140964 -7.4296875 44.39453125 C-8.4196875 44.06453125 -9.4096875 43.73453125 -10.4296875 43.39453125 C-9.7078125 42.73453125 -8.9859375 42.07453125 -8.2421875 41.39453125 C0.57516733 32.50245308 3.99255611 21.78656434 4.1015625 9.49609375 C3.79110813 6.33495244 3.79110813 6.33495244 1.8515625 3.98046875 C-0.32005186 2.24557877 -0.32005186 2.24557877 -2.8984375 1.90234375 C-12.76177912 3.82021573 -21.46878 20.15358952 -26.79394531 27.93652344 C-31.23673734 34.61264734 -35.35642216 41.48875475 -39.4296875 48.39453125 C-40.4296875 45.39453125 -40.4296875 45.39453125 -39.19921875 42.63671875 C-31.39823732 29.21467085 -22.61981242 16.13633428 -12.4296875 4.39453125 C-11.8109375 3.65847656 -11.1921875 2.92242187 -10.5546875 2.1640625 C-7.19007183 -0.63772224 -4.21362884 -0.15169064 0 0 Z " fill="#CEC2C5" transform="translate(82.4296875,-0.39453125)"/>
<path d="M0 0 C4.62254928 2.3262505 7.33253032 5.52551847 8.93359375 10.34765625 C9.84581845 15.66113 9.32482099 20.29667838 6.32421875 24.83984375 C2.71221209 28.75623299 -1.92733681 30.54313007 -7.19140625 30.78515625 C-13.19446369 30.1073917 -17.17216924 27.96304826 -21.06640625 23.34765625 C-22.71425819 18.40410044 -22.77798218 13.49494384 -22.06640625 8.34765625 C-17.57589425 -0.16530135 -9.03840746 -2.85333468 0 0 Z M-13.06640625 8.34765625 C-15.14158914 11.08130808 -15.14158914 11.08130808 -16.06640625 14.34765625 C-15.46321237 17.42394505 -14.54281499 19.55364168 -12.94140625 22.22265625 C-9.82171235 24.09447259 -6.54171763 23.99927713 -3.06640625 23.34765625 C0.27785004 20.77515141 1.75059227 18.72016732 2.30859375 14.53515625 C2.19261391 11.18011776 2.19261391 11.18011776 -0.25390625 8.53515625 C-5.11283022 4.75599316 -8.18736043 4.36738203 -13.06640625 8.34765625 Z " fill="#C1C1C1" transform="translate(461.06640625,112.65234375)"/>
<path d="M0 0 C4.5478125 -0.12375 4.5478125 -0.12375 9.1875 -0.25 C10.60712036 -0.30462402 10.60712036 -0.30462402 12.05541992 -0.36035156 C16.11389428 -0.41376955 18.45824124 -0.30868457 22.05078125 1.73828125 C25.08358605 5.25730726 25.29886149 8.46053627 25 13 C23.6875 16.0625 23.6875 16.0625 22 18 C21.34 18 20.68 18 20 18 C20.433125 18.62648437 20.86625 19.25296875 21.3125 19.8984375 C21.869375 20.71570313 22.42625 21.53296875 23 22.375 C23.556875 23.18710938 24.11375 23.99921875 24.6875 24.8359375 C26 27 26 27 26 29 C22.89855484 29.42568855 20.08464345 29.6035172 17 29 C14.69879375 26.9982658 13.24869075 24.77347392 12 22 C12 21.34 12 20.68 12 20 C10.35 20 8.7 20 7 20 C7 22.97 7 25.94 7 29 C4.69 29 2.38 29 0 29 C0 19.43 0 9.86 0 0 Z M7 6 C7 8.64 7 11.28 7 14 C12.28513335 14.46312039 12.28513335 14.46312039 17.0625 12.75 C18.20705928 11.01427268 18.20705928 11.01427268 17.75 8.875 C17.15045529 7.01914885 17.15045529 7.01914885 16 6 C14.48071962 5.92820036 12.95832518 5.91607993 11.4375 5.9375 C10.19806641 5.95103516 10.19806641 5.95103516 8.93359375 5.96484375 C7.97646484 5.98224609 7.97646484 5.98224609 7 6 Z " fill="#B4B4B4" transform="translate(344,113)"/>
<path d="M0 0 C4.5478125 -0.12375 4.5478125 -0.12375 9.1875 -0.25 C10.60712036 -0.30462402 10.60712036 -0.30462402 12.05541992 -0.36035156 C16.11389428 -0.41376955 18.45824124 -0.30868457 22.05078125 1.73828125 C25.08358605 5.25730726 25.29886149 8.46053627 25 13 C23.6875 16.0625 23.6875 16.0625 22 18 C21.34 18 20.68 18 20 18 C20.433125 18.62648437 20.86625 19.25296875 21.3125 19.8984375 C21.869375 20.71570313 22.42625 21.53296875 23 22.375 C23.556875 23.18710938 24.11375 23.99921875 24.6875 24.8359375 C26 27 26 27 26 29 C22.89855484 29.42568855 20.08464345 29.6035172 17 29 C14.69879375 26.9982658 13.24869075 24.77347392 12 22 C12 21.34 12 20.68 12 20 C10.35 20 8.7 20 7 20 C7 22.97 7 25.94 7 29 C4.69 29 2.38 29 0 29 C0 19.43 0 9.86 0 0 Z M7 6 C7 8.64 7 11.28 7 14 C12.28513335 14.46312039 12.28513335 14.46312039 17.0625 12.75 C18.20705928 11.01427268 18.20705928 11.01427268 17.75 8.875 C17.15045529 7.01914885 17.15045529 7.01914885 16 6 C14.48071962 5.92820036 12.95832518 5.91607993 11.4375 5.9375 C10.19806641 5.95103516 10.19806641 5.95103516 8.93359375 5.96484375 C7.97646484 5.98224609 7.97646484 5.98224609 7 6 Z " fill="#B4B4B4" transform="translate(261,113)"/>
<path d="M0 0 C4.5478125 -0.12375 4.5478125 -0.12375 9.1875 -0.25 C10.60712036 -0.30462402 10.60712036 -0.30462402 12.05541992 -0.36035156 C16.13585061 -0.41405854 18.45465435 -0.31590995 22.0546875 1.76953125 C24.9305806 5.06699101 25.16107554 7.72725925 25 12 C24.25 14.9375 24.25 14.9375 23 17 C22.01 17.33 21.02 17.66 20 18 C20.433125 18.62648437 20.86625 19.25296875 21.3125 19.8984375 C21.869375 20.71570313 22.42625 21.53296875 23 22.375 C23.556875 23.18710938 24.11375 23.99921875 24.6875 24.8359375 C26 27 26 27 26 29 C22.89855484 29.42568855 20.08464345 29.6035172 17 29 C14.69879375 26.9982658 13.24869075 24.77347392 12 22 C12 21.34 12 20.68 12 20 C10.35 20 8.7 20 7 20 C7 22.97 7 25.94 7 29 C4.69 29 2.38 29 0 29 C0 19.43 0 9.86 0 0 Z M7 6 C7 8.64 7 11.28 7 14 C12.28513335 14.46312039 12.28513335 14.46312039 17.0625 12.75 C18.20705928 11.01427268 18.20705928 11.01427268 17.75 8.875 C17.15045529 7.01914885 17.15045529 7.01914885 16 6 C14.48071962 5.92820036 12.95832518 5.91607993 11.4375 5.9375 C10.19806641 5.95103516 10.19806641 5.95103516 8.93359375 5.96484375 C7.97646484 5.98224609 7.97646484 5.98224609 7 6 Z " fill="#B4B4B4" transform="translate(411,113)"/>
<path d="M0 0 C1.32 0.33 2.64 0.66 4 1 C4.12375 1.804375 4.2475 2.60875 4.375 3.4375 C4.58125 4.283125 4.7875 5.12875 5 6 C5.66 6.33 6.32 6.66 7 7 C6.52949219 8.00160156 6.05898438 9.00320312 5.57421875 10.03515625 C4.94525277 11.37757618 4.31634989 12.72002568 3.6875 14.0625 C3.37876953 14.71927734 3.07003906 15.37605469 2.75195312 16.05273438 C-0.19155435 22.34254509 -2.92064331 28.68922005 -5.375 35.1875 C-7.78946644 41.51354885 -10.36001208 47.76513492 -13 54 C-13.99 54 -14.98 54 -16 54 C-18.32987075 51.49090842 -19.46496437 49.36275421 -20 46 C-19.59448242 43.74169922 -19.59448242 43.74169922 -18.85546875 41.3046875 C-18.59056641 40.42425781 -18.32566406 39.54382813 -18.05273438 38.63671875 C-17.76720703 37.72535156 -17.48167969 36.81398437 -17.1875 35.875 C-16.91357422 34.95589844 -16.63964844 34.03679687 -16.35742188 33.08984375 C-14.26914683 26.26914683 -14.26914683 26.26914683 -12 24 C-11.41583659 22.60032134 -10.88151773 21.17961079 -10.375 19.75 C-7.68495237 12.74766228 -3.81805651 6.43138645 0 0 Z " fill="#BF2A4A" transform="translate(49,37)"/>
<path d="M0 0 C2.31 0 4.62 0 7 0 C7 3.96 7 7.92 7 12 C10.96 12 14.92 12 19 12 C19 8.04 19 4.08 19 0 C21.31 0 23.62 0 26 0 C26 9.57 26 19.14 26 29 C23.69 29 21.38 29 19 29 C19 25.37 19 21.74 19 18 C15.04 18 11.08 18 7 18 C7 21.63 7 25.26 7 29 C4.69 29 2.38 29 0 29 C0 19.43 0 9.86 0 0 Z " fill="#ACACAC" transform="translate(93,113)"/>
<path d="M0 0 C7.26 0 14.52 0 22 0 C22 1.98 22 3.96 22 6 C17.05 6 12.1 6 7 6 C7 7.65 7 9.3 7 11 C11.29 11 15.58 11 20 11 C20 13.31 20 15.62 20 18 C15.71 18 11.42 18 7 18 C7 19.65 7 21.3 7 23 C11.95 23 16.9 23 22 23 C22 24.98 22 26.96 22 29 C14.74 29 7.48 29 0 29 C0 19.43 0 9.86 0 0 Z " fill="#ADADAD" transform="translate(495,113)"/>
<path d="M0 0 C7.26 0 14.52 0 22 0 C22 1.98 22 3.96 22 6 C17.05 6 12.1 6 7 6 C7 7.65 7 9.3 7 11 C11.29 11 15.58 11 20 11 C20 13.31 20 15.62 20 18 C15.71 18 11.42 18 7 18 C7 19.65 7 21.3 7 23 C11.95 23 16.9 23 22 23 C22 24.98 22 26.96 22 29 C14.74 29 7.48 29 0 29 C0 19.43 0 9.86 0 0 Z " fill="#ADADAD" transform="translate(318,113)"/>
<path d="M0 0 C7.26 0 14.52 0 22 0 C22 1.98 22 3.96 22 6 C17.05 6 12.1 6 7 6 C7 7.65 7 9.3 7 11 C11.29 11 15.58 11 20 11 C20 13.31 20 15.62 20 18 C15.71 18 11.42 18 7 18 C7 19.65 7 21.3 7 23 C11.95 23 16.9 23 22 23 C22 24.98 22 26.96 22 29 C14.74 29 7.48 29 0 29 C0 19.43 0 9.86 0 0 Z " fill="#ACACAC" transform="translate(235,113)"/>
<path d="M0 0 C3.625 1.5 3.625 1.5 6 3 C5.66113278 5.54150417 5.36171575 6.69393283 3.375 8.375 C-0.12358574 9.29568046 -2.6515074 8.15909359 -6 7 C-6.99 7.99 -7.98 8.98 -9 10 C-8.25234375 10.17015625 -7.5046875 10.3403125 -6.734375 10.515625 C-5.74953125 10.75796875 -4.7646875 11.0003125 -3.75 11.25 C-2.28820312 11.59804687 -2.28820312 11.59804687 -0.796875 11.953125 C2.37637056 13.14087613 3.8831603 14.37706529 6 17 C7.05590483 20.87165104 7.37482524 23.0629369 5.875 26.8125 C2.8253867 30.37038219 0.21177888 30.88779825 -4.375 31.3125 C-9.24948767 30.89228555 -12.64019958 29.17990021 -17 27 C-16.42655063 24.13275314 -16.1385485 23.1385485 -14 21 C-11.73725212 21.35355436 -10.04911148 21.97544426 -8 23 C-5.6670134 23.04022391 -3.33293334 23.04320247 -1 23 C-1 22.34 -1 21.68 -1 21 C-1.74765625 20.76925781 -2.4953125 20.53851563 -3.265625 20.30078125 C-11.2609486 17.65311519 -11.2609486 17.65311519 -14.6875 14.625 C-16.31046531 11.37906938 -16.59751829 9.58510976 -16 6 C-11.61445103 -0.57832346 -7.49518684 -0.68763182 0 0 Z " fill="#A2A2A2" transform="translate(225,112)"/>
<path d="M0 0 C2.866875 -0.0825 5.73375 -0.165 8.6875 -0.25 C9.58170654 -0.28641602 10.47591309 -0.32283203 11.3972168 -0.36035156 C15.44692845 -0.41666694 17.50103852 -0.31241573 21.01953125 1.890625 C23.77872054 4.8294065 24.15483354 6.44195765 24.1875 10.375 C24.20167969 11.14585938 24.21585938 11.91671875 24.23046875 12.7109375 C23.96803345 15.31749827 23.46486727 16.82811477 22 19 C18.82223091 21.23568711 16.06004355 21.21571532 12.25 21.125 C11.26515625 21.10695312 10.2803125 21.08890625 9.265625 21.0703125 C8.51796875 21.04710937 7.7703125 21.02390625 7 21 C7 23.64 7 26.28 7 29 C4.69 29 2.38 29 0 29 C0 19.43 0 9.86 0 0 Z M7 6 C7 8.97 7 11.94 7 15 C11.0100934 15.17864631 11.0100934 15.17864631 15 15 C17.2491908 13.17296773 17.2491908 13.17296773 17.25 10.5 C17.2491908 7.82703227 17.2491908 7.82703227 15 6 C12.31160615 5.73008094 9.70858064 5.91262643 7 6 Z " fill="#AFAFAF" transform="translate(172,113)"/>
<path d="M0 0 C2.866875 -0.0825 5.73375 -0.165 8.6875 -0.25 C9.58170654 -0.28641602 10.47591309 -0.32283203 11.3972168 -0.36035156 C15.44692845 -0.41666694 17.50103852 -0.31241573 21.01953125 1.890625 C24.32883418 5.41532635 24.33061081 8.06313698 24.29296875 12.73828125 C23.86344199 16.0542278 22.39075646 17.74987627 20 20 C17.35541621 21.32229189 15.32238699 21.09677194 12.375 21.0625 C11.37210937 21.05347656 10.36921875 21.04445312 9.3359375 21.03515625 C8.56507813 21.02355469 7.79421875 21.01195312 7 21 C7 23.64 7 26.28 7 29 C4.69 29 2.38 29 0 29 C0 19.43 0 9.86 0 0 Z M7 6 C7 8.97 7 11.94 7 15 C11.0100934 15.17864631 11.0100934 15.17864631 15 15 C17.2491908 13.17296773 17.2491908 13.17296773 17.25 10.5 C17.2491908 7.82703227 17.2491908 7.82703227 15 6 C12.31160615 5.73008094 9.70858064 5.91262643 7 6 Z " fill="#AFAFAF" transform="translate(384,113)"/>
<path d="M0 0 C2.66232739 1.07526097 4.62242962 2.34603799 7 4 C6.67 5.65 6.34 7.3 6 9 C4.1875 9.625 4.1875 9.625 2 10 C1.01 9.34 0.02 8.68 -1 8 C-4.87338754 7.57744863 -7.11598609 7.43332442 -10.4375 9.5625 C-12.60396028 12.94217804 -12.56288002 15.05983987 -12 19 C-10.52006844 21.56338689 -10.52006844 21.56338689 -8 23 C-3.89222251 23.50299316 -2.49124017 23.32749345 1 21 C3.0625 21.125 3.0625 21.125 5 22 C6.25 24.0625 6.25 24.0625 7 26 C2.30524246 29.93344551 -0.71046353 31.32512887 -6.9453125 31.2109375 C-11.57031161 30.73612771 -14.41701993 28.49426571 -17.875 25.5625 C-20.85387244 21.73801216 -20.51678891 17.56812321 -20.46875 12.90234375 C-19.73239289 8.34306599 -17.86847851 5.7625665 -14.4375 2.75 C-9.76045813 -0.60787622 -5.65292199 -0.64869597 0 0 Z " fill="#B9B9B9" transform="translate(540,112)"/>
<path d="M0 0 C2.31 0 4.62 0 7 0 C9.31 5.28 11.62 10.56 14 16 C16.59395171 13.40604829 17.29880793 10.87398799 18.5625 7.4375 C20.90277778 1.09722222 20.90277778 1.09722222 22 0 C24.33297433 -0.04092937 26.66705225 -0.04241723 29 0 C28.43130631 4.0623636 27.53482896 7.57548312 25.96875 11.36328125 C25.57042969 12.33201172 25.17210937 13.30074219 24.76171875 14.29882812 C24.13716797 15.7905957 24.13716797 15.7905957 23.5 17.3125 C22.87544922 18.83327148 22.87544922 18.83327148 22.23828125 20.38476562 C19.14690179 27.85309821 19.14690179 27.85309821 18 29 C15.66702567 29.04092937 13.33294775 29.04241723 11 29 C7.90165041 23.17345763 5.17387174 17.23366827 2.6875 11.125 C2.42114746 10.48296631 2.15479492 9.84093262 1.88037109 9.17944336 C0.54414821 5.83888614 0 3.66391105 0 0 Z " fill="#E2E2E2" transform="translate(287,113)"/>
<path d="M0 0 C0.31690039 4.83273091 -0.52047902 7.78557238 -2.75 12.0625 C-3.26046875 13.06410156 -3.7709375 14.06570312 -4.296875 15.09765625 C-5.98164737 17.96872477 -7.8930331 20.43041645 -10 23 C-10.05270463 24.36893239 -10.05270463 24.36893239 -9 27 C-9.66 27.99 -10.32 28.98 -11 30 C-11 28.68 -11 27.36 -11 26 C-19.415 26.495 -19.415 26.495 -28 27 C-17.46393826 5.18850378 -17.46393826 5.18850378 -13 1 C-8.65318566 -0.09814257 -4.47014786 -0.08940296 0 0 Z " fill="#DE5D2F" transform="translate(85,19)"/>
<path d="M0 0 C0.66 0.33 1.32 0.66 2 1 C1.41734375 1.71800781 0.8346875 2.43601562 0.234375 3.17578125 C-14.10533114 19.94054529 -14.10533114 19.94054529 -22.3125 39.5625 C-23.15670885 43.78354424 -24.84882322 47.25984296 -26.66796875 51.14453125 C-30.33399315 59.00336947 -33.91819586 67.33237417 -35 76 C-34.34 76.99 -33.68 77.98 -33 79 C-30.80378026 82.51792664 -29.88564976 84.19392451 -30.4765625 88.359375 C-30.85554688 89.47828125 -31.23453125 90.5971875 -31.625 91.75 C-31.98851562 92.87921875 -32.35203125 94.0084375 -32.7265625 95.171875 C-34 98 -34 98 -37 100 C-40 99 -40 99 -41.1875 96.9375 C-41.455625 96.298125 -41.72375 95.65875 -42 95 C-40.68 95 -39.36 95 -38 95 C-38.66 92.03 -39.32 89.06 -40 86 C-40.66 86 -41.32 86 -42 86 C-41.67 87.98 -41.34 89.96 -41 92 C-42.485 92.495 -42.485 92.495 -44 93 C-44.66 93.99 -45.32 94.98 -46 96 C-45.67 94.35 -45.34 92.7 -45 91 C-44.01 91 -43.02 91 -42 91 C-42.7425 89.6696875 -42.7425 89.6696875 -43.5 88.3125 C-44.94378674 85.12413762 -45.30159922 83.41812454 -45 80 C-42.525 79.505 -42.525 79.505 -40 79 C-39.74347656 77.87207031 -39.48695312 76.74414062 -39.22265625 75.58203125 C-32.47913043 47.32547286 -18.31543657 22.39517836 0 0 Z " fill="#767374" transform="translate(65,8)"/>
<path d="M0 0 C15.18 0 30.36 0 46 0 C46 3.96 46 7.92 46 12 C35.11 12 24.22 12 13 12 C13 16.62 13 21.24 13 26 C15.08183594 25.98839844 17.16367187 25.97679688 19.30859375 25.96484375 C21.31746298 25.95789265 23.32633251 25.95097611 25.33520508 25.94506836 C26.73495228 25.9400292 28.1346942 25.93319784 29.53442383 25.92456055 C31.54245777 25.9124768 33.55052957 25.90730193 35.55859375 25.90234375 C37.37315063 25.89448853 37.37315063 25.89448853 39.22436523 25.88647461 C42 26 42 26 43 27 C43 30.63 43 34.26 43 38 C33.1 38 23.2 38 13 38 C13 42.95 13 47.9 13 53 C24.22 53 35.44 53 47 53 C47 56.63 47 60.26 47 64 C46.67 64 46.34 64 46 64 C46 60.7 46 57.4 46 54 C34.45 54 22.9 54 11 54 C11 48.39 11 42.78 11 37 C20.9 37 30.8 37 41 37 C41 34.03 41 31.06 41 28 C31.1 28 21.2 28 11 28 C11 22.39 11 16.78 11 11 C22.22 11 33.44 11 45 11 C45 7.7 45 4.4 45 1 C30.48 1 15.96 1 1 1 C1 21.79 1 42.58 1 64 C0.67 64 0.34 64 0 64 C0 42.88 0 21.76 0 0 Z " fill="#210405" transform="translate(478,23)"/>
<path d="M0 0 C3.96 0 7.92 0 12 0 C13 1 13 1 13.11352539 3.50024414 C13.10828857 4.58426514 13.10305176 5.66828613 13.09765625 6.78515625 C13.09515869 7.83840088 13.09266113 8.89164551 13.09008789 9.97680664 C13.08098389 11.32508545 13.07187988 12.67336426 13.0625 14.0625 C13.041875 18.331875 13.02125 22.60125 13 27 C22.57 27 32.14 27 42 27 C42 18.09 42 9.18 42 0 C45.96 0 49.92 0 54 0 C55 1 55 1 55.12025452 3.51197815 C55.11803391 4.62894577 55.11581329 5.74591339 55.11352539 6.89672852 C55.11344986 8.15796036 55.11337433 9.4191922 55.11329651 10.71864319 C55.1081891 12.10539794 55.10297309 13.49215229 55.09765625 14.87890625 C55.09579201 16.28995209 55.09436814 17.70099857 55.09336853 19.11204529 C55.08954379 22.83240535 55.0797139 26.5527266 55.06866455 30.27307129 C55.05844948 34.06680781 55.05387071 37.86055058 55.04882812 41.65429688 C55.03809158 49.10288231 55.0210157 56.55143572 55 64 C54.34 64 53.68 64 53 64 C53 43.21 53 22.42 53 1 C49.7 1 46.4 1 43 1 C43 10.24 43 19.48 43 29 C32.44 29 21.88 29 11 29 C11 19.76 11 10.52 11 1 C7.7 1 4.4 1 1 1 C1 21.79 1 42.58 1 64 C0.67 64 0.34 64 0 64 C0 42.88 0 21.76 0 0 Z " fill="#300708" transform="translate(408,23)"/>
<path d="M0 0 C5.28 0 10.56 0 16 0 C16.08101311 3.72960366 16.14051069 7.45744359 16.1875 11.1875 C16.21263672 12.24259766 16.23777344 13.29769531 16.26367188 14.38476562 C16.27333984 15.40634766 16.28300781 16.42792969 16.29296875 17.48046875 C16.3086792 18.41785889 16.32438965 19.35524902 16.34057617 20.32104492 C15.93251091 23.53086583 14.87052228 25.38452139 13 28 C10.0470918 30.06157862 7.96023986 30.20300885 4.4375 29.75 C3.67308594 29.66234375 2.90867187 29.5746875 2.12109375 29.484375 C0 29 0 29 -3 27 C-2.67 25.35 -2.34 23.7 -2 22 C1.35103437 20.88298854 3.59004761 21.262713 7 22 C8.99616554 20.00383446 8.40983427 16.18298037 8.5625 13.4375 C8.60568359 12.72658203 8.64886719 12.01566406 8.69335938 11.28320312 C8.79971777 9.52238088 8.90038846 7.7612168 9 6 C6.03 6 3.06 6 0 6 C0 4.02 0 2.04 0 0 Z " fill="#A5A5A5" transform="translate(474,113)"/>
<path d="M0 0 C7.59 0 15.18 0 23 0 C23 1.98 23 3.96 23 6 C20.36 6 17.72 6 15 6 C15 13.59 15 21.18 15 29 C12.69 29 10.38 29 8 29 C8 21.41 8 13.82 8 6 C5.36 6 2.72 6 0 6 C0 4.02 0 2.04 0 0 Z " fill="#AEAEAE" transform="translate(548,113)"/>
<path d="M0 0 C7.59 0 15.18 0 23 0 C23 1.98 23 3.96 23 6 C20.36 6 17.72 6 15 6 C15 13.59 15 21.18 15 29 C12.69 29 10.38 29 8 29 C8 21.41 8 13.82 8 6 C5.36 6 2.72 6 0 6 C0 4.02 0 2.04 0 0 Z " fill="#AEAEAE" transform="translate(146,113)"/>
<path d="M0 0 C7.59 0 15.18 0 23 0 C23 1.98 23 3.96 23 6 C20.36 6 17.72 6 15 6 C15 13.59 15 21.18 15 29 C12.69 29 10.38 29 8 29 C8 21.41 8 13.82 8 6 C5.36 6 2.72 6 0 6 C0 4.02 0 2.04 0 0 Z " fill="#AEAEAE" transform="translate(122,113)"/>
<path d="M0 0 C0.66 0 1.32 0 2 0 C0.34739139 4.68391281 -2.12758072 8.71213129 -4.6875 12.9375 C-11.95742126 25.11241252 -18.0760733 37.60010799 -22.9375 50.9375 C-24.74562365 55.84838399 -26.6643008 60.52372215 -29.1328125 65.14453125 C-30.55255054 68.18225903 -31.37184923 71.38428334 -32.27734375 74.60546875 C-32.93417715 76.7818951 -33.70483102 78.79906323 -34.625 80.875 C-35.70230845 83.32342829 -36.40896687 85.42398769 -37 88 C-35.87851562 87.7834375 -35.87851562 87.7834375 -34.734375 87.5625 C-33.74953125 87.376875 -32.7646875 87.19125 -31.75 87 C-30.77546875 86.814375 -29.8009375 86.62875 -28.796875 86.4375 C-26 86 -26 86 -22 86 C-23 89 -23 89 -25.3125 90.1875 C-28 91 -28 91 -32 91 C-32.33 92.65 -32.66 94.3 -33 96 C-34.65 95.67 -36.3 95.34 -38 95 C-38 94.34 -38 93.68 -38 93 C-38.66 93 -39.32 93 -40 93 C-40.495 93.99 -40.495 93.99 -41 95 C-40.31662833 83.83826274 -35.62358685 73.15031356 -31.25390625 62.97265625 C-29.90648891 59.77831171 -28.66588055 56.55437283 -27.4375 53.3125 C-21.83521703 38.6843167 -14.63429864 24.85314883 -7.125 11.125 C-6.64861084 10.25061279 -6.17222168 9.37622559 -5.68139648 8.4753418 C-5.23223877 7.66105713 -4.78308105 6.84677246 -4.3203125 6.0078125 C-3.92086426 5.28223145 -3.52141602 4.55665039 -3.10986328 3.80908203 C-2 2 -2 2 0 0 Z " fill="#CC9EBD" transform="translate(70,19)"/>
<path d="M0 0 C1.22265625 2.078125 1.22265625 2.078125 2 5 C0.93175737 7.5056796 -0.11153492 9.48765623 -1.5625 11.75 C-2.31423558 12.98671577 -3.06553726 14.22369539 -3.81640625 15.4609375 C-4.18910645 16.06131836 -4.56180664 16.66169922 -4.94580078 17.28027344 C-6.37109732 19.60537506 -7.69025884 21.98329875 -9 24.375 C-9.391875 25.08398438 -9.78375 25.79296875 -10.1875 26.5234375 C-10.455625 27.01070312 -10.72375 27.49796875 -11 28 C-11.99 28 -12.98 28 -14 28 C-14.28875 27.195625 -14.5775 26.39125 -14.875 25.5625 C-15.73262568 22.8673532 -15.73262568 22.8673532 -18 22 C-16.50104239 17.71153839 -14.26607525 14.14127173 -11.6875 10.4375 C-11.30916016 9.87353516 -10.93082031 9.30957031 -10.54101562 8.72851562 C-4.50762061 0 -4.50762061 0 0 0 Z " fill="#DD5A33" transform="translate(68,15)"/>
<path d="M0 0 C5.17545542 7.76318313 5.17545542 7.76318313 4.5234375 12.359375 C4.14445312 13.47828125 3.76546875 14.5971875 3.375 15.75 C3.01148438 16.87921875 2.64796875 18.0084375 2.2734375 19.171875 C1 22 1 22 -2 24 C-5 23 -5 23 -6.1875 20.9375 C-6.5896875 19.9784375 -6.5896875 19.9784375 -7 19 C-5.68 19 -4.36 19 -3 19 C-3.66 16.03 -4.32 13.06 -5 10 C-5.66 10 -6.32 10 -7 10 C-6.67 11.98 -6.34 13.96 -6 16 C-6.99 16.33 -7.98 16.66 -9 17 C-9.66 17.99 -10.32 18.98 -11 20 C-10.67 18.35 -10.34 16.7 -10 15 C-9.01 15 -8.02 15 -7 15 C-7.495 14.113125 -7.99 13.22625 -8.5 12.3125 C-9.94378674 9.12413762 -10.30159922 7.41812454 -10 4 C-8.35 3.67 -6.7 3.34 -5 3 C-5.99 3.99 -6.98 4.98 -8 6 C-7.0409375 6.4640625 -7.0409375 6.4640625 -6.0625 6.9375 C-4 8 -4 8 -3 9 C-2.01 6.03 -1.02 3.06 0 0 Z " fill="#8B2B75" transform="translate(30,84)"/>
<path d="M0 0 C0.99 0 1.98 0 3 0 C1.25 3.875 1.25 3.875 -1 5 C0.32 5.99 1.64 6.98 3 8 C2.67 8.99 2.34 9.98 2 11 C-6.415 11.495 -6.415 11.495 -15 12 C-13.35820896 2.14925373 -13.35820896 2.14925373 -10.375 -0.375 C-6.73968742 -1.3316612 -3.70859433 -0.58866577 0 0 Z " fill="#862D7B" transform="translate(48,95)"/>
<path d="M0 0 C2.31 0 4.62 0 7 0 C9.31 5.28 11.62 10.56 14 16 C16.59395171 13.40604829 17.29880793 10.87398799 18.5625 7.4375 C20.90277778 1.09722222 20.90277778 1.09722222 22 0 C24.33297433 -0.04092937 26.66705225 -0.04241723 29 0 C28.3986366 6.19298795 25.91911252 11.62196303 23.5625 17.3125 C23.15451172 18.32634766 22.74652344 19.34019531 22.32617188 20.38476562 C21.93107422 21.34705078 21.53597656 22.30933594 21.12890625 23.30078125 C20.76869385 24.17903564 20.40848145 25.05729004 20.03735352 25.9621582 C19 28 19 28 17 29 C18.64522124 22.86649977 20.71417318 16.95615793 23.0625 11.0625 C23.3198291 10.4120874 23.5771582 9.7616748 23.84228516 9.09155273 C25.02871099 6.15616497 26.23585743 3.64621386 28 1 C26.35 1 24.7 1 23 1 C22.89816406 1.67417969 22.79632813 2.34835938 22.69140625 3.04296875 C21.84598862 6.65868143 20.4376995 9.9327002 18.9375 13.3125 C18.65583984 13.95767578 18.37417969 14.60285156 18.08398438 15.26757812 C17.3937257 16.84698358 16.69746802 18.42376493 16 20 C15.01 20 14.02 20 13 20 C12.01761592 17.58459694 11.03899782 15.16778178 10.0625 12.75 C9.78470703 12.06808594 9.50691406 11.38617188 9.22070312 10.68359375 C7.93024244 7.48076362 6.78199956 4.36162466 6 1 C4.68 1 3.36 1 2 1 C2.33 3.64 2.66 6.28 3 9 C0.87491756 5.81237635 0.4979837 3.73487777 0 0 Z " fill="#393939" transform="translate(287,113)"/>
<path d="M0 0 C0.66 0 1.32 0 2 0 C0.34739139 4.68391281 -2.12758072 8.71213129 -4.6875 12.9375 C-12.05446624 25.27493341 -18.19035534 37.95137874 -23.1875 51.4375 C-23.46013672 52.16904297 -23.73277344 52.90058594 -24.01367188 53.65429688 C-24.67730601 55.43563061 -25.3388716 57.21773476 -26 59 C-26.99 58.67 -27.98 58.34 -29 58 C-27.43963714 52.9205209 -25.77330147 48.54821441 -23 44 C-22.39729945 42.52861838 -21.81674704 41.04810075 -21.25 39.5625 C-17.26195219 29.38248322 -11.96060292 19.80833339 -6.6875 10.25 C-6.2548584 9.46302734 -5.8222168 8.67605469 -5.37646484 7.86523438 C-4.96734863 7.13111328 -4.55823242 6.39699219 -4.13671875 5.640625 C-3.59084106 4.65884277 -3.59084106 4.65884277 -3.03393555 3.65722656 C-2 2 -2 2 0 0 Z " fill="#E18E9A" transform="translate(70,19)"/>
<path d="M0 0 C0.79921875 0.03609375 1.5984375 0.0721875 2.421875 0.109375 C3.02515625 0.15578125 3.6284375 0.2021875 4.25 0.25 C4.25 0.58 4.25 0.91 4.25 1.25 C3.280625 1.394375 2.31125 1.53875 1.3125 1.6875 C-15.23623083 6.67524123 -27.63415145 34.49046519 -35.75 48.25 C-36.75 45.25 -36.75 45.25 -35.51953125 42.4921875 C-27.71854982 29.0701396 -18.94012492 15.99180303 -8.75 4.25 C-8.11578125 3.50878906 -7.4815625 2.76757812 -6.828125 2.00390625 C-4.32305761 -0.11033296 -3.21889492 -0.18934676 0 0 Z " fill="#F9EDEA" transform="translate(78.75,-0.25)"/>
<path d="M0 0 C3.87457592 1.46966673 5.169723 3.33431918 7 7 C8.51509919 16.29260835 6.27523964 24.73855101 2 33 C0.33203125 34.8671875 0.33203125 34.8671875 -1 36 C-0.91158724 34.45734969 -0.80340305 32.91582877 -0.6875 31.375 C-0.62949219 30.51648438 -0.57148437 29.65796875 -0.51171875 28.7734375 C0 26 0 26 1.515625 23.10546875 C3.24482865 19.48779269 3.43315573 16.92988751 3.4375 12.9375 C3.45683594 11.75027344 3.47617188 10.56304687 3.49609375 9.33984375 C2.91926864 5.45649359 1.67664867 3.80385573 -1 1 C-0.67 0.67 -0.34 0.34 0 0 Z " fill="#E2D1C1" transform="translate(83,0)"/>
<path d="M0 0 C0.66 0 1.32 0 2 0 C1.5875 1.216875 1.175 2.43375 0.75 3.6875 C-0.57563308 7.64564027 -1.79845519 11.62755283 -3 15.625 C-5.85568463 24.89783147 -5.85568463 24.89783147 -8 29 C-8.99 29.33 -9.98 29.66 -11 30 C-11 29.01 -11 28.02 -11 27 C-11.66 26.67 -12.32 26.34 -13 26 C-12.65066406 25.55269531 -12.30132812 25.10539062 -11.94140625 24.64453125 C-9.31101372 21.14976044 -7.40792858 18.48721443 -7 14 C-7.99 13.67 -8.98 13.34 -10 13 C-9.278125 12.34 -8.55625 11.68 -7.8125 11 C-4.96692651 8.19484659 -3.07672916 5.03423608 -1.11328125 1.57421875 C-0.74589844 1.05472656 -0.37851563 0.53523438 0 0 Z " fill="#D5B9B9" transform="translate(82,30)"/>
<path d="M0 0 C0.66 0.33 1.32 0.66 2 1 C1.71012207 1.57073242 1.42024414 2.14146484 1.12158203 2.72949219 C0.04491997 4.90906493 -0.96100914 7.10550452 -1.9453125 9.328125 C-2.29980469 10.12734375 -2.65429688 10.9265625 -3.01953125 11.75 C-3.38433594 12.575 -3.74914062 13.4 -4.125 14.25 C-4.49753906 15.09046875 -4.87007813 15.9309375 -5.25390625 16.796875 C-6.17011189 18.8642108 -7.08516867 20.93205568 -8 23 C-2.06 23 3.88 23 10 23 C9.34 21.02 8.68 19.04 8 17 C8.66 17 9.32 17 10 17 C10.66 19.64 11.32 22.28 12 25 C4.41 25 -3.18 25 -11 25 C-9.78016639 21.34049917 -8.63656002 17.99231971 -7.08984375 14.51171875 C-6.73986328 13.72345703 -6.38988281 12.93519531 -6.02929688 12.12304688 C-5.66900391 11.31931641 -5.30871094 10.51558594 -4.9375 9.6875 C-4.57333984 8.86443359 -4.20917969 8.04136719 -3.83398438 7.19335938 C-1.12948754 1.12948754 -1.12948754 1.12948754 0 0 Z " fill="#2B0607" transform="translate(300,38)"/>
<path d="M0 0 C0.66 0 1.32 0 2 0 C1.11259948 2.66220155 0.0883683 5.11445319 -1.06640625 7.66796875 C-1.46923828 8.56064453 -1.87207031 9.45332031 -2.28710938 10.37304688 C-2.70798828 11.30181641 -3.12886719 12.23058594 -3.5625 13.1875 C-3.98724609 14.12787109 -4.41199219 15.06824219 -4.84960938 16.03710938 C-5.89843332 18.3586635 -6.94904627 20.67940924 -8 23 C-2.06 23 3.88 23 10 23 C9.67 21.68 9.34 20.36 9 19 C10.5 20.3125 10.5 20.3125 12 22 C12 22.99 12 23.98 12 25 C4.41 25 -3.18 25 -11 25 C-9.78016639 21.34049917 -8.63656002 17.99231971 -7.08984375 14.51171875 C-6.73986328 13.72345703 -6.38988281 12.93519531 -6.02929688 12.12304688 C-5.66900391 11.31931641 -5.30871094 10.51558594 -4.9375 9.6875 C-4.57333984 8.86443359 -4.20917969 8.04136719 -3.83398438 7.19335938 C-1.12948754 1.12948754 -1.12948754 1.12948754 0 0 Z " fill="#2F0708" transform="translate(174,38)"/>
<path d="M0 0 C2.15998824 2.71929032 3.74824649 5.33666055 5.16064453 8.50561523 C5.75608566 9.83235512 5.75608566 9.83235512 6.36355591 11.18589783 C6.78241058 12.13388748 7.20126526 13.08187714 7.6328125 14.05859375 C8.07011688 15.03989761 8.50742126 16.02120148 8.95797729 17.03224182 C9.87993186 19.10477073 10.79931704 21.17844426 11.71630859 23.25317383 C13.11968055 26.42547545 14.5338604 29.59279678 15.94921875 32.75976562 C16.84440462 34.77575111 17.73895722 36.79201795 18.6328125 38.80859375 C19.05571564 39.75455917 19.47861877 40.7005246 19.91433716 41.67515564 C20.30499359 42.56280106 20.69565002 43.45044647 21.09814453 44.36499023 C21.44217316 45.14124252 21.78620178 45.91749481 22.14065552 46.7172699 C23.04830739 49.12832192 23.56285125 51.46484176 24 54 C20.3625394 51.57502627 20.1037588 50.18396851 18.6875 46.125 C16.59922891 40.41537662 14.11495901 35.10116067 11.33984375 29.69921875 C9.94620901 26.8916339 8.82277771 24.09162017 7.78125 21.140625 C5.76783459 15.62386677 3.60168979 10.01877804 0.84765625 4.828125 C0 3 0 3 0 0 Z " fill="#2B0607" transform="translate(311,33)"/>
<path d="M0 0 C4.61430601 2.3421857 7.32398814 5.52722704 8.92578125 10.3515625 C10.0439543 16.86463231 8.58395965 20.97861298 4.92578125 26.3515625 C3.93578125 26.3515625 2.94578125 26.3515625 1.92578125 26.3515625 C2.58578125 25.5884375 3.24578125 24.8253125 3.92578125 24.0390625 C6.92333651 19.51586979 6.82488688 14.56792536 5.92578125 9.3515625 C4.2516508 5.88666137 1.88569428 3.90730162 -1.44921875 1.9765625 C-6.40325277 0.79703059 -9.75845766 0.60338463 -14.26171875 3.1640625 C-15.18984375 3.8859375 -16.11796875 4.6078125 -17.07421875 5.3515625 C-18.24984375 6.2178125 -18.24984375 6.2178125 -19.44921875 7.1015625 C-20.25359375 7.7203125 -20.25359375 7.7203125 -21.07421875 8.3515625 C-17.59432642 -0.50634526 -8.47624482 -2.64982418 0 0 Z " fill="#292929" transform="translate(461.07421875,112.6484375)"/>
<path d="M0 0 C-0.71663595 7.36087502 -3.22180081 14.04303057 -5.6484375 20.99414062 C-7.97063884 27.87612709 -7.97063884 27.87612709 -7 35 C-8.32 35 -9.64 35 -11 35 C-10.49151751 27.32433573 -8.46450924 20.6781016 -5.9375 13.4375 C-5.37192383 11.78137695 -5.37192383 11.78137695 -4.79492188 10.09179688 C-3.87147527 7.39159225 -2.93970282 4.69458108 -2 2 C-3.32 1.67 -4.64 1.34 -6 1 C-4 0 -4 0 0 0 Z " fill="#E3E1E8" transform="translate(27,108)"/>
<path d="M0 0 C-1 3 -1 3 -3.3125 4.1875 C-6 5 -6 5 -10 5 C-10.33 6.65 -10.66 8.3 -11 10 C-12.65 9.67 -14.3 9.34 -16 9 C-16 8.34 -16 7.68 -16 7 C-16.66 7 -17.32 7 -18 7 C-18.33 7.66 -18.66 8.32 -19 9 C-19 7.35 -19 5.7 -19 4 C-16.525 4.99 -16.525 4.99 -14 6 C-14 5.01 -14 4.02 -14 3 C-12.4188708 2.49307308 -10.83498617 1.99473557 -9.25 1.5 C-8.36828125 1.2215625 -7.4865625 0.943125 -6.578125 0.65625 C-4 0 -4 0 0 0 Z " fill="#C4C0C4" transform="translate(48,105)"/>
<path d="M0 0 C0.66 0.33 1.32 0.66 2 1 C1.01 2.485 1.01 2.485 0 4 C-0.42660463 7.91054241 -0.58646281 10.12030578 1.625 13.4375 C4.66541695 15.43777431 6.4227467 15.45667063 10 15 C10.99 14.34 11.98 13.68 13 13 C15.0625 13.125 15.0625 13.125 17 14 C18.25 16.0625 18.25 16.0625 19 18 C18.34 18.33 17.68 18.66 17 19 C16.67 18.01 16.34 17.02 16 16 C15.16275391 16.23589844 15.16275391 16.23589844 14.30859375 16.4765625 C10.18925293 17.41055856 6.18591444 17.58156485 2 17 C-1.125 15 -1.125 15 -3 12 C-3.78601634 8.10844851 -3.5832877 4.97214616 -1.5 1.5 C-1.005 1.005 -0.51 0.51 0 0 Z " fill="#232323" transform="translate(528,120)"/>
<path d="M0 0 C0.66 0 1.32 0 2 0 C0.30063835 4.84846121 -2.30070341 9.05805863 -4.9375 13.4375 C-7.80597584 18.21829307 -10.58373258 22.96810316 -13 28 C-13.66 27.67 -14.32 27.34 -15 27 C-12.9593916 21.66589226 -10.25708602 16.80303942 -7.5 11.8125 C-7.00113281 10.89791016 -6.50226562 9.98332031 -5.98828125 9.04101562 C-5.26705078 7.73100586 -5.26705078 7.73100586 -4.53125 6.39453125 C-4.09361328 5.59893799 -3.65597656 4.80334473 -3.20507812 3.98364258 C-2 2 -2 2 0 0 Z " fill="#E79589" transform="translate(70,19)"/>
<path d="M0 0 C0.33 0 0.66 0 1 0 C0.55343089 4.64431877 0.05380103 7.4575908 -3 11 C-3.33 11.721875 -3.66 12.44375 -4 13.1875 C-5 15 -5 15 -8 16 C-8 15.01 -8 14.02 -8 13 C-8.99 12.67 -9.98 12.34 -11 12 C-9.35 10.35 -7.7 8.7 -6 7 C-6.66 6.67 -7.32 6.34 -8 6 C-6.35 5.34 -4.7 4.68 -3 4 C-3 4.66 -3 5.32 -3 6 C-2.34 6 -1.68 6 -1 6 C-1.020625 5.195625 -1.04125 4.39125 -1.0625 3.5625 C-1 1 -1 1 0 0 Z " fill="#A48F9E" transform="translate(57,88)"/>
<path d="M0 0 C0.66 0 1.32 0 2 0 C1.48914188 6.43681228 0.27057103 11.95942424 -2 18 C-2.66 18 -3.32 18 -4 18 C-4.33 19.98 -4.66 21.96 -5 24 C-5.66 24 -6.32 24 -7 24 C-5.08927776 15.83600499 -2.76477561 7.9153982 0 0 Z " fill="#D2D0D5" transform="translate(27,115)"/>
<path d="M0 0 C0.99 0.33 1.98 0.66 3 1 C2.01 2.485 2.01 2.485 1 4 C0.61500109 5.65549531 0.27206865 7.3222433 0 9 C-0.99 8.67 -1.98 8.34 -3 8 C-3.7425 8.474375 -4.485 8.94875 -5.25 9.4375 C-8.68204569 11.38752596 -11.11544265 11.22850337 -15 11 C-11.7988804 8.46578031 -8.39867811 6.37502413 -4.90234375 4.28125 C-3.02080038 3.01400929 -1.54400767 1.6546375 0 0 Z " fill="#EFDBE3" transform="translate(56,85)"/>
<path d="M0 0 C2.0625 0.4375 2.0625 0.4375 4 1 C3.01 1.66 2.02 2.32 1 3 C1.639375 3.309375 2.27875 3.61875 2.9375 3.9375 C5 5 5 5 6 6 C6.66 5.01 7.32 4.02 8 3 C8 4.65 8 6.3 8 8 C7.34 8 6.68 8 6 8 C5.67 8.66 5.34 9.32 5 10 C4.67 9.01 4.34 8.02 4 7 C3.34 7 2.68 7 2 7 C2.33 8.98 2.66 10.96 3 13 C2.01 13.33 1.02 13.66 0 14 C-0.66 14.99 -1.32 15.98 -2 17 C-1.67 15.35 -1.34 13.7 -1 12 C-0.01 12 0.98 12 2 12 C1.505 11.113125 1.01 10.22625 0.5 9.3125 C-0.94517417 6.12107371 -1.39131685 4.42402241 -1 1 C-0.67 0.67 -0.34 0.34 0 0 Z " fill="#6A676A" transform="translate(21,87)"/>
<path d="M0 0 C4.29 0 8.58 0 13 0 C16.22265625 5.17578125 16.22265625 5.17578125 17 7 C16.67 7.99 16.34 8.98 16 10 C14.02 6.535 14.02 6.535 12 3 C10.56260487 2.97287934 9.12506137 2.95354933 7.6875 2.9375 C6.88699219 2.92589844 6.08648437 2.91429687 5.26171875 2.90234375 C2.83138666 2.90342145 2.83138666 2.90342145 0 4 C-1.21869929 6.50447516 -1.21869929 6.50447516 -2 9 C-2.33 8.34 -2.66 7.68 -3 7 C-2.06421005 4.64018187 -1.06652192 2.30368736 0 0 Z " fill="#510C0F" transform="translate(294,23)"/>
<path d="M0 0 C0.66 0 1.32 0 2 0 C4.29013653 3.4352048 4.17842973 4.985331 4 9 C3.01 9.33 2.02 9.66 1 10 C1.33 10.66 1.66 11.32 2 12 C0.35 12.66 -1.3 13.32 -3 14 C-3 11.69 -3 9.38 -3 7 C-1.68 6.67 -0.36 6.34 1 6 C0.67 4.02 0.34 2.04 0 0 Z " fill="#E3DCE3" transform="translate(23,94)"/>
<path d="M0 0 C3.87596015 1.47019178 5.21211357 3.30232579 7 7 C7.29296875 10.33203125 7.29296875 10.33203125 7.1875 13.8125 C7.16042969 14.97394531 7.13335937 16.13539062 7.10546875 17.33203125 C7.07066406 18.21246094 7.03585938 19.09289062 7 20 C6.34 20 5.68 20 5 20 C4.98582031 19.21496094 4.97164063 18.42992188 4.95703125 17.62109375 C4.63079749 10.4351338 3.79781837 6.41292329 -1 1 C-0.67 0.67 -0.34 0.34 0 0 Z " fill="#C8C6C3" transform="translate(83,0)"/>
<path d="M0 0 C1.23556641 0.01740234 1.23556641 0.01740234 2.49609375 0.03515625 C3.32238281 0.04417969 4.14867188 0.05320313 5 0.0625 C5.63808594 0.07410156 6.27617188 0.08570313 6.93359375 0.09765625 C6.93359375 0.42765625 6.93359375 0.75765625 6.93359375 1.09765625 C5.96421875 1.24203125 4.99484375 1.38640625 3.99609375 1.53515625 C-1.68568687 3.10054479 -5.21706166 7.8955204 -9.06640625 12.09765625 C-9.72640625 12.75765625 -10.38640625 13.41765625 -11.06640625 14.09765625 C-10.54570362 9.96096309 -9.39332685 7.88312017 -6.56640625 4.84765625 C-5.93734375 4.161875 -5.30828125 3.47609375 -4.66015625 2.76953125 C-2.1153397 0.0999688 -2.1153397 0.0999688 0 0 Z " fill="#E8E0D6" transform="translate(76.06640625,-0.09765625)"/>
<path d="M0 0 C0.66 0.66 1.32 1.32 2 2 C1.73445313 2.51949219 1.46890625 3.03898437 1.1953125 3.57421875 C-0.70797037 7.33216047 -2.51937172 11.05165791 -4 15 C-4.25910156 15.68707031 -4.51820312 16.37414062 -4.78515625 17.08203125 C-5.52736946 19.05321146 -6.26410137 21.02645368 -7 23 C-8.14453125 21.34375 -8.14453125 21.34375 -9 19 C-8.13671875 16.34375 -8.13671875 16.34375 -6.6875 13.5 C-5.10112218 10.33593684 -3.6979042 7.48131038 -3 4 C-2.34 4 -1.68 4 -1 4 C-0.67 2.68 -0.34 1.36 0 0 Z " fill="#F0DBDF" transform="translate(41,47)"/>
<path d="M0 0 C0.66 0 1.32 0 2 0 C1.80664062 0.556875 1.61328125 1.11375 1.4140625 1.6875 C-0.31374425 6.75117127 -1.7693067 11.79322065 -3 17 C-3.66 17 -4.32 17 -5 17 C-6.19137152 13.08549359 -6.49501855 11.11096997 -4.80078125 7.30859375 C-3.30177168 4.75701087 -1.84192794 2.31756502 0 0 Z " fill="#DCD1CD" transform="translate(82,30)"/>
<path d="M0 0 C-0.58007812 0.20753906 -1.16015625 0.41507813 -1.7578125 0.62890625 C-7.14012029 2.7516316 -10.32296082 4.89394546 -13.7109375 9.609375 C-14.13632812 10.06828125 -14.56171875 10.5271875 -15 11 C-15.99 11 -16.98 11 -18 11 C-16.59844241 7.66227007 -15.0490314 5.98250943 -12.125 3.875 C-11.44695312 3.37742187 -10.76890625 2.87984375 -10.0703125 2.3671875 C-4.20927152 -1.50331126 -4.20927152 -1.50331126 0 0 Z " fill="#410A0C" transform="translate(363,24)"/>
<path d="M0 0 C1.65 0.33 3.3 0.66 5 1 C4.39816251 3.02045442 3.72693904 5.02111039 3 7 C2.01 7.495 2.01 7.495 1 8 C-2 7 -2 7 -3.1875 4.9375 C-3.5896875 3.9784375 -3.5896875 3.9784375 -4 3 C-2.68 3 -1.36 3 0 3 C0 2.01 0 1.02 0 0 Z " fill="#924E92" transform="translate(27,100)"/>
<path d="M0 0 C1.46726798 3.81489674 0.43336419 6.29011622 -1 10 C-0.34 10 0.32 10 1 10 C1.33 8.02 1.66 6.04 2 4 C2.6875 5.625 2.6875 5.625 3 8 C1.5625 11.25 1.5625 11.25 0 14 C-1.546875 12.78515625 -1.546875 12.78515625 -3 11 C-2.890625 8.80859375 -2.890625 8.80859375 -2.25 6.4375 C-2.04890625 5.65246094 -1.8478125 4.86742187 -1.640625 4.05859375 C-1 2 -1 2 0 0 Z " fill="#818093" transform="translate(21,129)"/>
<path d="M0 0 C0.66 0 1.32 0 2 0 C1.33392561 4.40958108 -0.26624729 8.26572186 -2.0625 12.3125 C-2.34416016 12.95767578 -2.62582031 13.60285156 -2.91601562 14.26757812 C-3.6062743 15.84698358 -4.30253198 17.42376493 -5 19 C-6.4650113 14.49628572 -4.86369593 11.41994594 -3.0625 7.25 C-2.77181641 6.55261719 -2.48113281 5.85523437 -2.18164062 5.13671875 C-1.46448297 3.42024305 -0.73356598 1.70952768 0 0 Z " fill="#5D5D5D" transform="translate(308,114)"/>
<path d="M0 0 C-0.49730652 4.97306516 -1.55302334 8.63799813 -4 13 C-5.13643966 9.59068103 -4.86747764 8.99664544 -3.5625 5.8125 C-3.27503906 5.09707031 -2.98757812 4.38164063 -2.69140625 3.64453125 C-2.46324219 3.10183594 -2.23507813 2.55914062 -2 2 C-3.32 1.67 -4.64 1.34 -6 1 C-4 0 -4 0 0 0 Z " fill="#F2EDF3" transform="translate(27,108)"/>
<path d="M0 0 C0.99 0.33 1.98 0.66 3 1 C2.54917531 2.46067199 2.08906463 3.91848032 1.625 5.375 C1.36976562 6.18710938 1.11453125 6.99921875 0.8515625 7.8359375 C0 10 0 10 -2 12 C-2.144375 11.401875 -2.28875 10.80375 -2.4375 10.1875 C-2.8872439 8.43849596 -3.42892341 6.71322977 -4 5 C-2.0625 2.3125 -2.0625 2.3125 0 0 Z " fill="#B9ACAE" transform="translate(70,58)"/>
<path d="M0 0 C0.93065133 2.60582371 1.14917407 3.64198224 0.0625 6.25 C-0.4634375 7.11625 -0.4634375 7.11625 -1 8 C-1.433125 7.505 -1.86625 7.01 -2.3125 6.5 C-3.99740483 4.66781808 -3.99740483 4.66781808 -7 5 C-6.67 4.01 -6.34 3.02 -6 2 C-3.03 2.495 -3.03 2.495 0 3 C0 2.01 0 1.02 0 0 Z " fill="#E5D9E2" transform="translate(28,86)"/>
<path d="M0 0 C0.66 0 1.32 0 2 0 C0.6302836 3.99500618 -1.25722422 6.80009492 -4 10 C-4 5.26886581 -2.8394052 3.67452438 0 0 Z " fill="#EA9362" transform="translate(70,19)"/>
<path d="M0 0 C0.66 0 1.32 0 2 0 C3.5078125 1.8984375 3.5078125 1.8984375 5.125 4.375 C5.66382813 5.18710938 6.20265625 5.99921875 6.7578125 6.8359375 C8 9 8 9 8 11 C7.34 11 6.68 11 6 11 C4.4921875 9.35546875 4.4921875 9.35546875 2.875 7.1875 C2.06675781 6.12595703 2.06675781 6.12595703 1.2421875 5.04296875 C0 3 0 3 0 0 Z " fill="#2A2A2A" transform="translate(362,131)"/>
<path d="M0 0 C0.66 0 1.32 0 2 0 C5 3.46153846 5 3.46153846 5 6 C3.35 6 1.7 6 0 6 C-0.38218767 4.34385343 -0.71395102 2.67542976 -1 1 C-0.67 0.67 -0.34 0.34 0 0 Z " fill="#9A949A" transform="translate(18,105)"/>
<path d="M0 0 C0.66 0 1.32 0 2 0 C3.5078125 1.8984375 3.5078125 1.8984375 5.125 4.375 C5.66382813 5.18710938 6.20265625 5.99921875 6.7578125 6.8359375 C8 9 8 9 8 11 C7.34 11 6.68 11 6 11 C4.4921875 9.35546875 4.4921875 9.35546875 2.875 7.1875 C2.06675781 6.12595703 2.06675781 6.12595703 1.2421875 5.04296875 C0 3 0 3 0 0 Z " fill="#2D2D2D" transform="translate(279,131)"/>
<path d="M0 0 C0.66 0 1.32 0 2 0 C3.5078125 1.8984375 3.5078125 1.8984375 5.125 4.375 C5.66382813 5.18710938 6.20265625 5.99921875 6.7578125 6.8359375 C8 9 8 9 8 11 C7.34 11 6.68 11 6 11 C4.4921875 9.35546875 4.4921875 9.35546875 2.875 7.1875 C2.06675781 6.12595703 2.06675781 6.12595703 1.2421875 5.04296875 C0 3 0 3 0 0 Z " fill="#282828" transform="translate(429,131)"/>
<path d="M0 0 C0.66 0 1.32 0 2 0 C2.22036864 3.85645121 1.60355101 6.49223216 0 10 C-0.99 9.67 -1.98 9.34 -3 9 C-2.01 6.03 -1.02 3.06 0 0 Z " fill="#D8899E" transform="translate(44,68)"/>
<path d="M0 0 C0.99 0.33 1.98 0.66 3 1 C2.43454163 4.95820859 1.19097652 7.6659053 -1 11 C-2.27894091 8.44211818 -1.77183056 7.70140697 -1 5 C-0.65939189 3.33480481 -0.32441604 1.66842534 0 0 Z " fill="#AC9D94" transform="translate(84,25)"/>
<path d="M0 0 C0.66 0 1.32 0 2 0 C0.47291037 3.43595166 -1.59927045 6.11912454 -4 9 C-4 4.32409833 -3.11997802 3.30350614 0 0 Z " fill="#F5A440" transform="translate(76,11)"/>
<path d="M0 0 C0.94875 0.350625 1.8975 0.70125 2.875 1.0625 C5.87060172 2.35026777 5.87060172 2.35026777 8 1 C8 1.99 8 2.98 8 4 C5.69 3.67 3.38 3.34 1 3 C0.67 3.66 0.34 4.32 0 5 C0 3.35 0 1.7 0 0 Z " fill="#EBE5EC" transform="translate(29,109)"/>
<path d="M0 0 C0 1.65 0 3.3 0 5 C-0.99 5.33 -1.98 5.66 -3 6 C-3 5.01 -3 4.02 -3 3 C-3.99 2.67 -4.98 2.34 -6 2 C-3 0 -3 0 0 0 Z " fill="#E2D3DF" transform="translate(52,98)"/>
<path d="M0 0 C2.125 0.9375 2.125 0.9375 4 2 C0.3558226 4.4294516 -1.71241272 4.16179575 -6 4 C-4.03617993 2.49440461 -2.21736634 1.10868317 0 0 Z " fill="#DCB9CF" transform="translate(47,92)"/>
<path d="M0 0 C0 1.98 0 3.96 0 6 C-0.99 6.33 -1.98 6.66 -3 7 C-3 6.01 -3 5.02 -3 4 C-3.66 3.67 -4.32 3.34 -5 3 C-1.125 0 -1.125 0 0 0 Z " fill="#DFCFD1" transform="translate(74,53)"/>
<path d="M0 0 C0.33 0 0.66 0 1 0 C1 1.65 1 3.3 1 5 C0.34 5 -0.32 5 -1 5 C-1.33 5.66 -1.66 6.32 -2 7 C-5 3.25 -5 3.25 -5 1 C-3.02 1.99 -3.02 1.99 -1 3 C-0.67 2.01 -0.34 1.02 0 0 Z " fill="#AA689E" transform="translate(28,90)"/>
<path d="M0 0 C1.9375 0.1875 1.9375 0.1875 4 1 C5.25 3.0625 5.25 3.0625 6 5 C5.01 5.33 4.02 5.66 3 6 C2.34 5.34 1.68 4.68 1 4 C1.33 3.67 1.66 3.34 2 3 C1.01 2.34 0.02 1.68 -1 1 C-0.67 0.67 -0.34 0.34 0 0 Z " fill="#A689A2" transform="translate(45,100)"/>
</svg>
