<?xml version="1.0" encoding="UTF-8"?>
<svg version="1.1" xmlns="http://www.w3.org/2000/svg" width="300" height="300">
<path d="M0 0 C0.93035568 -0.00832352 1.86071136 -0.01664703 2.81925964 -0.02522278 C5.90046346 -0.04935563 8.98145579 -0.05809835 12.06274414 -0.06469727 C14.20121831 -0.07366014 16.33969183 -0.08278192 18.47816467 -0.09205627 C22.9629977 -0.1085571 27.44775597 -0.11624855 31.93261719 -0.11914062 C37.68430243 -0.12452962 43.43528708 -0.16222675 49.18677425 -0.20788479 C53.60395385 -0.23759877 58.02096346 -0.24486293 62.43823433 -0.24586678 C64.55897803 -0.2500793 66.67972177 -0.26255468 68.80036736 -0.28338432 C71.76457441 -0.31018477 74.72714068 -0.30550728 77.69140625 -0.29296875 C78.56998291 -0.30780304 79.44855957 -0.32263733 80.35375977 -0.33792114 C86.33193544 -0.26576491 86.33193544 -0.26576491 89.36647034 2.73570251 C89.87596725 3.58403152 90.38546417 4.43236053 90.91040039 5.30639648 C92.72802394 6.94299655 94.60703505 8.45140601 96.51977539 9.97436523 C96.97868164 10.41393555 97.43758789 10.85350586 97.91040039 11.30639648 C97.91040039 11.96639648 97.91040039 12.62639648 97.91040039 13.30639648 C98.49950195 13.54745117 99.08860352 13.78850586 99.69555664 14.03686523 C102.33575245 15.55020498 103.56276301 17.1658786 105.34790039 19.61889648 C107.95447562 23.18101438 110.7444803 26.22829023 113.91040039 29.30639648 C114.94019748 30.32215772 115.96878634 31.33914495 116.99633789 32.35717773 C117.530896 32.88657959 118.0654541 33.41598145 118.61621094 33.96142578 C123.31215264 38.62439904 127.88825994 43.30015153 132.17211914 48.34936523 C135.12034633 51.66860528 138.32743057 54.73050369 141.48461914 57.84936523 C144.25236321 60.65276462 146.83073363 63.57629411 149.39086914 66.56811523 C150.71109087 68.0783946 152.11696302 69.51295911 153.53540039 70.93139648 C160.91040039 78.30639648 160.91040039 78.30639648 160.91040039 82.30639648 C158.72290039 84.68139648 158.72290039 84.68139648 155.91040039 87.30639648 C152.92581888 90.13792253 150.33811823 92.99700107 147.91040039 96.30639648 C145.4772696 99.61867377 142.89559784 102.46681842 139.91040039 105.30639648 C138.65457211 106.50867132 137.40485674 107.71735454 136.16040039 108.93139648 C135.56743164 109.50116211 134.97446289 110.07092773 134.36352539 110.65795898 C132.67769849 112.35430764 132.67769849 112.35430764 131.91040039 115.30639648 C130.25396859 116.65242369 128.5857581 117.98400014 126.91040039 119.30639648 C125.42758241 120.99686223 123.99109791 122.72884003 122.59790039 124.49389648 C119.08358745 128.87947835 115.46506913 133.12010003 111.69946289 137.29077148 C110.08488113 139.10981993 108.55330571 140.96929567 107.03540039 142.86889648 C106.33415039 143.67327148 105.63290039 144.47764648 104.91040039 145.30639648 C104.25040039 145.30639648 103.59040039 145.30639648 102.91040039 145.30639648 C102.6384082 145.89549805 102.36641602 146.48459961 102.08618164 147.09155273 C100.93486289 149.26031596 99.71056364 150.90146064 98.09790039 152.74389648 C97.61708008 153.29948242 97.13625977 153.85506836 96.64086914 154.42749023 C94.46374561 156.79136477 92.19253749 159.04335677 89.91040039 161.30639648 C88.63905542 162.57671797 87.36826676 163.84759636 86.09790039 165.11889648 C82.03540039 169.18139648 77.97290039 173.24389648 73.91040039 177.30639648 C73.13792969 178.07959229 72.36545898 178.85278809 71.56958008 179.64941406 C69.13432325 182.08265865 66.69456562 184.51125779 64.25299072 186.93815613 C61.85099886 189.32673181 59.45169618 191.7180014 57.05249023 194.109375 C55.78481609 195.37197845 54.51625211 196.63368908 53.24682617 197.89453125 C51.40838539 199.72089261 49.57314942 201.55042092 47.73852539 203.38061523 C46.88390717 204.22749153 46.88390717 204.22749153 46.01202393 205.09147644 C43.10162528 207.92577227 43.10162528 207.92577227 40.91040039 211.30639648 C35.98195333 210.88395817 34.24774102 208.79987001 30.91040039 205.30639648 C30.02223633 204.41823242 29.13407227 203.53006836 28.21899414 202.61499023 C6.91040039 181.30639648 6.91040039 181.30639648 4.23852539 178.62670898 C2.54413375 176.93800323 0.8274492 175.27157645 -0.90209961 173.61889648 C-3.08959961 171.30639648 -3.08959961 171.30639648 -3.08959961 169.30639648 C-3.9268457 168.97575195 -3.9268457 168.97575195 -4.78100586 168.63842773 C-7.82484213 166.88217026 -9.71125452 164.63089113 -12.02709961 161.99389648 C-15.82722328 157.68865591 -19.6972972 153.53371252 -23.90209961 149.61889648 C-25.08959961 148.30639648 -25.08959961 148.30639648 -25.08959961 146.30639648 C-25.79084961 146.14139648 -26.49209961 145.97639648 -27.21459961 145.80639648 C-32.13101424 143.24131059 -35.35066044 138.52321399 -37.08959961 133.30639648 C-38.07959961 132.97639648 -39.06959961 132.64639648 -40.08959961 132.30639648 C-41.69506836 130.74780273 -41.69506836 130.74780273 -43.27709961 128.86889648 C-43.8069043 128.25143555 -44.33670898 127.63397461 -44.88256836 126.99780273 C-46.08959961 125.30639648 -46.08959961 125.30639648 -46.08959961 123.30639648 C-47.07959961 122.97639648 -48.06959961 122.64639648 -49.08959961 122.30639648 C-50.56225586 120.84545898 -50.56225586 120.84545898 -52.15209961 118.93139648 C-55.01820015 115.5463809 -57.95697213 112.25410854 -60.96459961 108.99389648 C-65.09633703 104.4683626 -68.99238839 99.80075288 -72.83959961 95.03295898 C-76.44648614 90.66211385 -80.25899005 86.48112699 -84.08959961 82.30639648 C-82.47842938 78.40810529 -79.82433861 75.63558947 -76.96459961 72.61889648 C-76.44687988 72.06508301 -75.92916016 71.51126953 -75.39575195 70.94067383 C-73.63243616 69.05742568 -71.86173944 67.18134255 -70.08959961 65.30639648 C-67.99943721 63.09224991 -65.9095387 60.87785794 -63.82055664 58.66259766 C-62.44856763 57.20901458 -61.0746384 55.75725958 -59.69848633 54.30761719 C-56.14713369 50.55341928 -52.69369798 46.74956824 -49.37207031 42.79003906 C-47.40075616 40.50949916 -45.22056949 38.43736637 -43.08959961 36.30639648 C-41.9167982 34.95753944 -40.75056551 33.60295375 -39.58959961 32.24389648 C-36.96236773 29.20332855 -34.22875661 26.81772209 -31.08959961 24.30639648 C-29.36799639 22.41524143 -27.71546493 20.47298379 -26.05834961 18.52514648 C-23.23530995 15.3436256 -20.17804972 12.42070105 -17.10522461 9.48217773 C-14.99409794 7.35435257 -14.99409794 7.35435257 -13.51147461 4.66186523 C-10.25386843 -0.73466369 -5.63154019 0.00425066 0 0 Z " fill="#0F1314" transform="translate(111.089599609375,60.693603515625)"/>
<path d="M0 0 C3.83247336 1.58492473 6.33086291 4.03116614 9.25 6.9375 C10.14203125 7.81277344 11.0340625 8.68804687 11.953125 9.58984375 C14 12 14 12 14 15 C12.35 15 10.7 15 9 15 C9 15.66 9 16.32 9 17 C9.66644531 16.94199219 10.33289063 16.88398437 11.01953125 16.82421875 C17.6893654 16.49772337 21.84568614 17.5946388 27.74609375 20.57421875 C31.76929211 22.33708478 35.81178698 23.42610868 40.0625 24.5 C40.87259521 24.70512207 41.68269043 24.91024414 42.51733398 25.12158203 C44.17910424 25.53959839 45.84130002 25.95592658 47.50390625 26.37060547 C68.131941 31.57200155 85.37969707 37.73336431 101 53 C101.86625 53.845625 102.7325 54.69125 103.625 55.5625 C104.800625 56.7690625 104.800625 56.7690625 106 58 C106.97453125 58.9590625 106.97453125 58.9590625 107.96875 59.9375 C108.6803125 60.63875 109.391875 61.34 110.125 62.0625 C110.78757813 62.71347656 111.45015625 63.36445313 112.1328125 64.03515625 C116.97145524 69.12686608 116.97145524 69.12686608 117.06640625 72.03125 C115.41176686 75.08596887 112.99703254 75.92711743 109.9375 77.5 C104.1457436 80.61561246 98.82016787 84.11228797 93.5625 88.0625 C92.91337646 88.54460937 92.26425293 89.02671875 91.59545898 89.5234375 C72.39902815 104.13428677 67.76635001 126.65847489 60.25 148.5625 C59.96382813 149.39582855 59.67765625 150.2291571 59.3828125 151.08773804 C58.54967552 153.51731285 57.71939488 155.94783855 56.890625 158.37890625 C56.62890503 159.14436264 56.36718506 159.90981903 56.09753418 160.69847107 C54.46508105 165.51069424 52.97888625 170.33715566 51.72949219 175.26538086 C51 177 51 177 48 179 C46.36020412 174.13074722 44.72467562 169.26008759 43.09277344 164.38818359 C42.53920397 162.73741763 41.98455015 161.08701481 41.42871094 159.43701172 C28.80107405 121.94159172 28.80107405 121.94159172 33.625 110.125 C42.84032456 92.75395266 58.81830899 83.75228226 77 78 C84.2383862 75.90119114 91.54961183 74.1576757 99 73 C74.92661711 72.23342565 51.00902217 73.29600887 32 90 C25.67272426 96.8246667 21.51801575 103.51557755 20.86328125 112.92578125 C21.17797783 120.00195866 23.9280832 126.69428576 26.75 133.125 C28 136 28 136 28 139 C23.63432549 137.54477516 22.70258735 134.18688369 20.6875 130.3125 C15.23113616 120.18114729 9.16754377 110.51734782 2.86621094 100.89355469 C0.93970545 97.90651348 -0.91805501 94.88320193 -2.7734375 91.8515625 C-9.38578371 80.17461781 -9.38578371 80.17461781 -20.0625 73 C-22.37021662 72.63501867 -24.68386657 72.30707216 -27 72 C-30.81676461 71.06895924 -34.59190861 69.99588153 -38.375 68.9375 C-39.31480713 68.69064453 -40.25461426 68.44378906 -41.22290039 68.18945312 C-46.37709458 66.8254185 -51.16226779 65.24561399 -56 63 C-54.42097537 58.9720689 -51.58050313 56.45714114 -48.4375 53.625 C-47.5856311 52.85095825 -47.5856311 52.85095825 -46.71655273 52.0612793 C-32.4904648 39.26410419 -18.0725766 26.34943749 0.2578125 19.97265625 C2.62834339 19.13182692 4.78476904 18.18180982 7 17 C-1.06510168 16.50844753 -8.21726112 17.95062675 -16 20 C-15.4548447 15.90655322 -13.29134623 13.73644931 -10.5625 10.75 C-9.75941406 9.85796875 -8.95632812 8.9659375 -8.12890625 8.046875 C-6 6 -6 6 -4 6 C-3.566875 5.071875 -3.566875 5.071875 -3.125 4.125 C-2 2 -2 2 0 0 Z " fill="#3EC23E" transform="translate(101,79)"/>
<path d="M0 0 C9.86530673 -0.58624894 19.7263194 -1.02674688 29.60565853 -1.2953043 C34.19732692 -1.4244156 38.7768864 -1.59834212 43.36157227 -1.88598633 C75.82275916 -3.86924658 75.82275916 -3.86924658 86.89892578 5.39501953 C92.46047713 10.39591306 97.25609544 16.07831046 101.75561523 22.03730774 C105.79234213 27.36597496 110.24887032 32.33510662 114.9296875 37.10546875 C115.579375 37.77900391 116.2290625 38.45253906 116.8984375 39.14648438 C118.23335871 40.52493562 119.57468957 41.89720421 120.921875 43.26367188 C121.56382812 43.93333984 122.20578125 44.60300781 122.8671875 45.29296875 C123.44581543 45.8861792 124.02444336 46.47938965 124.62060547 47.09057617 C126.33121536 49.45848413 126.8206494 51.08689441 127 54 C126.07543945 56.03295898 126.07543945 56.03295898 124.61328125 57.99609375 C123.8234082 59.08180664 123.8234082 59.08180664 123.01757812 60.18945312 C122.45490234 60.93130859 121.89222656 61.67316406 121.3125 62.4375 C120.22472201 63.91496833 119.13747241 65.39282585 118.05078125 66.87109375 C117.5295166 67.57089355 117.00825195 68.27069336 116.47119141 68.99169922 C114.55604915 71.60603048 112.76851991 74.2848271 111 77 C109.28125 76.890625 109.28125 76.890625 107 76 C105.3604396 73.94460906 103.93006172 71.9425292 102.5 69.75 C97.71873533 62.75107676 92.37596826 56.60720966 86.48046875 50.53173828 C85.05364579 49.05550358 83.65063603 47.55963561 82.25 46.05859375 C70.24018129 33.50763496 58.16843125 27.3509415 42 22 C11.11332163 11.69328609 11.11332163 11.69328609 0 2 C0 1.34 0 0.68 0 0 Z " fill="#31DD2D" transform="translate(111,71)"/>
<path d="M0 0 C0.93035568 -0.00832352 1.86071136 -0.01664703 2.81925964 -0.02522278 C5.90046346 -0.04935563 8.98145579 -0.05809835 12.06274414 -0.06469727 C14.20121831 -0.07366014 16.33969183 -0.08278192 18.47816467 -0.09205627 C22.9629977 -0.1085571 27.44775597 -0.11624855 31.93261719 -0.11914062 C37.68430243 -0.12452962 43.43528708 -0.16222675 49.18677425 -0.20788479 C53.60395385 -0.23759877 58.02096346 -0.24486293 62.43823433 -0.24586678 C64.55897803 -0.2500793 66.67972177 -0.26255468 68.80036736 -0.28338432 C71.76457441 -0.31018477 74.72714068 -0.30550728 77.69140625 -0.29296875 C78.56998291 -0.30780304 79.44855957 -0.32263733 80.35375977 -0.33792114 C86.33193544 -0.26576491 86.33193544 -0.26576491 89.36647034 2.73570251 C89.87596725 3.58403152 90.38546417 4.43236053 90.91040039 5.30639648 C92.72802394 6.94299655 94.60703505 8.45140601 96.51977539 9.97436523 C96.97868164 10.41393555 97.43758789 10.85350586 97.91040039 11.30639648 C97.91040039 11.96639648 97.91040039 12.62639648 97.91040039 13.30639648 C98.49950195 13.54745117 99.08860352 13.78850586 99.69555664 14.03686523 C102.33575245 15.55020498 103.56276301 17.1658786 105.34790039 19.61889648 C107.95447562 23.18101438 110.7444803 26.22829023 113.91040039 29.30639648 C114.94019748 30.32215772 115.96878634 31.33914495 116.99633789 32.35717773 C117.530896 32.88657959 118.0654541 33.41598145 118.61621094 33.96142578 C123.31215264 38.62439904 127.88825994 43.30015153 132.17211914 48.34936523 C135.12034633 51.66860528 138.32743057 54.73050369 141.48461914 57.84936523 C144.25236321 60.65276462 146.83073363 63.57629411 149.39086914 66.56811523 C150.71109087 68.0783946 152.11696302 69.51295911 153.53540039 70.93139648 C160.91040039 78.30639648 160.91040039 78.30639648 160.91040039 82.30639648 C158.72290039 84.68139648 158.72290039 84.68139648 155.91040039 87.30639648 C152.92581888 90.13792253 150.33811823 92.99700107 147.91040039 96.30639648 C145.4772696 99.61867377 142.89559784 102.46681842 139.91040039 105.30639648 C138.65457211 106.50867132 137.40485674 107.71735454 136.16040039 108.93139648 C135.56743164 109.50116211 134.97446289 110.07092773 134.36352539 110.65795898 C132.67769849 112.35430764 132.67769849 112.35430764 131.91040039 115.30639648 C130.25396859 116.65242369 128.5857581 117.98400014 126.91040039 119.30639648 C125.42758241 120.99686223 123.99109791 122.72884003 122.59790039 124.49389648 C119.08358745 128.87947835 115.46506913 133.12010003 111.69946289 137.29077148 C110.08488113 139.10981993 108.55330571 140.96929567 107.03540039 142.86889648 C106.33415039 143.67327148 105.63290039 144.47764648 104.91040039 145.30639648 C104.25040039 145.30639648 103.59040039 145.30639648 102.91040039 145.30639648 C102.6384082 145.89549805 102.36641602 146.48459961 102.08618164 147.09155273 C100.93486289 149.26031596 99.71056364 150.90146064 98.09790039 152.74389648 C97.61708008 153.29948242 97.13625977 153.85506836 96.64086914 154.42749023 C94.46374561 156.79136477 92.19253749 159.04335677 89.91040039 161.30639648 C88.63905542 162.57671797 87.36826676 163.84759636 86.09790039 165.11889648 C82.03540039 169.18139648 77.97290039 173.24389648 73.91040039 177.30639648 C73.13792969 178.07959229 72.36545898 178.85278809 71.56958008 179.64941406 C69.13432325 182.08265865 66.69456562 184.51125779 64.25299072 186.93815613 C61.85099886 189.32673181 59.45169618 191.7180014 57.05249023 194.109375 C55.78481609 195.37197845 54.51625211 196.63368908 53.24682617 197.89453125 C51.40838539 199.72089261 49.57314942 201.55042092 47.73852539 203.38061523 C46.88390717 204.22749153 46.88390717 204.22749153 46.01202393 205.09147644 C43.10162528 207.92577227 43.10162528 207.92577227 40.91040039 211.30639648 C35.98195333 210.88395817 34.24774102 208.79987001 30.91040039 205.30639648 C30.02223633 204.41823242 29.13407227 203.53006836 28.21899414 202.61499023 C6.91040039 181.30639648 6.91040039 181.30639648 4.23852539 178.62670898 C2.54413375 176.93800323 0.8274492 175.27157645 -0.90209961 173.61889648 C-3.08959961 171.30639648 -3.08959961 171.30639648 -3.08959961 169.30639648 C-3.9268457 168.97575195 -3.9268457 168.97575195 -4.78100586 168.63842773 C-7.82484213 166.88217026 -9.71125452 164.63089113 -12.02709961 161.99389648 C-15.82722328 157.68865591 -19.6972972 153.53371252 -23.90209961 149.61889648 C-25.08959961 148.30639648 -25.08959961 148.30639648 -25.08959961 146.30639648 C-25.79084961 146.14139648 -26.49209961 145.97639648 -27.21459961 145.80639648 C-32.13101424 143.24131059 -35.35066044 138.52321399 -37.08959961 133.30639648 C-38.07959961 132.97639648 -39.06959961 132.64639648 -40.08959961 132.30639648 C-41.69506836 130.74780273 -41.69506836 130.74780273 -43.27709961 128.86889648 C-43.8069043 128.25143555 -44.33670898 127.63397461 -44.88256836 126.99780273 C-46.08959961 125.30639648 -46.08959961 125.30639648 -46.08959961 123.30639648 C-47.07959961 122.97639648 -48.06959961 122.64639648 -49.08959961 122.30639648 C-50.56225586 120.84545898 -50.56225586 120.84545898 -52.15209961 118.93139648 C-55.01820015 115.5463809 -57.95697213 112.25410854 -60.96459961 108.99389648 C-65.09633703 104.4683626 -68.99238839 99.80075288 -72.83959961 95.03295898 C-76.44648614 90.66211385 -80.25899005 86.48112699 -84.08959961 82.30639648 C-82.80411719 79.51221551 -81.42823371 77.36039002 -79.33959961 75.10717773 C-78.81366211 74.53805664 -78.28772461 73.96893555 -77.74584961 73.38256836 C-77.19928711 72.80055664 -76.65272461 72.21854492 -76.08959961 71.61889648 C-75.54303711 71.0252832 -74.99647461 70.43166992 -74.43334961 69.82006836 C-70.35892264 65.441058 -70.35892264 65.441058 -68.08959961 64.30639648 C-68.68137492 67.84126766 -70.00566973 69.67904724 -72.40209961 72.30639648 C-73.02858398 72.99733398 -73.65506836 73.68827148 -74.30053711 74.40014648 C-76.1895116 76.41285292 -78.09814423 78.39459932 -80.08959961 80.30639648 C-78.84446588 84.87188683 -76.35357917 87.16715226 -73.04663086 90.32592773 C-71.05604512 92.34035283 -69.37317763 94.43369148 -67.65209961 96.68139648 C-63.11929072 102.47628157 -58.06717402 107.74898354 -52.98828125 113.06567383 C-49.10557974 117.13498433 -45.32540509 121.2654469 -41.64160156 125.51586914 C-39.69372466 127.763113 -37.70782206 129.97434174 -35.71459961 132.18139648 C-33.45237548 134.68777296 -31.19024719 137.19405845 -28.93725586 139.70874023 C-26.66168136 142.24767236 -24.37714818 144.77824814 -22.08959961 147.30639648 C-21.23108398 148.25901367 -20.37256836 149.21163086 -19.48803711 150.19311523 C-9.83830772 160.82001097 0.38378769 170.87824238 10.59790039 180.95874023 C12.78695635 183.18107576 14.90800346 185.45457375 17.00805664 187.76098633 C19.62099444 190.62912105 22.26502506 193.46820268 24.91040039 196.30639648 C25.45809082 196.89630371 26.00578125 197.48621094 26.57006836 198.09399414 C28.16928609 199.8040253 29.78646594 201.49485738 31.41040039 203.18139648 C31.9022583 203.71128174 32.39411621 204.24116699 32.90087891 204.78710938 C34.43932116 206.42107362 34.43932116 206.42107362 36.91040039 208.30639648 C41.54172123 207.81333068 44.07693924 204.53521309 47.17993164 201.36499023 C48.07877327 200.46333885 48.07877327 200.46333885 48.99577332 199.54347229 C50.26421123 198.26831308 51.52904665 196.98956173 52.79052734 195.70751953 C54.69857057 193.76861977 56.61679076 191.84030954 58.53735352 189.91381836 C63.95665024 184.45946419 69.3003725 178.99881058 74.28808594 173.14257812 C78.35644733 168.53789099 82.85933079 164.32305217 87.23852539 160.01733398 C91.45440117 155.84447734 95.49839979 151.60113048 99.36450195 147.10180664 C101.44917528 144.68066204 103.61755893 142.34056661 105.78540039 139.99389648 C109.05569512 136.41378436 112.19066656 132.77723411 115.22290039 128.99389648 C119.43637487 123.76103302 123.95218593 118.8630524 128.56982422 113.98876953 C129.10373779 113.42327393 129.63765137 112.85777832 130.18774414 112.27514648 C130.6646167 111.7743457 131.14148926 111.27354492 131.6328125 110.75756836 C133.12874068 109.12347737 133.12874068 109.12347737 134.91040039 106.30639648 C135.57040039 106.30639648 136.23040039 106.30639648 136.91040039 106.30639648 C137.1437207 105.75467773 137.37704102 105.20295898 137.61743164 104.63452148 C139.25059323 101.69384382 141.30379246 99.51562397 143.59790039 97.05639648 C144.48864258 96.09088867 145.37938477 95.12538086 146.29711914 94.13061523 C147.15950195 93.19862305 148.02188477 92.26663086 148.91040039 91.30639648 C150.25106095 89.83386768 151.58547658 88.35560046 152.91040039 86.86889648 C153.44665039 86.27206055 153.98290039 85.67522461 154.53540039 85.06030273 C155.96844321 83.23235891 156.94681051 81.41424935 157.91040039 79.30639648 C157.12536133 78.53295898 156.34032227 77.75952148 155.53149414 76.96264648 C142.06284238 63.63545415 142.06284238 63.63545415 138.91040039 59.30639648 C138.91040039 58.64639648 138.91040039 57.98639648 138.91040039 57.30639648 C138.3187207 57.04084961 137.72704102 56.77530273 137.11743164 56.50170898 C131.29877258 53.35036443 127.05514024 47.35791048 122.79321289 42.40795898 C120.09635936 39.39777808 117.21660429 36.5885346 114.31665039 33.77514648 C112.34874006 31.7561216 110.49457991 29.70783578 108.64868164 27.57983398 C104.74828051 23.08477638 100.68841837 18.7531671 96.59790039 14.43139648 C95.88311523 13.67342773 95.16833008 12.91545898 94.43188477 12.13452148 C89.69646504 6.37266939 89.69646504 6.37266939 83.16184998 3.99859619 C81.50718619 3.96213824 79.85224934 3.93709511 78.19726562 3.9206543 C77.29459457 3.90429932 76.39192352 3.88794434 75.4618988 3.87109375 C72.46429101 3.82133486 69.46687349 3.78833477 66.46899414 3.75952148 C65.44500078 3.74887413 64.42100742 3.73822678 63.36598396 3.72725677 C57.9416109 3.67376073 52.51733022 3.63502933 47.09277344 3.60620117 C41.49882444 3.57296959 35.9072473 3.48348613 30.31419277 3.38145828 C26.00661147 3.31399746 21.69958774 3.29103408 17.39152718 3.27974701 C15.33058699 3.26634407 13.2696821 3.23595517 11.20925713 3.18796539 C-0.0672393 2.58922946 -0.0672393 2.58922946 -10.26803589 6.4564209 C-12.53760264 8.96238824 -14.29044455 11.45339594 -16.08959961 14.30639648 C-17.40927551 15.73488295 -18.75917902 17.1367339 -20.15209961 18.49389648 C-20.80823242 19.14358398 -21.46436523 19.79327148 -22.14038086 20.46264648 C-23.98966899 22.21187293 -25.89210585 23.85559246 -27.83959961 25.49389648 C-33.13452633 30.05742282 -37.71683487 35.29872773 -42.40844727 40.46362305 C-45.38321502 43.72437632 -48.39237173 46.95294073 -51.40209961 50.18139648 C-51.96429199 50.78725586 -52.52648437 51.39311523 -53.10571289 52.01733398 C-57.00967181 56.20728459 -61.01611902 60.28125443 -65.08959961 64.30639648 C-65.74959961 63.64639648 -66.40959961 62.98639648 -67.08959961 62.30639648 C-66.30456055 61.46077148 -65.51952148 60.61514648 -64.71069336 59.74389648 C-59.57510294 54.20181006 -54.47320563 48.64767573 -49.53100586 42.93139648 C-47.48382174 40.62345991 -45.2706879 38.48748477 -43.08959961 36.30639648 C-41.91699997 34.95736403 -40.75077637 33.6027736 -39.58959961 32.24389648 C-36.96236773 29.20332855 -34.22875661 26.81772209 -31.08959961 24.30639648 C-29.36799639 22.41524143 -27.71546493 20.47298379 -26.05834961 18.52514648 C-23.23530995 15.3436256 -20.17804972 12.42070105 -17.10522461 9.48217773 C-14.99409794 7.35435257 -14.99409794 7.35435257 -13.51147461 4.66186523 C-10.25386843 -0.73466369 -5.63154019 0.00425066 0 0 Z " fill="#9FBFC2" transform="translate(111.089599609375,60.693603515625)"/>
<path d="M0 0 C-1.30943104 2.89509184 -2.70266501 4.94592537 -4.96166992 7.17285156 C-5.85851753 8.06463104 -5.85851753 8.06463104 -6.77348328 8.97442627 C-7.74219109 9.92294464 -7.74219109 9.92294464 -8.73046875 10.890625 C-9.73343742 11.88579132 -9.73343742 11.88579132 -10.75666809 12.90106201 C-12.89558082 15.02218406 -15.0410362 17.13652168 -17.1875 19.25 C-19.31528759 21.34999707 -21.44153829 23.45149132 -23.56477356 25.55609131 C-24.88427409 26.86352544 -26.20643605 28.16828143 -27.53178406 29.4697876 C-31.34356752 33.24100387 -34.92575512 37.14383615 -38.4289093 41.20281982 C-40.32599984 43.37291319 -42.3194801 45.4174201 -44.375 47.4375 C-45.13296875 48.18773437 -45.8909375 48.93796875 -46.671875 49.7109375 C-48.22395833 51.23697917 -49.77604167 52.76302083 -51.328125 54.2890625 C-54.8001469 57.7256556 -58.20057222 61.16324259 -61.37890625 64.875 C-65.94792728 70.19167902 -70.96133593 75.06863578 -75.9375 80 C-76.9175531 80.97502386 -77.8973724 81.9502828 -78.87695312 82.92578125 C-81.24902313 85.28616618 -83.6234086 87.64416905 -86 90 C-86.66 89.67 -87.32 89.34 -88 89 C-78.91238478 73.64654948 -69.75380309 58.31742338 -59.2421875 43.8828125 C-57.82864081 41.91672341 -57.82864081 41.91672341 -57 39 C-56.34 39 -55.68 39 -55 39 C-54.74637695 38.29568848 -54.49275391 37.59137695 -54.23144531 36.86572266 C-52.10039106 31.90650084 -48.92893573 27.56369919 -45.91552734 23.10644531 C-44.75444636 21.38160528 -43.61359876 19.64445454 -42.47265625 17.90625 C-41.72777524 16.79866261 -40.98171942 15.6918642 -40.234375 14.5859375 C-39.56631836 13.5861084 -38.89826172 12.5862793 -38.20996094 11.55615234 C-34.86058944 7.68210025 -30.77101929 6.0709625 -25.94140625 4.6484375 C-25.22533203 4.43703125 -24.50925781 4.225625 -23.77148438 4.0078125 C-23.04251953 3.79898438 -22.31355469 3.59015625 -21.5625 3.375 C-20.83740234 3.1584375 -20.11230469 2.941875 -19.36523438 2.71875 C-12.9265985 0.84443012 -6.73263664 -0.16421065 0 0 Z " fill="#267625" transform="translate(258,147)"/>
<path d="M0 0 C7.56170303 1.52518426 14.80724405 3.69407311 22.125 6.125 C23.83623047 6.65480469 23.83623047 6.65480469 25.58203125 7.1953125 C33.23061349 9.75372328 37.4804427 12.34953001 42 19 C42.38319397 19.55399475 42.76638794 20.1079895 43.16119385 20.67877197 C46.5292688 25.56210345 49.77024977 30.52455266 53 35.5 C54.02513665 37.06982734 55.0505295 38.6394874 56.07617188 40.20898438 C63.66733952 51.84877476 71.1045652 63.57825849 78.38671875 75.4140625 C80.76948693 79.23341488 83.23196327 83.00106929 85.69726562 86.76757812 C87 89 87 89 87 91 C83.34924186 89.49867699 81.36723727 87.41104665 78.8125 84.4375 C75.76700486 80.96193494 72.67074641 77.61440886 69.375 74.375 C66.03972004 71.08580335 62.94484483 67.68284288 59.90625 64.12109375 C56.75377149 60.6133154 53.33777926 57.37139404 49.94140625 54.1015625 C48 52 48 52 48 50 C47.34 50 46.68 50 46 50 C46 49.34 46 48.68 46 48 C45.44570312 47.7834375 44.89140625 47.566875 44.3203125 47.34375 C41.25633921 45.56932776 39.17963804 43.13287437 36.875 40.5 C31.77319748 34.7986451 26.45217722 29.36844071 21 24 C16.88553232 19.94468601 12.98249996 15.73978987 9.10546875 11.4609375 C6.84465473 8.97722632 4.57381908 6.587869 2.15625 4.25 C0 2 0 2 0 0 Z " fill="#277626" transform="translate(43,147)"/>
<path d="M0 0 C4.29 0 8.58 0 13 0 C13.66 3.63 14.32 7.26 15 11 C15.66 7.37 16.32 3.74 17 0 C21.29 0 25.58 0 30 0 C30 1.98 30 3.96 30 6 C29.01 6 28.02 6 27 6 C27 15.24 27 24.48 27 34 C27.99 34 28.98 34 30 34 C30 36.31 30 38.62 30 41 C20.1 41 10.2 41 0 41 C0 38.69 0 36.38 0 34 C0.99 34 1.98 34 3 34 C3 24.76 3 15.52 3 6 C2.01 6 1.02 6 0 6 C0 4.02 0 2.04 0 0 Z M9 19 C9 23.95 9 28.9 9 34 C9.99 34.33 10.98 34.66 12 35 C11.34 29.72 10.68 24.44 10 19 C9.67 19 9.34 19 9 19 Z M19 20 C18.34 24.95 17.68 29.9 17 35 C17.99 34.67 18.98 34.34 20 34 C20 29.38 20 24.76 20 20 C19.67 20 19.34 20 19 20 Z " fill="#030303" transform="translate(133,15)"/>
<path d="M0 0 C0.33 0.99 0.66 1.98 1 3 C-0.43645851 4.60509934 -1.87420706 6.20904424 -3.3125 7.8125 C-4.11300781 8.70582031 -4.91351563 9.59914062 -5.73828125 10.51953125 C-7.45224581 12.39926786 -9.17877604 14.22592747 -11 16 C-9.75486627 20.56549035 -7.26397956 22.86075577 -3.95703125 26.01953125 C-1.96644551 28.03395634 -0.28357802 30.127295 1.4375 32.375 C5.97030889 38.16988509 11.02242559 43.44258706 16.10131836 48.75927734 C19.98401987 52.82858784 23.76419452 56.95905041 27.44799805 61.20947266 C29.39587495 63.45671652 31.38177755 65.66794526 33.375 67.875 C35.63722413 70.38137648 37.89935242 72.88766196 40.15234375 75.40234375 C42.42791825 77.94127587 44.71245143 80.47185166 47 83 C47.85851562 83.95261719 48.71703125 84.90523438 49.6015625 85.88671875 C59.25129189 96.51361449 69.4733873 106.57184589 79.6875 116.65234375 C81.87655596 118.87467927 83.99760307 121.14817727 86.09765625 123.45458984 C88.71059405 126.32272457 91.35462466 129.1618062 94 132 C94.54769043 132.58990723 95.09538086 133.17981445 95.65966797 133.78759766 C97.2588857 135.49762882 98.87606555 137.1884609 100.5 138.875 C100.99185791 139.40488525 101.48371582 139.93477051 101.99047852 140.48071289 C103.52892076 142.11467714 103.52892076 142.11467714 106 144 C110.63132084 143.5069342 113.16653885 140.2288166 116.26953125 137.05859375 C117.16837288 136.15694237 117.16837288 136.15694237 118.08537292 135.23707581 C119.35381084 133.9619166 120.61864626 132.68316525 121.88012695 131.40112305 C123.78817018 129.46222328 125.70639037 127.53391305 127.62695312 125.60742188 C133.04624985 120.1530677 138.38997211 114.6924141 143.37768555 108.83618164 C147.44604694 104.2314945 151.9489304 100.01665568 156.328125 95.7109375 C160.54400078 91.53808086 164.5879994 87.294734 168.45410156 82.79541016 C170.53877489 80.37426556 172.70715854 78.03417013 174.875 75.6875 C179.02694565 71.13923226 182.94917854 66.4511068 186.81640625 61.66015625 C190.09340113 57.6679675 193.53235604 53.82669157 197 50 C197.33 50.99 197.66 51.98 198 53 C196.15907265 55.43221858 194.30324895 57.63285554 192.25 59.875 C191.04980166 61.2165722 189.8506015 62.55903798 188.65234375 63.90234375 C188.04245605 64.58151855 187.43256836 65.26069336 186.80419922 65.96044922 C185.08375852 67.90531547 183.41023644 69.87932173 181.75390625 71.87890625 C181.00802246 72.77923584 181.00802246 72.77923584 180.24707031 73.69775391 C179.30392747 74.84153129 178.36435917 75.98826729 177.42871094 77.13818359 C176.32853522 78.46215931 175.16946388 79.7368086 174 81 C173.34 81 172.68 81 172 81 C171.72800781 81.58910156 171.45601562 82.17820312 171.17578125 82.78515625 C170.0244625 84.95391947 168.80016325 86.59506415 167.1875 88.4375 C166.70667969 88.99308594 166.22585937 89.54867187 165.73046875 90.12109375 C163.55334522 92.48496828 161.2821371 94.73696028 159 97 C157.72865502 98.27032149 156.45786637 99.54119988 155.1875 100.8125 C151.125 104.875 147.0625 108.9375 143 113 C142.2275293 113.7731958 141.45505859 114.5463916 140.65917969 115.34301758 C138.22392286 117.77626216 135.78416523 120.2048613 133.34259033 122.63175964 C130.94059847 125.02033533 128.54129579 127.41160492 126.14208984 129.80297852 C124.8744157 131.06558196 123.60585172 132.32729259 122.33642578 133.58813477 C120.497985 135.41449612 118.66274903 137.24402443 116.828125 139.07421875 C115.97350677 139.92109505 115.97350677 139.92109505 115.10162354 140.78507996 C112.19122489 143.61937579 112.19122489 143.61937579 110 147 C105.07155294 146.57756168 103.33734063 144.49347352 100 141 C99.11183594 140.11183594 98.22367187 139.22367188 97.30859375 138.30859375 C76 117 76 117 73.328125 114.3203125 C71.63373336 112.63160674 69.91704881 110.96517997 68.1875 109.3125 C66 107 66 107 66 105 C65.16275391 104.66935547 65.16275391 104.66935547 64.30859375 104.33203125 C61.26475748 102.57577378 59.37834509 100.32449464 57.0625 97.6875 C53.26237633 93.38225943 49.39230241 89.22731603 45.1875 85.3125 C44 84 44 84 44 82 C43.29875 81.835 42.5975 81.67 41.875 81.5 C36.95858537 78.93491411 33.73893917 74.21681751 32 69 C31.01 68.67 30.02 68.34 29 68 C27.39453125 66.44140625 27.39453125 66.44140625 25.8125 64.5625 C25.28269531 63.94503906 24.75289062 63.32757813 24.20703125 62.69140625 C23 61 23 61 23 59 C22.01 58.67 21.02 58.34 20 58 C18.52734375 56.5390625 18.52734375 56.5390625 16.9375 54.625 C14.07139946 51.23998442 11.13262748 47.94771206 8.125 44.6875 C3.99326258 40.16196612 0.09721122 35.4943564 -3.75 30.7265625 C-7.35688653 26.35571736 -11.16939044 22.17473051 -15 18 C-13.71042686 15.18947006 -12.32935483 13.05202908 -10.21484375 10.80078125 C-9.68439453 10.23166016 -9.15394531 9.66253906 -8.60742188 9.07617188 C-8.05634766 8.49416016 -7.50527344 7.91214844 -6.9375 7.3125 C-6.10508789 6.42208008 -6.10508789 6.42208008 -5.25585938 5.51367188 C-1.47614397 1.47614397 -1.47614397 1.47614397 0 0 Z " fill="#B6EAED" transform="translate(42,125)"/>
<path d="M0 0 C1.18613892 0.00785522 1.18613892 0.00785522 2.39624023 0.01586914 C3.67724609 0.02070313 3.67724609 0.02070313 4.98413086 0.02563477 C5.88196289 0.03401367 6.77979492 0.04239258 7.70483398 0.05102539 C8.6065332 0.05553711 9.50823242 0.06004883 10.43725586 0.06469727 C12.67230988 0.07652295 14.90733 0.09445901 17.14233398 0.11352539 C17.14233398 4.40352539 17.14233398 8.69352539 17.14233398 13.11352539 C15.16233398 13.11352539 13.18233398 13.11352539 11.14233398 13.11352539 C11.14233398 10.80352539 11.14233398 8.49352539 11.14233398 6.11352539 C9.82233398 6.11352539 8.50233398 6.11352539 7.14233398 6.11352539 C7.14233398 9.74352539 7.14233398 13.37352539 7.14233398 17.11352539 C8.46233398 17.11352539 9.78233398 17.11352539 11.14233398 17.11352539 C11.14233398 19.09352539 11.14233398 21.07352539 11.14233398 23.11352539 C9.82233398 23.11352539 8.50233398 23.11352539 7.14233398 23.11352539 C7.14233398 26.74352539 7.14233398 30.37352539 7.14233398 34.11352539 C8.46233398 34.11352539 9.78233398 34.11352539 11.14233398 34.11352539 C11.14233398 31.80352539 11.14233398 29.49352539 11.14233398 27.11352539 C13.12233398 27.11352539 15.10233398 27.11352539 17.14233398 27.11352539 C17.14233398 31.73352539 17.14233398 36.35352539 17.14233398 41.11352539 C13.99644455 41.14036236 10.85078127 41.16028441 7.70483398 41.17602539 C6.80700195 41.1844043 5.90916992 41.1927832 4.98413086 41.20141602 C3.703125 41.20625 3.703125 41.20625 2.39624023 41.21118164 C1.60548096 41.21641846 0.81472168 41.22165527 0 41.22705078 C-1.85766602 41.11352539 -1.85766602 41.11352539 -2.85766602 40.11352539 C-2.89830434 38.44735424 -2.90038702 36.77964444 -2.85766602 35.11352539 C-1.37266602 34.61852539 -1.37266602 34.61852539 0.14233398 34.11352539 C0.14233398 24.87352539 0.14233398 15.63352539 0.14233398 6.11352539 C-0.84766602 6.11352539 -1.83766602 6.11352539 -2.85766602 6.11352539 C-2.90038702 4.44740634 -2.89830434 2.77969654 -2.85766602 1.11352539 C-1.85766602 0.11352539 -1.85766602 0.11352539 0 0 Z " fill="#040404" transform="translate(99.857666015625,14.886474609375)"/>
<path d="M0 0 C0 4.62 0 9.24 0 14 C-1.98 14 -3.96 14 -6 14 C-6.66 11.69 -7.32 9.38 -8 7 C-8.33 7 -8.66 7 -9 7 C-9 15.91 -9 24.82 -9 34 C-8.34 34.33 -7.68 34.66 -7 35 C-6.67 32.36 -6.34 29.72 -6 27 C-6.99 26.67 -7.98 26.34 -9 26 C-9.042721 24.33388095 -9.04063832 22.66617115 -9 21 C-8 20 -8 20 -5.93359375 19.90234375 C-4.69802734 19.91974609 -4.69802734 19.91974609 -3.4375 19.9375 C-2.61121094 19.94652344 -1.78492187 19.95554687 -0.93359375 19.96484375 C0.02353516 19.98224609 0.02353516 19.98224609 1 20 C1.47045386 27.84089769 1.29795543 33.30024595 -3 40 C-6.09173752 41.54586876 -8.59429552 41.29359521 -12 41 C-15.12881389 38.9704991 -15.91378225 37.22416615 -17.25 33.75 C-19.21678214 24.3902243 -19.01701811 13.05105433 -16 4 C-11.61837265 -1.76102855 -6.73353703 -0.29276248 0 0 Z " fill="#0C0C0C" transform="translate(80,15)"/>
<path d="M0 0 C3.96 0 7.92 0 12 0 C12 1.98 12 3.96 12 6 C11.34 6 10.68 6 10 6 C10.66 8.97 11.32 11.94 12 15 C12.99 12.03 13.98 9.06 15 6 C14.34 6 13.68 6 13 6 C13 4.02 13 2.04 13 0 C16.63 0 20.26 0 24 0 C24 1.98 24 3.96 24 6 C23.01 6 22.02 6 21 6 C20.93631226 6.85440674 20.93631226 6.85440674 20.87133789 7.72607422 C20.24710431 14.97873032 18.91570368 22.00312232 17.4375 29.125 C17.20353516 30.27226563 16.96957031 31.41953125 16.72851562 32.6015625 C16.15676376 35.4019798 15.5805121 38.20138797 15 41 C13.02 41 11.04 41 9 41 C8.14202515 36.49829422 7.28762286 31.99593065 6.43652344 27.49291992 C6.14648955 25.96115819 5.85548047 24.42958076 5.56347656 22.89819336 C5.14391641 20.69692963 4.72786827 18.4950268 4.3125 16.29296875 C4.11563599 15.26625313 4.11563599 15.26625313 3.91479492 14.21879578 C3.39070509 11.4246386 3 8.85099696 3 6 C2.01 6 1.02 6 0 6 C0 4.02 0 2.04 0 0 Z " fill="#030303" transform="translate(178,15)"/>
<path d="M0 0 C0 4.62 0 9.24 0 14 C-1.98 14 -3.96 14 -6 14 C-6.66 11.69 -7.32 9.38 -8 7 C-10.06708977 10.10063465 -10.24973411 10.76411957 -10.23046875 14.2734375 C-10.22853516 15.0984375 -10.22660156 15.9234375 -10.22460938 16.7734375 C-10.21236328 17.63195312 -10.20011719 18.49046875 -10.1875 19.375 C-10.18685547 20.22578125 -10.18621094 21.0765625 -10.18554688 21.953125 C-10.1565539 26.08945584 -10.03708596 29.96780981 -9 34 C-8.01 33.505 -8.01 33.505 -7 33 C-6.53476937 31.10466658 -6.53476937 31.10466658 -6.375 28.9375 C-6.25125 27.638125 -6.1275 26.33875 -6 25 C-4.02 25.66 -2.04 26.32 0 27 C0.29557392 32.02475668 0.0282379 34.92352591 -3 39 C-5 41 -5 41 -8.3125 41.5 C-12 41 -12 41 -14.875 38.25 C-18.57538106 32.59059368 -18.2135373 27.34063346 -18.25 20.75 C-18.270625 19.83347656 -18.29125 18.91695312 -18.3125 17.97265625 C-18.34688889 11.94600255 -17.63928738 7.45123842 -15 2 C-10.25368713 -1.16420858 -5.63243123 -0.12112755 0 0 Z " fill="#0A0A0A" transform="translate(236,15)"/>
<path d="M0 0 C0.92702728 -0.00029205 1.85405457 -0.00058411 2.80917358 -0.00088501 C5.87719034 0.00050974 8.94496506 0.01607785 12.01293945 0.03173828 C14.13857389 0.03546789 16.26421004 0.03831511 18.3898468 0.04031372 C23.98764788 0.04795424 29.58534536 0.06760638 35.18310547 0.08972168 C40.89394733 0.11017105 46.60480591 0.1193135 52.31567383 0.12939453 C63.52340166 0.15085183 74.73105257 0.18499288 85.9387207 0.22705078 C85.9387207 0.55705078 85.9387207 0.88705078 85.9387207 1.22705078 C54.9187207 1.22705078 23.8987207 1.22705078 -8.0612793 1.22705078 C-8.7212793 2.87705078 -9.3812793 4.52705078 -10.0612793 6.22705078 C-11.46240234 7.95288086 -11.46240234 7.95288086 -13.07299805 9.49658203 C-13.66209961 10.07077881 -14.25120117 10.64497559 -14.8581543 11.23657227 C-15.48206055 11.83155518 -16.1059668 12.42653809 -16.7487793 13.03955078 C-18.03569857 14.2955594 -19.32087765 15.55335369 -20.60424805 16.81298828 C-21.21316895 17.40950195 -21.82208984 18.00601563 -22.44946289 18.62060547 C-24.8063167 20.96960548 -26.96116169 23.45710735 -29.11206055 25.99267578 C-32.50155641 29.87802976 -36.0574371 33.61021234 -39.58325195 37.37158203 C-43.04715674 41.0678835 -46.49443102 44.77792009 -49.91894531 48.51074219 C-54.84284839 53.87751926 -59.84136054 59.14530634 -65.0612793 64.22705078 C-65.7212793 63.56705078 -66.3812793 62.90705078 -67.0612793 62.22705078 C-65.8837207 60.95861328 -65.8837207 60.95861328 -64.68237305 59.66455078 C-59.54678263 54.12246435 -54.44488532 48.56833003 -49.50268555 42.85205078 C-47.45550142 40.54411421 -45.24236758 38.40813907 -43.0612793 36.22705078 C-41.88867966 34.87801833 -40.72245606 33.52342789 -39.5612793 32.16455078 C-36.93404741 29.12398285 -34.2004363 26.73837638 -31.0612793 24.22705078 C-29.33967607 22.33589572 -27.68714462 20.39363809 -26.0300293 18.44580078 C-23.20698964 15.2642799 -20.14972941 12.34135534 -17.0769043 9.40283203 C-14.96577762 7.27500687 -14.96577762 7.27500687 -13.4831543 4.58251953 C-10.21962929 -0.82381448 -5.63263258 -0.04615402 0 0 Z " fill="#B8E1E5" transform="translate(111.061279296875,60.77294921875)"/>
<path d="M0 0 C3.83247336 1.58492473 6.33086291 4.03116614 9.25 6.9375 C10.14203125 7.81277344 11.0340625 8.68804687 11.953125 9.58984375 C14 12 14 12 14 15 C12.35 15 10.7 15 9 15 C9 15.66 9 16.32 9 17 C12.63 17 16.26 17 20 17 C20 17.33 20 17.66 20 18 C18.02090602 18.02686553 16.04171029 18.04633375 14.0625 18.0625 C12.96035156 18.07410156 11.85820313 18.08570312 10.72265625 18.09765625 C8 18 8 18 7 17 C-0.94542441 16.11717507 -8.3637138 17.98919109 -16 20 C-15.4548447 15.90655322 -13.29134623 13.73644931 -10.5625 10.75 C-9.75941406 9.85796875 -8.95632812 8.9659375 -8.12890625 8.046875 C-6 6 -6 6 -4 6 C-3.566875 5.071875 -3.566875 5.071875 -3.125 4.125 C-2 2 -2 2 0 0 Z " fill="#267326" transform="translate(101,79)"/>
<path d="M0 0 C4.03721561 1.56583596 6.47070582 4.44173865 9.25 7.625 C9.70890625 8.140625 10.1678125 8.65625 10.640625 9.1875 C11.76592296 10.4534602 12.88372177 11.72607942 14 13 C13 15 13 15 10.82275391 15.77783203 C9.41388916 16.13917236 9.41388916 16.13917236 7.9765625 16.5078125 C6.955625 16.77207031 5.9346875 17.03632813 4.8828125 17.30859375 C3.80773437 17.57800781 2.73265625 17.84742188 1.625 18.125 C0.02398437 18.54072266 0.02398437 18.54072266 -1.609375 18.96484375 C-9.5695428 21 -9.5695428 21 -13 21 C-11.4397978 17.7096726 -9.59031121 14.68882578 -7.625 11.625 C-7.00753906 10.66207031 -6.39007813 9.69914063 -5.75390625 8.70703125 C-3.8616084 5.78640228 -1.94830721 2.88349467 0 0 Z " fill="#27A527" transform="translate(242,127)"/>
<path d="M0 0 C0.66 0 1.32 0 2 0 C0.69869438 2.77741348 -0.74382922 5.11423226 -2.65234375 7.51171875 C-3.17570312 8.17768066 -3.6990625 8.84364258 -4.23828125 9.52978516 C-4.79902344 10.24183105 -5.35976562 10.95387695 -5.9375 11.6875 C-17.92708101 27.18841018 -27.52517894 43.87357411 -37 61 C-37.66 61 -38.32 61 -39 61 C-33.68225478 42.38789173 -22.55016721 25.50142996 -10 11 C-9.24976563 10.11570313 -8.49953125 9.23140625 -7.7265625 8.3203125 C-3.68362403 3.63517442 -3.68362403 3.63517442 -2 2 C-1.34 2 -0.68 2 0 2 C0 1.34 0 0.68 0 0 Z " fill="#247822" transform="translate(209,159)"/>
<path d="M0 0 C0.495 1.485 0.495 1.485 1 3 C-0.84092735 5.43221858 -2.69675105 7.63285554 -4.75 9.875 C-5.95019834 11.2165722 -7.1493985 12.55903798 -8.34765625 13.90234375 C-9.26248779 14.92110596 -9.26248779 14.92110596 -10.19580078 15.96044922 C-11.91624148 17.90531547 -13.58976356 19.87932173 -15.24609375 21.87890625 C-15.74334961 22.47912598 -16.24060547 23.0793457 -16.75292969 23.69775391 C-17.69607253 24.84153129 -18.63564083 25.98826729 -19.57128906 27.13818359 C-20.67146478 28.46215931 -21.83053612 29.7368086 -23 31 C-23.66 31 -24.32 31 -25 31 C-25.27199219 31.58910156 -25.54398438 32.17820313 -25.82421875 32.78515625 C-26.9755375 34.95391947 -28.19983675 36.59506415 -29.8125 38.4375 C-30.53373047 39.27087891 -30.53373047 39.27087891 -31.26953125 40.12109375 C-33.44689883 42.48523327 -35.7160322 44.73820664 -38 47 C-40.75241921 49.726739 -43.50175468 52.45655478 -46.25 55.1875 C-47.34828125 56.27321289 -47.34828125 56.27321289 -48.46875 57.38085938 C-49.16484375 58.07373047 -49.8609375 58.76660156 -50.578125 59.48046875 C-51.21137695 60.10848389 -51.84462891 60.73649902 -52.49707031 61.38354492 C-54.08924975 62.94390328 -54.08924975 62.94390328 -55 65 C-55.99 65 -56.98 65 -58 65 C-56.44234073 61.24689118 -54.1220056 58.90582087 -51.23828125 56.078125 C-50.76939987 55.61444519 -50.30051849 55.15076538 -49.81742859 54.67303467 C-48.32048402 53.19382975 -46.81704251 51.72147299 -45.3125 50.25 C-38.96849711 44.0251479 -32.77292363 37.76506969 -27 31 C-25.38032183 29.22429779 -23.75588282 27.45291693 -22.125 25.6875 C-17.97305435 21.13923226 -14.05082146 16.4511068 -10.18359375 11.66015625 C-6.90659887 7.6679675 -3.46764396 3.82669157 0 0 Z " fill="#AEE0E1" transform="translate(239,175)"/>
<path d="M0 0 C12.13498094 -0.16231855 24.26970288 -0.2866348 36.40554905 -0.3626852 C42.04102026 -0.39918934 47.6757478 -0.44868922 53.31079102 -0.52807617 C58.7508517 -0.604235 64.19019794 -0.6460115 69.63075066 -0.6641407 C71.70443912 -0.67705698 73.77808925 -0.70228048 75.85147285 -0.7401104 C78.76064086 -0.79106994 81.66687221 -0.79791799 84.57641602 -0.79467773 C85.43021851 -0.81984467 86.284021 -0.8450116 87.16369629 -0.87094116 C92.12620188 -0.81129184 94.51786002 0.00218461 98.088974 3.54966736 C99.08230985 4.67997817 100.06126791 5.82394698 101 7 C100.34 7.66 99.68 8.32 99 9 C98.40282874 8.25745799 98.40282874 8.25745799 97.79359341 7.49991512 C94.71902438 4.0161132 92.42283164 1.58779893 87.6655426 1.12025452 C86.03079632 1.08263213 84.39489573 1.08256187 82.76000977 1.11352539 C81.86165909 1.10274963 80.96330841 1.09197388 80.03773499 1.08087158 C77.08811017 1.05360866 74.14103669 1.07530613 71.19140625 1.09765625 C69.13873209 1.08826767 67.08606988 1.07580772 65.03343201 1.06040955 C59.64589638 1.02821319 54.25921287 1.03761558 48.87164307 1.05578613 C43.36811026 1.06695216 37.86479468 1.03863271 32.36132812 1.01367188 C21.57406671 0.97054793 10.78729303 0.97138472 0 1 C0 0.67 0 0.34 0 0 Z " fill="#242427" transform="translate(104,64)"/>
<path d="M0 0 C0.92702728 -0.00029205 1.85405457 -0.00058411 2.80917358 -0.00088501 C5.87719034 0.00050974 8.94496506 0.01607785 12.01293945 0.03173828 C14.13857389 0.03546789 16.26421004 0.03831511 18.3898468 0.04031372 C23.98764788 0.04795424 29.58534536 0.06760638 35.18310547 0.08972168 C40.89394733 0.11017105 46.60480591 0.1193135 52.31567383 0.12939453 C63.52340166 0.15085183 74.73105257 0.18499288 85.9387207 0.22705078 C85.9387207 0.55705078 85.9387207 0.88705078 85.9387207 1.22705078 C54.9187207 1.22705078 23.8987207 1.22705078 -8.0612793 1.22705078 C-8.3912793 2.21705078 -8.7212793 3.20705078 -9.0612793 4.22705078 C-10.0512793 3.56705078 -11.0412793 2.90705078 -12.0612793 2.22705078 C-8.07661191 -0.42939414 -4.62349848 -0.03788513 0 0 Z " fill="#BDF7FE" transform="translate(111.061279296875,60.77294921875)"/>
<path d="M0 0 C0.33 0.99 0.66 1.98 1 3 C-0.43645851 4.60509934 -1.87420706 6.20904424 -3.3125 7.8125 C-4.11300781 8.70582031 -4.91351563 9.59914062 -5.73828125 10.51953125 C-7.45224581 12.39926786 -9.17877604 14.22592747 -11 16 C-9.95846922 19.81894619 -8.25816551 21.85851611 -5.4375 24.5 C-2.6018264 27.18859509 -1.12355545 28.92267023 -1 33 C-5.9240432 28.2347969 -10.44259642 23.11342667 -15 18 C-13.71042686 15.18947006 -12.32935483 13.05202908 -10.21484375 10.80078125 C-9.68439453 10.23166016 -9.15394531 9.66253906 -8.60742188 9.07617188 C-8.05634766 8.49416016 -7.50527344 7.91214844 -6.9375 7.3125 C-6.10508789 6.42208008 -6.10508789 6.42208008 -5.25585938 5.51367188 C-1.47614397 1.47614397 -1.47614397 1.47614397 0 0 Z " fill="#BBE9EF" transform="translate(42,125)"/>
<path d="M0 0 C4.17443363 3.50074982 8.3145494 6.97950843 12 11 C12 11.66 12 12.32 12 13 C12.58652344 13.23847656 13.17304688 13.47695312 13.77734375 13.72265625 C16.45673241 15.26248066 17.73949574 16.95380963 19.5625 19.4375 C21.5737079 22.15643807 23.53972839 24.67433291 26 27 C25.67 27.66 25.34 28.32 25 29 C12.86161731 17.04100228 12.86161731 17.04100228 7.53515625 10.74609375 C5.96060073 8.95518709 4.29162918 7.32836736 2.5625 5.6875 C0 3 0 3 0 0 Z " fill="#B8EBEC" transform="translate(197,61)"/>
<path d="M0 0 C0 3.52926446 -0.44282871 3.84022933 -2.78125 6.29296875 C-3.37260742 6.92001709 -3.96396484 7.54706543 -4.57324219 8.19311523 C-5.20907227 8.85126221 -5.84490234 9.50940918 -6.5 10.1875 C-7.1384082 10.85789307 -7.77681641 11.52828613 -8.43457031 12.21899414 C-10.28211187 14.15347607 -12.13999608 16.07750995 -14 18 C-14.87140625 18.91265625 -15.7428125 19.8253125 -16.640625 20.765625 C-20.49230403 24.73142785 -20.49230403 24.73142785 -22 26 C-22.66 26 -23.32 26 -24 26 C-24.66 27.32 -25.32 28.64 -26 30 C-26 27.37886292 -25.68707555 25.49064888 -25 23 C-24.40614502 22.89437744 -23.81229004 22.78875488 -23.20043945 22.67993164 C-20.67933119 21.90091394 -19.6296796 20.99075009 -17.79296875 19.12109375 C-17.20918457 18.53279785 -16.62540039 17.94450195 -16.02392578 17.33837891 C-15.41790527 16.71108887 -14.81188477 16.08379883 -14.1875 15.4375 C-13.56601074 14.80505371 -12.94452148 14.17260742 -12.30419922 13.52099609 C-8.04077805 9.1547611 -3.88813299 4.7066873 0 0 Z " fill="#5A5A5C" transform="translate(68,101)"/>
<path d="M0 0 C4.52016244 -0.2041769 9.03913311 -0.32793748 13.5625 -0.4375 C14.83931641 -0.49615234 16.11613281 -0.55480469 17.43164062 -0.61523438 C26.78244196 -0.78524894 26.78244196 -0.78524894 30.46435547 1.58935547 C32.18327685 3.30827685 33.64134644 4.988104 35 7 C34.34 7.66 33.68 8.32 33 9 C32.6505835 8.50556396 32.30116699 8.01112793 31.94116211 7.50170898 C29.24114157 4.2253767 27.2080847 2.26900672 22.98486328 1.32861328 C19.49588348 1.08850162 16.05945076 1.03006783 12.5625 1.0625 C10.74975586 1.03833008 10.74975586 1.03833008 8.90039062 1.01367188 C5.93243282 0.9784787 2.96795786 0.97484512 0 1 C0 0.67 0 0.34 0 0 Z " fill="#282C2F" transform="translate(170,64)"/>
<path d="M0 0 C-1.32120828 2.93230193 -2.74638197 4.98664899 -5.0390625 7.234375 C-5.90917969 8.09482422 -5.90917969 8.09482422 -6.796875 8.97265625 C-7.40015625 9.55917969 -8.0034375 10.14570313 -8.625 10.75 C-9.23601562 11.35199219 -9.84703125 11.95398438 -10.4765625 12.57421875 C-11.97988624 14.05405305 -13.48934856 15.52764676 -15 17 C-15.66 16.34 -16.32 15.68 -17 15 C-14.54976242 12.49195282 -12.08852402 9.9949924 -9.625 7.5 C-8.57699219 6.42685547 -8.57699219 6.42685547 -7.5078125 5.33203125 C-6.8375 4.65527344 -6.1671875 3.97851562 -5.4765625 3.28125 C-4.85861816 2.65283203 -4.24067383 2.02441406 -3.60400391 1.37695312 C-2 0 -2 0 0 0 Z " fill="#232C2F" transform="translate(167,252)"/>
<path d="M0 0 C6.24259233 5.23514227 11.85314729 10.67672382 17 17 C12.07289951 17 9.40819086 13.30549584 6 10 C0 3.79789474 0 3.79789474 0 0 Z " fill="#A8D9DA" transform="translate(110,231)"/>
<path d="M0 0 C3.2586636 1.4264578 5.4024854 3.16704162 7.890625 5.6953125 C8.95410156 6.76845703 8.95410156 6.76845703 10.0390625 7.86328125 C11.13347656 8.98283203 11.13347656 8.98283203 12.25 10.125 C12.99507812 10.87910156 13.74015625 11.63320312 14.5078125 12.41015625 C16.3431342 14.26900772 18.1736191 16.13237005 20 18 C19.67 18.99 19.34 19.98 19 21 C18.67 20.01 18.34 19.02 18 18 C17.4225 17.71898437 16.845 17.43796875 16.25 17.1484375 C13.117631 15.54962415 11.31445258 13.25698419 9 10.625 C5.43104669 6.58566855 5.43104669 6.58566855 1.6875 2.7109375 C0 1 0 1 0 0 Z " fill="#BAF0EF" transform="translate(90,212)"/>
<path d="M0 0 C0 3 0 3 -2.23046875 5.59375 C-3.20838396 6.57033472 -4.19444496 7.5388145 -5.1875 8.5 C-5.67025391 8.98597656 -6.15300781 9.47195312 -6.65039062 9.97265625 C-9.54761129 12.82709916 -12.42441961 15.06513383 -16 17 C-12.88767901 9.87024427 -5.95899289 4.76719431 0 0 Z " fill="#3F4143" transform="translate(91,78)"/>
<path d="M0 0 C0.66 0 1.32 0 2 0 C2.92357884 1.36826494 3.83870909 2.74297339 4.7109375 4.14453125 C6.74898712 7.07808752 9.24167495 9.59078185 11.70703125 12.16796875 C12.13371094 12.77253906 12.56039062 13.37710938 13 14 C12.67 14.99 12.34 15.98 12 17 C10.58298411 15.2711195 9.16640314 13.54188254 7.75 11.8125 C6.96109375 10.84957031 6.1721875 9.88664063 5.359375 8.89453125 C3.22415228 6.27499477 1.10643639 3.64270803 -1 1 C-0.67 0.67 -0.34 0.34 0 0 Z " fill="#B2E5EB" transform="translate(28,141)"/>
<path d="M0 0 C4.17443363 3.50074982 8.3145494 6.97950843 12 11 C12 11.66 12 12.32 12 13 C12.99 13.33 13.98 13.66 15 14 C14.01 14.33 13.02 14.66 12 15 C9.99068029 13.07141188 7.99272731 11.133102 6 9.1875 C5.42765625 8.64029297 4.8553125 8.09308594 4.265625 7.52929688 C2.78599462 6.07608846 1.38703342 4.54183626 0 3 C0 2.01 0 1.02 0 0 Z " fill="#B9EFF1" transform="translate(197,61)"/>
<path d="M0 0 C0.33 0.99 0.66 1.98 1 3 C-0.328125 5.04296875 -0.328125 5.04296875 -2.25 7.1875 C-3.18585938 8.26064453 -3.18585938 8.26064453 -4.140625 9.35546875 C-6 11 -6 11 -9 11 C-7.59155282 7.78475695 -5.89655214 5.67816132 -3.375 3.25 C-2.74335938 2.63640625 -2.11171875 2.0228125 -1.4609375 1.390625 C-0.73777344 0.70226562 -0.73777344 0.70226562 0 0 Z " fill="#A1CFD3" transform="translate(190,229)"/>
<path d="M0 0 C0 3 0 3 -2.375 5.6875 C-5 8 -5 8 -7 8 C-7.66 9.32 -8.32 10.64 -9 12 C-9 9.37886292 -8.68707555 7.49064888 -8 5 C-7.13375 4.87625 -7.13375 4.87625 -6.25 4.75 C-3.3840696 3.79468987 -2.0009236 2.21530827 0 0 Z " fill="#869194" transform="translate(51,119)"/>
<path d="M0 0 C0.66 0 1.32 0 2 0 C0.55746343 3.36591866 -1.33264727 5.51047079 -4 8 C-4.99 7.67 -5.98 7.34 -7 7 C-5.37660195 5.29115995 -3.70680947 3.62553283 -2 2 C-1.34 2 -0.68 2 0 2 C0 1.34 0 0.68 0 0 Z " fill="#286A28" transform="translate(209,159)"/>
<path d="M0 0 C0.33 0.99 0.66 1.98 1 3 C-0.98 4.98 -2.96 6.96 -5 9 C-5.99 8.67 -6.98 8.34 -8 8 C-5.36 5.36 -2.72 2.72 0 0 Z " fill="#BCEDF2" transform="translate(91,73)"/>
<path d="M0 0 C0.66 0 1.32 0 2 0 C1.44271087 3.34373475 0.64826111 6.03312999 -1 9 C-1.66 9 -2.32 9 -3 9 C-2.01 6.03 -1.02 3.06 0 0 Z " fill="#2B692D" transform="translate(173,211)"/>
<path d="M0 0 C0.99 0 1.98 0 3 0 C1.54744301 3.82946843 -0.42895561 5.12050295 -4 7 C-2.79618552 4.50638429 -1.54571278 2.31856917 0 0 Z " fill="#B2E5E8" transform="translate(217,200)"/>
<path d="M0 0 C2.31 1.98 4.62 3.96 7 6 C6.34 6.66 5.68 7.32 5 8 C3.02 5.69 1.04 3.38 -1 1 C-0.67 0.67 -0.34 0.34 0 0 Z " fill="#1F2327" transform="translate(212,80)"/>
<path d="M0 0 C1.98 0 3.96 0 6 0 C6 1.65 6 3.3 6 5 C3.5625 4.1875 3.5625 4.1875 1 3 C0.67 2.01 0.34 1.02 0 0 Z " fill="#2DCE27" transform="translate(111,71)"/>
<path d="M0 0 C0.33 0.99 0.66 1.98 1 3 C-0.9375 5.6875 -0.9375 5.6875 -3 8 C-3.99 7.67 -4.98 7.34 -6 7 C-4.02 4.69 -2.04 2.38 0 0 Z " fill="#A6D5D7" transform="translate(231,184)"/>
<path d="M0 0 C0.66 0.33 1.32 0.66 2 1 C-0.475 4.465 -0.475 4.465 -3 8 C-3.99 7.34 -4.98 6.68 -6 6 C-4.02 4.02 -2.04 2.04 0 0 Z " fill="#AADADF" transform="translate(267,144)"/>
<path d="M0 0 C1.2065625 0.0309375 1.2065625 0.0309375 2.4375 0.0625 C0.6875 3.9375 0.6875 3.9375 -1.5625 5.0625 C-1.5625 4.0725 -1.5625 3.0825 -1.5625 2.0625 C-2.2225 1.7325 -2.8825 1.4025 -3.5625 1.0625 C-2.5625 0.0625 -2.5625 0.0625 0 0 Z " fill="#151A1C" transform="translate(257.5625,150.9375)"/>
<path d="M0 0 C1.875 0.25 1.875 0.25 4 1 C5.25 3.0625 5.25 3.0625 6 5 C3 5 3 5 1.3125 3.625 C0 2 0 2 0 0 Z " fill="#B0E5E6" transform="translate(210,76)"/>
</svg>
