<?xml version="1.0" encoding="UTF-8"?>
<svg version="1.1" xmlns="http://www.w3.org/2000/svg" width="293" height="172">
<path d="M0 0 C96.69 0 193.38 0 293 0 C293 56.76 293 113.52 293 172 C196.31 172 99.62 172 0 172 C0 115.24 0 58.48 0 0 Z " fill="#FEFEFE" transform="translate(0,0)"/>
<path d="M0 0 C1.04091797 0.60779297 2.08183594 1.21558594 3.15429688 1.84179688 C4.01198921 2.33641922 4.01198921 2.33641922 4.88700867 2.84103394 C6.72235291 3.90320107 8.54772797 4.98125863 10.37304688 6.06054688 C11.63077614 6.79397267 12.88899761 7.52655505 14.14770508 8.25830078 C16.61329188 9.69472457 19.07455919 11.1381087 21.53173828 12.58886719 C24.35224877 14.25322805 27.17902989 15.90586622 30.00976562 17.55273438 C39.71869304 23.2518392 39.71869304 23.2518392 40.87304688 25.56054688 C41.00387329 27.223025 41.07378059 28.8904731 41.11352539 30.55761719 C41.13927139 31.59919983 41.1650174 32.64078247 41.19154358 33.71392822 C41.27569163 38.48445736 41.34156723 43.25483021 41.38793945 48.02587891 C41.41959087 50.54208537 41.46735595 53.05814245 41.53149414 55.57373047 C41.62271346 59.20011535 41.66154867 62.82381313 41.68945312 66.45117188 C41.72760635 67.57324036 41.76575958 68.69530884 41.80506897 69.85137939 C41.78614977 77.45377441 41.78614977 77.45377441 39.26702881 80.50720215 C37.2116828 82.09060812 35.16056767 83.34070391 32.87304688 84.56054688 C31.77750488 85.23859375 30.68196289 85.91664062 29.55322266 86.61523438 C28.48571777 87.2159375 27.41821289 87.81664063 26.31835938 88.43554688 C25.73190643 88.76796387 25.14545349 89.10038086 24.54122925 89.44287109 C22.69640062 90.48733471 20.84748789 91.52427664 18.99804688 92.56054688 C17.16243052 93.59505231 15.3277359 94.63115703 13.49383545 95.66870117 C12.30139407 96.34215022 11.10743836 97.0129255 9.91192627 97.6809082 C5.52810953 100.14168554 1.30854393 102.80380654 -2.85009766 105.62695312 C-6.00384832 106.92010587 -7.86665432 106.4454141 -11.12695312 105.56054688 C-13.7097168 104.33642578 -13.7097168 104.33642578 -16.29492188 102.78710938 C-17.74596313 101.92811035 -17.74596313 101.92811035 -19.22631836 101.05175781 C-20.24540283 100.4359082 -21.2644873 99.82005859 -22.31445312 99.18554688 C-24.45475289 97.91156282 -26.5953826 96.63813292 -28.73632812 95.36523438 C-29.80431641 94.72682617 -30.87230469 94.08841797 -31.97265625 93.43066406 C-34.9305442 91.67699365 -37.90465983 89.95774603 -40.89257812 88.25585938 C-41.76889893 87.75618652 -42.64521973 87.25651367 -43.5480957 86.74169922 C-45.19710852 85.80384018 -46.84792856 84.86915005 -48.50073242 83.93798828 C-49.23203369 83.51952637 -49.96333496 83.10106445 -50.71679688 82.66992188 C-51.35480225 82.30866211 -51.99280762 81.94740234 -52.65014648 81.57519531 C-54.12695312 80.56054688 -54.12695312 80.56054688 -55.12695312 78.56054688 C-55.26299515 76.86756409 -55.3381251 75.1695187 -55.38330078 73.47167969 C-55.41227448 72.41007629 -55.44124817 71.3484729 -55.47109985 70.25469971 C-55.56847381 65.39263219 -55.64262239 60.53070974 -55.69677734 55.66796875 C-55.73346335 53.10319494 -55.78805818 50.53861276 -55.86083984 47.97460938 C-55.96419468 44.27860247 -56.00869291 40.58590057 -56.04101562 36.88867188 C-56.08433014 35.74472961 -56.12764465 34.60078735 -56.17227173 33.42218018 C-56.15386098 25.66012313 -56.15386098 25.66012313 -53.29756165 22.60169983 C-50.97596216 21.02489612 -48.65555426 19.77320973 -46.12695312 18.56054688 C-44.96629781 17.87986486 -43.81055064 17.19068318 -42.66186523 16.48999023 C-41.58686768 15.88292236 -40.51187012 15.27585449 -39.40429688 14.65039062 C-38.81451553 14.31560196 -38.22473419 13.98081329 -37.61708069 13.63587952 C-35.76798611 12.58675077 -33.91644294 11.54205479 -32.06445312 10.49804688 C-30.21383507 9.45248764 -28.36381324 8.40591335 -26.51504517 7.35708618 C-24.75849263 6.36152259 -22.99915077 5.37088554 -21.23974609 4.38037109 C-18.04786257 2.51430837 -15.0213555 0.50389393 -12.07055664 -1.72241211 C-7.86615709 -3.27351392 -3.9031633 -1.79677161 0 0 Z " fill="#439348" transform="translate(81.126953125,33.439453125)"/>
<path d="M0 0 C3.62880833 2.60948014 6.35979173 5.44156179 9.125 8.9375 C9.89070313 9.89269531 10.65640625 10.84789063 11.4453125 11.83203125 C12.05681152 12.59507568 12.05681152 12.59507568 12.68066406 13.37353516 C15.07673039 16.32738302 17.5395819 19.22473287 20 22.125 C20.48098145 22.693396 20.96196289 23.26179199 21.45751953 23.84741211 C23.65902954 26.48687878 23.65902954 26.48687878 26 29 C26.0093457 28.23333008 26.01869141 27.46666016 26.02832031 26.67675781 C26.08202773 23.20051897 26.16567576 19.72562526 26.25 16.25 C26.26417969 15.0434375 26.27835938 13.836875 26.29296875 12.59375 C26.32519531 11.43359375 26.35742188 10.2734375 26.390625 9.078125 C26.41157227 8.00981445 26.43251953 6.94150391 26.45410156 5.84082031 C27.12313533 2.35921167 28.20246904 1.12160019 31 -1 C34.39154295 -0.83849795 35.58296757 -0.41703243 38 2 C38.25396729 3.85949707 38.25396729 3.85949707 38.25878906 6.14257812 C38.26509338 6.99686401 38.27139771 7.8511499 38.27789307 8.73132324 C38.2738446 9.65529907 38.26979614 10.5792749 38.265625 11.53125 C38.26849518 12.95153503 38.26849518 12.95153503 38.27142334 14.4005127 C38.27278573 16.40454372 38.26908556 18.40858354 38.26074219 20.41259766 C38.25004347 23.48750553 38.26063572 26.56182914 38.2734375 29.63671875 C38.27211591 31.58073046 38.26955354 33.52474181 38.265625 35.46875 C38.26967346 36.39272583 38.27372192 37.31670166 38.27789307 38.26867676 C38.27158875 39.12296265 38.26528442 39.97724854 38.25878906 40.85742188 C38.25719788 41.61083862 38.25560669 42.36425537 38.25396729 43.14050293 C38 45 38 45 36 47 C28.99910337 47.68861278 28.99910337 47.68861278 25.4609375 45.25 C23.16515504 43.15099889 21.32037023 41.09337126 19.4375 38.625 C15.4587656 33.52035223 11.28071118 28.61871121 7.03686523 23.73486328 C4.8642025 21.2239947 2.84447807 18.7667171 1 16 C0.98018066 16.86802246 0.96036133 17.73604492 0.93994141 18.63037109 C0.86190128 21.84726267 0.77521119 25.06377045 0.68261719 28.28027344 C0.64430673 29.67308572 0.60945741 31.06599765 0.578125 32.45898438 C0.53252093 34.45986308 0.47348377 36.46042146 0.4140625 38.4609375 C0.3826416 39.66540527 0.3512207 40.86987305 0.31884766 42.11083984 C0 45 0 45 -2 47 C-5 47.25 -5 47.25 -8 47 C-10.37992515 44.62007485 -10.25762718 44.11169697 -10.29052734 40.87329102 C-10.30328705 40.02223282 -10.31604675 39.17117462 -10.32919312 38.29432678 C-10.33141876 37.37348801 -10.33364441 36.45264923 -10.3359375 35.50390625 C-10.3425943 34.55942123 -10.3492511 33.61493622 -10.35610962 32.64183044 C-10.36624581 30.64201814 -10.37092634 28.64217195 -10.37060547 26.64233398 C-10.37497782 23.57804796 -10.41128477 20.51520276 -10.44921875 17.45117188 C-10.45508679 15.51042161 -10.45905627 13.56966448 -10.4609375 11.62890625 C-10.47530853 10.71009171 -10.48967957 9.79127716 -10.50448608 8.84461975 C-10.45895401 2.5237468 -10.45895401 2.5237468 -8.15478516 -0.10571289 C-5.017138 -1.40791111 -3.22481042 -0.98718686 0 0 Z " fill="#FAFCFA" transform="translate(60,62)"/>
<path d="M0 0 C1.98 0 3.96 0 6 0 C8.16015625 2.52734375 8.16015625 2.52734375 10.0625 5.9375 C11.00802734 7.59072266 11.00802734 7.59072266 11.97265625 9.27734375 C12.64167969 10.50582031 13.31070313 11.73429687 14 13 C15.65 15.97 17.3 18.94 19 22 C19.33 14.74 19.66 7.48 20 0 C22.31 0 24.62 0 27 0 C27 12.21 27 24.42 27 37 C24.69 37 22.38 37 20 37 C15.71 29.41 11.42 21.82 7 14 C6.67 21.59 6.34 29.18 6 37 C4.02 37 2.04 37 0 37 C0 24.79 0 12.58 0 0 Z " fill="#4C9851" transform="translate(204,66)"/>
<path d="M0 0 C1.98 0 3.96 0 6 0 C7.87451172 2.01953125 7.87451172 2.01953125 9.4296875 4.8125 C9.996875 5.80507812 10.5640625 6.79765625 11.1484375 7.8203125 C11.71820313 8.86960937 12.28796875 9.91890625 12.875 11 C13.46796875 12.04929687 14.0609375 13.09859375 14.671875 14.1796875 C16.1347859 16.77517458 17.57005195 19.38620772 19 22 C19.33 14.74 19.66 7.48 20 0 C21.98 0 23.96 0 26 0 C26 12.21 26 24.42 26 37 C20 37 20 37 18.44848633 35.51879883 C17.89584106 34.49822388 17.89584106 34.49822388 17.33203125 33.45703125 C16.91373047 32.71259766 16.49542969 31.96816406 16.06445312 31.20117188 C15.65130859 30.41291016 15.23816406 29.62464844 14.8125 28.8125 C14.17538086 27.65911133 14.17538086 27.65911133 13.52539062 26.48242188 C12.72749308 25.03677547 11.93899813 23.58586827 11.16333008 22.12817383 C9.84350442 19.71370997 8.41571204 17.35952006 7 15 C6.67 22.26 6.34 29.52 6 37 C4.02 37 2.04 37 0 37 C0 24.79 0 12.58 0 0 Z " fill="#45944A" transform="translate(128,66)"/>
<path d="M0 0 C2.94675381 2.86920766 3.93789433 4.17709988 4.25 8.3125 C4.1675 9.199375 4.085 10.08625 4 11 C1.69 11 -0.62 11 -3 11 C-3.66 9.02 -4.32 7.04 -5 5 C-6.41303238 4.7493981 -7.83079474 4.52538079 -9.25 4.3125 C-10.03890625 4.18488281 -10.8278125 4.05726562 -11.640625 3.92578125 C-14.04305324 3.86453975 -14.04305324 3.86453975 -16.265625 4.921875 C-19.05362798 8.26245515 -18.57989863 11.72617639 -18.5 15.9375 C-18.52320313 17.15469727 -18.52320313 17.15469727 -18.546875 18.39648438 C-18.52189001 22.20357199 -18.42442888 24.36813628 -16.265625 27.58203125 C-13.53708439 29.28972132 -12.38209107 29.30272195 -9.25 28.75 C-8.45078125 28.62109375 -7.6515625 28.4921875 -6.828125 28.359375 C-6.22484375 28.24078125 -5.6215625 28.1221875 -5 28 C-4.01 24.535 -4.01 24.535 -3 21 C-5.64 21 -8.28 21 -11 21 C-11 19.02 -11 17.04 -11 15 C-6.05 15 -1.1 15 4 15 C4.53571429 27.05357143 4.53571429 27.05357143 2.25 30.625 C-0.8310011 33.87716783 -2.76203591 34.85830532 -7.2421875 35.37109375 C-18.25843052 35.57246593 -18.25843052 35.57246593 -21.8125 32.6875 C-25.91045473 27.65286991 -25.28666576 22.39900282 -25.375 16.1875 C-25.41238281 15.20201172 -25.44976562 14.21652344 -25.48828125 13.20117188 C-25.58699075 5.03570258 -25.58699075 5.03570258 -22.65234375 1.38671875 C-16.12424411 -4.4876095 -7.23425062 -4.76802881 0 0 Z " fill="#46944B" transform="translate(184,68)"/>
<path d="M0 0 C4.22797927 -0.96891192 4.22797927 -0.96891192 7 0 C10.10641799 3.38734622 12.56788536 7.10861658 15 11 C15.4125 10.2059375 15.825 9.411875 16.25 8.59375 C16.8275 7.5728125 17.405 6.551875 18 5.5 C18.556875 4.4790625 19.11375 3.458125 19.6875 2.40625 C22 0 22 0 24.03515625 -0.34375 C26.25 -0.34375 26.25 -0.34375 30 0 C28.70966095 2.27159689 27.41778598 4.54229625 26.125 6.8125 C25.76019531 7.45509766 25.39539063 8.09769531 25.01953125 8.75976562 C23.41916099 11.56768798 21.79357134 14.30964298 20 17 C20.2444673 21.58179037 22.61464773 24.95441959 25.0625 28.6875 C29 34.75192308 29 34.75192308 29 37 C25.9375 37.6875 25.9375 37.6875 22 37 C19.18734179 33.595489 17.07657449 29.88805437 15 26 C12.5957852 28.19004624 11.23716207 30.31266909 9.75 33.1875 C8.47265625 35.32421875 8.47265625 35.32421875 7 37 C3.1875 37.5 3.1875 37.5 0 37 C1.84939479 31.883654 4.70359812 27.59060413 7.63671875 23.03515625 C9.30314234 19.32509571 9.21534967 17.85354774 8 14 C6.7087596 11.62772113 5.4177353 9.42958353 3.9375 7.1875 C0 1.08269231 0 1.08269231 0 0 Z " fill="#47954C" transform="translate(234,66)"/>
<path d="M0 0 C1.98 0 3.96 0 6 0 C6 12.21 6 24.42 6 37 C4.02 37 2.04 37 0 37 C0 24.79 0 12.58 0 0 Z " fill="#3D8F42" transform="translate(193,66)"/>
<path d="M0 0 C0.598125 0.20625 1.19625 0.4125 1.8125 0.625 C2.4375 3 2.4375 3 2.8125 5.625 C2.1525 6.285 1.4925 6.945 0.8125 7.625 C-1.8125 7.25 -1.8125 7.25 -4.1875 6.625 C-4.5175 4.975 -4.8475 3.325 -5.1875 1.625 C-2.1875 -0.375 -2.1875 -0.375 0 0 Z " fill="#B5D2BF" transform="translate(274.1875,95.375)"/>
</svg>
