<?xml version="1.0" encoding="UTF-8"?>
<svg version="1.1" xmlns="http://www.w3.org/2000/svg" width="512" height="273">
<path d="M0 0 C168.96 0 337.92 0 512 0 C512 90.09 512 180.18 512 273 C343.04 273 174.08 273 0 273 C0 182.91 0 92.82 0 0 Z " fill="#FDFDFD" transform="translate(0,0)"/>
<path d="M0 0 C0 0.66 0 1.32 0 2 C2.64 2 5.28 2 8 2 C8 2.66 8 3.32 8 4 C8.86625 4.268125 9.7325 4.53625 10.625 4.8125 C13.91791964 5.97111987 16.91127875 7.38209839 20 9 C20 9.66 20 10.32 20 11 C20.71285156 11.21914063 21.42570313 11.43828125 22.16015625 11.6640625 C25.6397317 13.30094668 27.90315091 15.56345648 30.4375 18.375 C30.91832031 18.90665771 31.39914062 19.43831543 31.89453125 19.98608398 C36.39827712 25.15398022 39.47815925 30.61819891 42 37 C42.50660156 38.25296875 42.50660156 38.25296875 43.0234375 39.53125 C45.04261376 45.53320512 45.27020493 51.41272462 45.3125 57.6875 C45.32095947 58.88161499 45.32095947 58.88161499 45.32958984 60.09985352 C45.26505767 65.36250693 44.4513 69.94068726 43 75 C44.07507813 75.17015625 44.07507813 75.17015625 45.171875 75.34375 C54.40200618 77.4855484 62.23682036 83.66708271 68 91 C75.55529502 103.15980958 76.96366828 114.04392899 75 128 C73.99926197 131.5435224 72.67370693 134.72697311 71 138 C70.53980469 138.9590625 70.53980469 138.9590625 70.0703125 139.9375 C69.40583551 141.30442409 68.707875 142.65503751 68 144 C67.34 144 66.68 144 66 144 C65.74605469 144.5878125 65.49210938 145.175625 65.23046875 145.78125 C60.82575673 153.72371485 51.31582236 158.25100818 43.1875 161.38671875 C37.8513194 162.8827551 32.46715851 163.12600564 26.95474243 163.13371277 C26.28132541 163.13597833 25.60790839 163.13824388 24.91408479 163.14057809 C22.67659205 163.14686549 20.4391607 163.14609214 18.20166016 163.14526367 C16.58963443 163.14825842 14.97760941 163.15166168 13.36558533 163.15544128 C8.99982845 163.16425265 4.63409119 163.16661817 0.26832628 163.16725707 C-2.46235958 163.16796912 -5.1930405 163.17010636 -7.92372513 163.17275429 C-17.45891892 163.18199775 -26.99409875 163.18609037 -36.52929688 163.18530273 C-45.40373492 163.18470199 -54.27811218 163.19525575 -63.15253484 163.2110464 C-70.78417889 163.22413964 -78.4158031 163.22948589 -86.04745829 163.22884732 C-90.60001365 163.22859289 -95.15251493 163.23141393 -99.70505905 163.24202538 C-103.98802204 163.25173659 -108.27087957 163.25176487 -112.55384636 163.24450874 C-114.12070432 163.2434667 -115.68756895 163.24580306 -117.25441551 163.2518692 C-125.08756691 163.28021844 -132.40915707 163.12411345 -140 161 C-140.86753906 160.79117188 -141.73507812 160.58234375 -142.62890625 160.3671875 C-144.41927083 159.91145833 -146.20963542 159.45572917 -148 159 C-148 158.34 -148 157.68 -148 157 C-149.3303125 156.62875 -149.3303125 156.62875 -150.6875 156.25 C-159.15953847 153.05300435 -165.10940434 145.40383572 -168.8125 137.375 C-169.57605451 135.59771612 -170.30543046 133.80536053 -171 132 C-171.36867188 131.05769531 -171.73734375 130.11539063 -172.1171875 129.14453125 C-174.98968866 118.91283463 -173.78568097 105.85338797 -168.640625 96.5390625 C-167.18189112 94.27576921 -165.64047443 92.13429072 -164 90 C-163.21625 88.948125 -162.4325 87.89625 -161.625 86.8125 C-154.97054765 79.68272962 -146.38328512 73.59894521 -136.40576172 72.78955078 C-130.26514575 72.57787803 -124.1362875 72.71974516 -118 73 C-117.76273193 72.41774658 -117.52546387 71.83549316 -117.28100586 71.2355957 C-115.20739236 66.33428157 -113.02610885 62.2874044 -109.5625 58.1875 C-108.82128906 57.29417969 -108.08007812 56.40085938 -107.31640625 55.48046875 C-104.16815562 52.10923915 -101.41025826 49.47008609 -97 48 C-96.5875 47.525625 -96.175 47.05125 -95.75 46.5625 C-93.1633358 44.25297839 -90.3209636 43.8302409 -87 43 C-86.01 42.67 -85.02 42.34 -84 42 C-81.60509014 41.93029948 -79.20832309 41.91551997 -76.8125 41.9375 C-75.54019531 41.94652344 -74.26789063 41.95554688 -72.95703125 41.96484375 C-71.49330078 41.98224609 -71.49330078 41.98224609 -70 42 C-69.76216797 41.18208984 -69.76216797 41.18208984 -69.51953125 40.34765625 C-66.83018721 31.65557745 -62.83448134 23.23320732 -56 17 C-55.34 17 -54.68 17 -54 17 C-53.76796875 16.41347656 -53.5359375 15.82695312 -53.296875 15.22265625 C-49.79582702 9.22236618 -40.66414194 4.37180645 -34.140625 2.453125 C-32.78245172 2.10568532 -31.41875897 1.77922753 -30.05078125 1.47265625 C-28.11599016 1.02673297 -26.21159872 0.45438605 -24.3125 -0.125 C-16.5074681 -2.08397046 -7.85655396 -1.46168446 0 0 Z " fill="#4A90E4" transform="translate(436,12)"/>
<path d="M0 0 C2.05673499 0.01170262 4.105291 -0.04063147 6.16113281 -0.09765625 C17.21197473 -0.09765625 17.21197473 -0.09765625 21.05957031 3.62109375 C24.22599532 8.51117254 23.07201043 13.31173782 22.05957031 18.76171875 C21.90713867 19.81939453 21.75470703 20.87707031 21.59765625 21.96679688 C21.10675548 25.32872337 20.5294049 28.66673982 19.93457031 32.01171875 C19.75925781 33.14351562 19.58394531 34.2753125 19.40332031 35.44140625 C18.2088858 42.06508852 16.76819018 46.15340088 11.68505859 50.67871094 C10.05957031 51.76171875 10.05957031 51.76171875 8.05957031 51.76171875 C8.05957031 52.42171875 8.05957031 53.08171875 8.05957031 53.76171875 C4.03986635 53.93567398 0.02163794 54.06219564 -4.00097656 54.14624023 C-5.3669249 54.18129354 -6.73261335 54.22895507 -8.09765625 54.28979492 C-19.1443318 54.7695593 -19.1443318 54.7695593 -23.20898438 52.48876953 C-26.08463012 49.55987109 -27.26900931 46.76881565 -27.45996094 42.68359375 C-27.00843505 36.40218938 -25.79631416 30.19176956 -24.62792969 24.01171875 C-24.41458984 22.80644531 -24.20125 21.60117188 -23.98144531 20.359375 C-23.76552734 19.19792969 -23.54960937 18.03648437 -23.32714844 16.83984375 C-23.13338623 15.7921582 -22.93962402 14.74447266 -22.73999023 13.66503906 C-21.45005762 8.98110665 -18.9731027 4.7912329 -15.10839844 1.75195312 C-10.40259193 -0.39745579 -5.08634407 -0.04864987 0 0 Z " fill="#0B0B0C" transform="translate(395.9404296875,206.23828125)"/>
<path d="M0 0 C2.05673499 0.01170262 4.105291 -0.04063147 6.16113281 -0.09765625 C15.6155613 -0.09765625 15.6155613 -0.09765625 19.34619141 2.12255859 C22.19818845 5.08767071 23.00313989 7.08912908 23.34863281 11.20703125 C23.01992187 13.02847656 23.01992187 13.02847656 22.68457031 14.88671875 C22.56807129 15.55759521 22.45157227 16.22847168 22.33154297 16.91967773 C22.07074789 18.39579123 21.79512845 19.8693417 21.50683594 21.34033203 C21.02265836 23.96155103 20.65451512 26.58561976 20.29394531 29.2265625 C20.00994208 31.09282318 19.72350894 32.95871581 19.43457031 34.82421875 C19.31936035 35.70416504 19.20415039 36.58411133 19.08544922 37.49072266 C18.01236453 43.72557099 15.86090907 46.57317456 10.82373047 50.38452148 C8.93262142 51.65741587 8.93262142 51.65741587 8.05957031 53.76171875 C3.87886329 53.93535834 -0.29991264 54.06204618 -4.4831543 54.14624023 C-5.90442473 54.18134731 -7.32544401 54.22904905 -8.74584961 54.28979492 C-20.2529671 54.76942609 -20.2529671 54.76942609 -24.01318359 52.52392578 C-27.24178191 48.64163596 -27.4864362 44.36120091 -27.22363281 39.46972656 C-26.72006637 34.65458947 -26.03319478 29.90400187 -25.19042969 25.13671875 C-25.03316406 24.151875 -24.87589844 23.16703125 -24.71386719 22.15234375 C-23.41441772 14.65551989 -21.53217721 6.47445716 -15.07324219 1.64648438 C-10.3228295 -0.32415386 -5.06938837 -0.04848769 0 0 Z " fill="#0B0B0B" transform="translate(27.9404296875,206.23828125)"/>
<path d="M0 0 C2.04818131 0.02467688 4.08697966 -0.02021854 6.13452148 -0.07104492 C17.11514856 -0.03301207 17.11514856 -0.03301207 20.98022461 3.70043945 C24.1488194 8.56084636 23.01593949 13.4144811 21.98413086 18.8371582 C21.8360498 19.77640137 21.68796875 20.71564453 21.53540039 21.68334961 C21.08150527 24.51469755 20.57211652 27.33078903 20.04663086 30.1496582 C19.79236328 31.57375 19.79236328 31.57375 19.53295898 33.02661133 C19.05348054 35.63913075 18.52758078 38.23732395 17.98413086 40.8371582 C17.7765918 41.92383789 17.56905273 43.01051758 17.35522461 44.13012695 C15.1497 48.48462425 12.45433108 50.85914996 7.98413086 52.8371582 C3.58222961 53.57641849 -0.7030728 53.70332464 -5.16210938 53.61938477 C-7.21173684 53.5870261 -9.25358264 53.61925125 -11.30297852 53.6574707 C-20.56162155 53.60244162 -20.56162155 53.60244162 -24.0534668 51.76489258 C-26.59688014 49.1776427 -27.30491282 46.31736296 -27.47680664 42.82543945 C-27.10224139 36.4883799 -25.83649566 30.24796142 -24.64086914 24.0246582 C-24.41915039 22.81100586 -24.19743164 21.59735352 -23.96899414 20.34692383 C-21.4630897 7.02877874 -21.4630897 7.02877874 -15.44604492 2.08959961 C-10.63155859 -0.3916456 -5.31386059 -0.08373821 0 0 Z " fill="#09090A" transform="translate(344.015869140625,206.162841796875)"/>
<path d="M0 0 C3.96 0 7.92 0 12 0 C12 14.19 12 28.38 12 43 C12.66 43 13.32 43 14 43 C14.15710449 42.3930127 14.31420898 41.78602539 14.47607422 41.16064453 C16.54727885 33.35158502 18.95537308 25.66392682 21.44384766 17.98046875 C22.13468486 15.84506372 22.81947017 13.70777671 23.50390625 11.5703125 C23.94235038 10.210822 24.38113921 8.85144262 24.8203125 7.4921875 C25.21492676 6.26870605 25.60954102 5.04522461 26.01611328 3.78466797 C27 1 27 1 28 0 C31.63 0 35.26 0 39 0 C39 14.19 39 28.38 39 43 C39.66 43 40.32 43 41 43 C41.15710449 42.31574951 41.31420898 41.63149902 41.47607422 40.92651367 C43.38922995 32.91608679 45.81252336 25.12812141 48.44384766 17.33227539 C49.13637693 15.27876474 49.82056382 13.22259952 50.50390625 11.16601562 C53.86016597 1.13983403 53.86016597 1.13983403 55 0 C57.01964199 -0.07244053 59.04167124 -0.08377188 61.0625 -0.0625 C62.71958984 -0.04896484 62.71958984 -0.04896484 64.41015625 -0.03515625 C65.26480469 -0.02355469 66.11945313 -0.01195312 67 0 C65.54764068 8.23300623 62.45236513 15.60538969 59.1875 23.25 C58.1362227 25.73307234 57.08929094 28.21796136 56.04296875 30.703125 C55.53427246 31.90904297 55.02557617 33.11496094 54.50146484 34.35742188 C52.56198138 39.06264029 50.75471267 43.80944282 48.97387695 48.57714844 C48 51 48 51 47 52 C44.13530675 52.07330331 41.30106326 52.09217831 38.4375 52.0625 C34.2609375 52.0315625 34.2609375 52.0315625 30 52 C29.505 39.625 29.505 39.625 29 27 C26.03 35.58 23.06 44.16 20 53 C14.06 53 8.12 53 2 53 C1.71168967 47.70229762 1.42576107 42.40456633 1.14550781 37.10644531 C1.04983405 35.31047545 0.95286637 33.51457397 0.85449219 31.71875 C0.27525137 21.1269179 -0.11580752 10.61086372 0 0 Z " fill="#080808" transform="translate(253,207)"/>
<path d="M0 0 C-0.42104004 0.83640015 -0.42104004 0.83640015 -0.85058594 1.68969727 C-11.38725674 21.93909619 -11.38725674 21.93909619 -20 43 C-19.16597656 43.103125 -18.33195312 43.20625 -17.47265625 43.3125 C-13.56607826 44.08590577 -10.08276199 45.44975819 -6.4375 47 C-2.34155289 48.73148711 1.57567572 50.32064118 6 51 C5.67 52.32 5.34 53.64 5 55 C3.02 55.495 3.02 55.495 1 56 C1 56.66 1 57.32 1 58 C-1.25407908 59.95981288 -3.5132561 61.80400764 -5.875 63.625 C-6.52597656 64.140625 -7.17695313 64.65625 -7.84765625 65.1875 C-12.73935599 69 -12.73935599 69 -15 69 C-15 69.66 -15 70.32 -15 71 C-17.15243784 72.82703461 -19.3136217 74.54917957 -21.5625 76.25 C-22.85126628 77.23957682 -24.1390377 78.23045072 -25.42578125 79.22265625 C-26.04533691 79.69977051 -26.66489258 80.17688477 -27.30322266 80.66845703 C-29.34826141 82.27329751 -31.30753951 83.96040827 -33.25 85.6875 C-36 88 -36 88 -38 88 C-38 88.66 -38 89.32 -38 90 C-40.475 90.99 -40.475 90.99 -43 92 C-43 92.66 -43 93.32 -43 94 C-44.485 94.495 -44.485 94.495 -46 95 C-44.69855402 89.89885495 -42.8801241 85.42014432 -40.4375 80.75 C-37.17833778 74.38454433 -34.04881607 67.96891938 -31 61.5 C-30.60224365 60.65663086 -30.2044873 59.81326172 -29.79467773 58.94433594 C-28.86168999 56.96356285 -27.93062411 54.98188469 -27 53 C-27.57065186 52.88462891 -28.14130371 52.76925781 -28.72924805 52.65039062 C-33.60795272 51.6223325 -38.1642353 50.3435681 -42.8125 48.5 C-43.89144531 48.0771875 -44.97039062 47.654375 -46.08203125 47.21875 C-48.44877625 46.23023 -50.72883016 45.18782733 -53 44 C-49.65014381 36.37618935 -41.45515986 31.75648068 -35.00634766 26.84448242 C-28.31839894 21.74378362 -21.81474025 16.42131046 -15.4375 10.9375 C-13 9 -13 9 -11 9 C-11 8.34 -11 7.68 -11 7 C-10.360625 6.896875 -9.72125 6.79375 -9.0625 6.6875 C-8.0415625 6.3471875 -8.0415625 6.3471875 -7 6 C-6.67 5.01 -6.34 4.02 -6 3 C-2.55555556 0 -2.55555556 0 0 0 Z " fill="#F7FBFC" transform="translate(431,52)"/>
<path d="M0 0 C1.55988319 -0.02657603 3.11959165 -0.06746913 4.67871094 -0.12304688 C17.58243398 -0.57773124 17.58243398 -0.57773124 21.24462891 1.92626953 C24.41817733 6.18140123 24.83461917 10.39343186 24.10009766 15.45996094 C23.96603516 16.50023437 23.83197266 17.54050781 23.69384766 18.61230469 C22.48806115 25.53764428 21.05209316 29.56450911 15.53369141 34.06567383 C11.09730347 36.60742859 6.60387188 36.45327732 1.60009766 36.39746094 C0.58689453 36.41357422 -0.42630859 36.4296875 -1.47021484 36.44628906 C-3.94653361 36.48133131 -6.42338074 36.47490546 -8.89990234 36.45996094 C-9.88990234 41.73996094 -10.87990234 47.01996094 -11.89990234 52.45996094 C-15.52990234 52.45996094 -19.15990234 52.45996094 -22.89990234 52.45996094 C-23.02061911 47.00834602 -22.65306702 41.92737733 -21.65771484 36.55761719 C-21.46506546 35.47461586 -21.46506546 35.47461586 -21.26852417 34.36973572 C-20.99765672 32.85406744 -20.7235375 31.33897695 -20.44628906 29.82446289 C-20.02681686 27.53291979 -19.61675408 25.23985396 -19.20849609 22.94628906 C-15.13395021 0.19699872 -15.13395021 0.19699872 0 0 Z " fill="#0B0B0B" transform="translate(75.89990234375,206.5400390625)"/>
<path d="M0 0 C4.29 0 8.58 0 13 0 C17.97692585 10.42043849 21.96083504 21.1892495 26 32 C28.16962582 21.35714847 30.3057261 10.73040136 32 0 C35.63 0 39.26 0 43 0 C42.04524067 10.40185165 40.62169479 20.54974319 38.46850586 30.77368164 C37.16271706 37.01040397 36.18246737 43.21738815 35.39453125 49.54296875 C35 52 35 52 34 53 C32.14712498 53.07226502 30.29166122 53.0838122 28.4375 53.0625 C27.42558594 53.05347656 26.41367188 53.04445313 25.37109375 53.03515625 C24.19740234 53.01775391 24.19740234 53.01775391 23 53 C22.78384033 52.42668945 22.56768066 51.85337891 22.3449707 51.26269531 C19.91764762 44.83367386 17.46513728 38.41460697 15 32 C14.72897461 31.2884375 14.45794922 30.576875 14.17871094 29.84375 C13.52695317 28.14119909 12.85816989 26.44519016 12.1875 24.75 C11.83042969 23.83734375 11.47335938 22.9246875 11.10546875 21.984375 C10.10266412 19.65929788 10.10266412 19.65929788 7 19 C6.97421875 19.69480469 6.9484375 20.38960937 6.921875 21.10546875 C6.31808074 31.93259766 4.15375692 42.39149499 2 53 C-1.63 53 -5.26 53 -9 53 C-7.40547621 41.25497112 -5.64558965 29.54105937 -3.71151733 17.847229 C-3.48714814 16.49059603 -3.26386128 15.1337836 -3.04165649 13.77679443 C-2.72664149 11.85711946 -2.40639734 9.9383048 -2.0859375 8.01953125 C-1.9007959 6.90682861 -1.7156543 5.79412598 -1.52490234 4.64770508 C-1 2 -1 2 0 0 Z " fill="#0B0B0B" transform="translate(155,207)"/>
<path d="M0 0 C12.54 0 25.08 0 38 0 C37 9 37 9 36 10 C34.00035018 10.08758003 31.9976389 10.10696576 29.99609375 10.09765625 C28.78115234 10.09443359 27.56621094 10.09121094 26.31445312 10.08789062 C25.03505859 10.07951172 23.75566406 10.07113281 22.4375 10.0625 C21.15423828 10.05798828 19.87097656 10.05347656 18.54882812 10.04882812 C15.36583978 10.03699545 12.18294238 10.02051068 9 10 C8.67 13.63 8.34 17.26 8 21 C15.92 21 23.84 21 32 21 C31 29 31 29 30 30 C28.22130274 30.15764405 26.43681524 30.25100677 24.65234375 30.31640625 C23.57275391 30.35830078 22.49316406 30.40019531 21.38085938 30.44335938 C20.24455078 30.48267578 19.10824219 30.52199219 17.9375 30.5625 C16.22723633 30.62727539 16.22723633 30.62727539 14.48242188 30.69335938 C11.65510492 30.79982738 8.82756908 30.90045262 6 31 C5.34 34.96 4.68 38.92 4 43 C12.58 43 21.16 43 30 43 C29.505 47.95 29.505 47.95 29 53 C16.46 53 3.92 53 -9 53 C-8.40513714 45.2667828 -7.8459404 38.0221771 -6.40625 30.48828125 C-6.25466431 29.66796921 -6.10307861 28.84765717 -5.94689941 28.00248718 C-5.63073465 26.29899182 -5.31135682 24.59608966 -4.98876953 22.89379883 C-4.49388293 20.28019441 -4.00986936 17.66474017 -3.52734375 15.04882812 C-3.21676715 13.38269656 -2.90559194 11.71667645 -2.59375 10.05078125 C-2.44893188 9.27068192 -2.30411377 8.49058258 -2.15490723 7.68684387 C-1.11642091 2.23284181 -1.11642091 2.23284181 0 0 Z " fill="#0F0F10" transform="translate(472,207)"/>
<path d="M0 0 C12.54 0 25.08 0 38 0 C37.67 3.3 37.34 6.6 37 10 C28.09 10 19.18 10 10 10 C9.34 13.63 8.68 17.26 8 21 C15.92 21 23.84 21 32 21 C31.67 23.97 31.34 26.94 31 30 C22.75 30 14.5 30 6 30 C5.67 34.29 5.34 38.58 5 43 C13.58 43 22.16 43 31 43 C30 52 30 52 29 53 C26.1883662 53.08861992 23.40141745 53.11522355 20.58984375 53.09765625 C19.74780899 53.0962413 18.90577423 53.09482635 18.03822327 53.09336853 C15.33794665 53.08775263 12.63775172 53.07519748 9.9375 53.0625 C8.11132932 53.05748705 6.28515734 53.05292379 4.45898438 53.04882812 C-0.02737542 53.03777804 -4.51367384 53.02050279 -9 53 C-6.65746055 35.18351851 -3.37988517 17.65051143 0 0 Z " fill="#0F0F0F" transform="translate(108,207)"/>
<path d="M0 0 C1.54873559 0.04019743 3.09757209 0.07668718 4.64648438 0.109375 C8.41268057 0.19684668 12.17395964 0.33447171 15.9375 0.5 C15.6075 3.8 15.2775 7.1 14.9375 10.5 C14.09977051 10.51458252 13.26204102 10.52916504 12.39892578 10.54418945 C9.29371098 10.60520707 6.18916883 10.67935065 3.08447266 10.76245117 C1.07867664 10.81209959 -0.92747687 10.84654164 -2.93359375 10.88085938 C-4.19042969 10.91630859 -5.44726562 10.95175781 -6.7421875 10.98828125 C-7.90476074 11.01446533 -9.06733398 11.04064941 -10.26513672 11.06762695 C-11.1882666 11.21031006 -12.11139648 11.35299316 -13.0625 11.5 C-15.21059171 14.72213757 -15.35636153 15.77775401 -15.0625 19.5 C-14.05753202 20.7295304 -14.05753202 20.7295304 -12.0246582 20.59423828 C-11.14640381 20.58634277 -10.26814941 20.57844727 -9.36328125 20.5703125 C-8.40099609 20.580625 -7.43871094 20.5909375 -6.44726562 20.6015625 C-4.41866378 20.61703817 -2.38974365 20.60967521 -0.36132812 20.578125 C6.86379131 20.7127247 6.86379131 20.7127247 9.98291016 22.99975586 C12.75852927 26.08654121 13.9375 27.56330332 13.9375 31.8125 C13.6075 33.029375 13.2775 34.24625 12.9375 35.5 C12.82921875 36.67949219 12.82921875 36.67949219 12.71875 37.8828125 C12.01716082 44.25558089 9.82039957 47.74300449 4.95947266 51.86157227 C-1.22069776 55.21228512 -8.3004865 54.30924375 -15.125 54 C-16.67373559 53.95980257 -18.22257209 53.92331282 -19.77148438 53.890625 C-23.53768057 53.80315332 -27.29895964 53.66552829 -31.0625 53.5 C-30.7325 50.2 -30.4025 46.9 -30.0625 43.5 C-29.22477051 43.48018066 -28.38704102 43.46036133 -27.52392578 43.43994141 C-24.41884166 43.36189388 -21.31415461 43.27520365 -18.20947266 43.18261719 C-16.20363029 43.12545964 -14.19751082 43.07831404 -12.19140625 43.03125 C-10.30615234 42.97324219 -10.30615234 42.97324219 -8.3828125 42.9140625 C-7.22023926 42.8826416 -6.05766602 42.8512207 -4.85986328 42.81884766 C-1.92593518 42.77842131 -1.92593518 42.77842131 -0.0625 40.5 C0.56681533 37.82404177 0.71880812 35.25551768 0.9375 32.5 C-0.06746798 31.2704696 -0.06746798 31.2704696 -2.1003418 31.40576172 C-2.97859619 31.41365723 -3.85685059 31.42155273 -4.76171875 31.4296875 C-5.72400391 31.419375 -6.68628906 31.4090625 -7.67773438 31.3984375 C-9.70633622 31.38296183 -11.73525635 31.39032479 -13.76367188 31.421875 C-20.86921079 31.28950302 -20.86921079 31.28950302 -24.11010742 29.14526367 C-27.04548951 26.08321164 -27.990667 24.06923124 -28.52734375 19.81640625 C-28.35332031 18.57761719 -28.17929688 17.33882812 -28 16.0625 C-27.86464844 14.82628906 -27.72929687 13.59007812 -27.58984375 12.31640625 C-26.2406636 7.88031587 -23.60885778 4.96520076 -20.0690918 2.05053711 C-13.8437315 -1.1599593 -6.81201744 -0.3086775 0 0 Z " fill="#101010" transform="translate(231.0625,206.5)"/>
<path d="M0 0 C3.96 0 7.92 0 12 0 C10.54116051 9.6187968 8.9843395 19.21809234 7.375 28.8125 C7.14315201 30.1985548 6.9113808 31.58462245 6.6796875 32.97070312 C6.12054193 36.31392765 5.56037797 39.65698182 5 43 C12.92 43 20.84 43 29 43 C28.505 47.95 28.505 47.95 28 53 C15.79 53 3.58 53 -9 53 C-6.75192308 37.26346154 -6.75192308 37.26346154 -5.52734375 30.87890625 C-5.39936905 30.20504379 -5.27139435 29.53118134 -5.13954163 28.8368988 C-4.74185387 26.74484754 -4.340024 24.65362558 -3.9375 22.5625 C-3.53199732 20.44627529 -3.12746739 18.32987546 -2.7247467 16.21311951 C-2.36274396 14.31169021 -1.99775674 12.4108298 -1.63256836 10.51000977 C-1.00276583 7.01534712 -0.48005811 3.51807979 0 0 Z " fill="#0F0F10" transform="translate(429,207)"/>
<path d="M0 0 C0.78052734 -0.00322266 1.56105469 -0.00644531 2.36523438 -0.00976562 C8.17033019 0.04533019 8.17033019 0.04533019 10.4375 2.3125 C10.33277559 5.34950787 10.10777279 8.2410391 9.75 11.25 C9.65332031 12.10722656 9.55664062 12.96445313 9.45703125 13.84765625 C7.62152618 29.03646074 7.62152618 29.03646074 3.4375 35.3125 C1.55810547 35.65307617 1.55810547 35.65307617 -0.6953125 35.60546875 C-1.50097656 35.59580078 -2.30664062 35.58613281 -3.13671875 35.57617188 C-3.97847656 35.55103516 -4.82023437 35.52589844 -5.6875 35.5 C-6.96173828 35.47969727 -6.96173828 35.47969727 -8.26171875 35.45898438 C-10.36224837 35.42358219 -12.46245293 35.36977401 -14.5625 35.3125 C-17.60113094 29.23523812 -14.91298537 20.35624369 -13.75 14 C-13.58435547 13.01193359 -13.41871094 12.02386719 -13.24804688 11.00585938 C-13.07724609 10.05904297 -12.90644531 9.11222656 -12.73046875 8.13671875 C-12.57860107 7.28166748 -12.4267334 6.42661621 -12.27026367 5.5456543 C-10.29450168 -0.68832118 -5.72952616 -0.11886984 0 0 Z " fill="#F5F5F5" transform="translate(396.5625,215.6875)"/>
<path d="M0 0 C0.78052734 -0.00322266 1.56105469 -0.00644531 2.36523438 -0.00976562 C8.17033019 0.04533019 8.17033019 0.04533019 10.4375 2.3125 C10.81815932 11.93774272 8.54455156 24.59867958 4.4375 33.3125 C2.4375 35.3125 2.4375 35.3125 -1.4765625 35.5078125 C-3.04699351 35.49450376 -4.61736221 35.47063602 -6.1875 35.4375 C-6.98929688 35.42847656 -7.79109375 35.41945312 -8.6171875 35.41015625 C-10.59908523 35.38656223 -12.58082981 35.35069065 -14.5625 35.3125 C-17.76343146 28.91063708 -15.13197969 19.55373094 -13.75 12.875 C-13.58435547 11.99134766 -13.41871094 11.10769531 -13.24804688 10.19726562 C-13.07724609 9.34970703 -12.90644531 8.50214844 -12.73046875 7.62890625 C-12.57860107 6.87037354 -12.4267334 6.11184082 -12.27026367 5.33032227 C-10.15845864 -0.69039819 -5.59750936 -0.1161309 0 0 Z " fill="#F5F5F5" transform="translate(28.5625,215.6875)"/>
<path d="M0 0 C0.79792969 0.00515625 1.59585937 0.0103125 2.41796875 0.015625 C3.24683594 0.03625 4.07570313 0.056875 4.9296875 0.078125 C5.76628906 0.08328125 6.60289062 0.0884375 7.46484375 0.09375 C13.6505157 0.1739532 13.6505157 0.1739532 14.8046875 1.328125 C14.75089022 8.52351084 13.53440072 15.72998388 12.4296875 22.828125 C12.31592773 23.60534912 12.20216797 24.38257324 12.08496094 25.18334961 C10.79322058 33.07932783 10.79322058 33.07932783 7.8046875 35.328125 C4.72529436 35.80211767 1.72303223 35.70303136 -1.3828125 35.578125 C-2.6502832 35.55105469 -2.6502832 35.55105469 -3.94335938 35.5234375 C-6.02782823 35.47633086 -8.11171394 35.40458733 -10.1953125 35.328125 C-13.23394344 29.25086312 -10.54579787 20.37186869 -9.3828125 14.015625 C-9.21716797 13.02755859 -9.05152344 12.03949219 -8.88085938 11.02148438 C-8.71005859 10.07466797 -8.53925781 9.12785156 -8.36328125 8.15234375 C-8.21141357 7.29729248 -8.0595459 6.44224121 -7.90307617 5.5612793 C-6.52636461 1.21744325 -4.45411115 -0.05686517 0 0 Z " fill="#F5F5F6" transform="translate(340.1953125,215.671875)"/>
<path d="M0 0 C1.65 0 3.3 0 5 0 C5 0.66 5 1.32 5 2 C6.175625 2.185625 6.175625 2.185625 7.375 2.375 C10 3 10 3 12 5 C16.15491025 7.33713701 19.97053631 7.13663739 24.59765625 6.97265625 C27 7 27 7 28.77048016 7.49377251 C31.58460084 8.13273756 34.18773045 8.1259786 37.07466125 8.12698364 C38.9435778 8.13121338 38.9435778 8.13121338 40.85025024 8.13552856 C42.22869888 8.1335842 43.60714736 8.13153602 44.9855957 8.12939453 C46.43966211 8.1307499 47.89372817 8.13253059 49.34779358 8.13470459 C53.29885964 8.13926725 57.2498996 8.13749296 61.20096612 8.1343255 C65.3472909 8.1317906 69.49361348 8.13414309 73.63993835 8.13571167 C80.61486205 8.13753229 87.58977517 8.13513219 94.56469727 8.13037109 C102.59540135 8.12495213 110.62607996 8.12667426 118.6567834 8.1321975 C125.56999468 8.13675981 132.48319835 8.13736331 139.39641064 8.13475883 C143.51658525 8.1332101 147.63674796 8.13296291 151.75692177 8.13629532 C155.64340698 8.13921867 159.52985999 8.13711778 163.41634178 8.13140106 C164.83070701 8.13009608 166.24507502 8.13042824 167.65943909 8.13266373 C189.83015393 8.2201915 189.83015393 8.2201915 210.3359375 0.671875 C211.15964844 0.33929688 211.15964844 0.33929688 212 0 C212.99 0.495 212.99 0.495 214 1 C203.85628205 8.25557603 195.5684246 11.11607709 182.95474243 11.13371277 C182.28132541 11.13597833 181.60790839 11.13824388 180.91408479 11.14057809 C178.67659205 11.14686549 176.4391607 11.14609214 174.20166016 11.14526367 C172.58963443 11.14825842 170.97760941 11.15166168 169.36558533 11.15544128 C164.99982845 11.16425265 160.63409119 11.16661817 156.26832628 11.16725707 C153.53764042 11.16796912 150.8069595 11.17010636 148.07627487 11.17275429 C138.54108108 11.18199775 129.00590125 11.18609037 119.47070312 11.18530273 C110.59626508 11.18470199 101.72188782 11.19525575 92.84746516 11.2110464 C85.21582111 11.22413964 77.5841969 11.22948589 69.95254171 11.22884732 C65.39998635 11.22859289 60.84748507 11.23141393 56.29494095 11.24202538 C52.01197796 11.25173659 47.72912043 11.25176487 43.44615364 11.24450874 C41.87929568 11.2434667 40.31243105 11.24580306 38.74558449 11.2518692 C30.91243309 11.28021844 23.59084293 11.12411345 16 9 C14.69869141 8.68675781 14.69869141 8.68675781 13.37109375 8.3671875 C11.58072917 7.91145833 9.79036458 7.45572917 8 7 C8 6.34 8 5.68 8 5 C7.05125 4.731875 6.1025 4.46375 5.125 4.1875 C2 3 2 3 0 0 Z " fill="#76A9DC" transform="translate(280,164)"/>
<path d="M0 0 C2.62527189 -0.05382106 5.24944713 -0.09358313 7.875 -0.125 C8.62136719 -0.14175781 9.36773437 -0.15851563 10.13671875 -0.17578125 C12.09194461 -0.1933959 14.04742021 -0.10320189 16 0 C18 2 18 2 18.01171875 4.0234375 C17.90472656 4.79945313 17.79773438 5.57546875 17.6875 6.375 C17.58824219 7.14585937 17.48898438 7.91671875 17.38671875 8.7109375 C17.19529297 9.84402344 17.19529297 9.84402344 17 11 C16.88269531 11.71414062 16.76539062 12.42828125 16.64453125 13.1640625 C16 15 16 15 13 17 C10.39754502 17.14221065 7.90882316 17.18802932 5.3125 17.125 C4.61060547 17.11597656 3.90871094 17.10695312 3.18554688 17.09765625 C1.45688475 17.07413704 -0.27160145 17.03826713 -2 17 C-1.85899143 14.72886197 -1.71203245 12.45809275 -1.5625 10.1875 C-1.48128906 8.92292969 -1.40007812 7.65835938 -1.31640625 6.35546875 C-1 3 -1 3 0 0 Z " fill="#F3F3F3" transform="translate(71,216)"/>
<path d="M0 0 C8.24812963 2.81219182 13.49937682 9.45193056 17.4375 17 C22.18329781 27.49348627 22.57708873 36.68057283 21 48 C20.34 48.99 19.68 49.98 19 51 C19.01160156 49.97519531 19.02320313 48.95039063 19.03515625 47.89453125 C19.04454022 46.533856 19.05363977 45.17317876 19.0625 43.8125 C19.07087891 43.13896484 19.07925781 42.46542969 19.08789062 41.77148438 C19.10613352 38.03169187 18.8882431 34.63047011 18 31 C17.78601563 30.05382812 17.57203125 29.10765625 17.3515625 28.1328125 C15.47322212 17.94564818 15.47322212 17.94564818 9.375 10.3125 C8.199375 9.6628125 8.199375 9.6628125 7 9 C6.1875 6.8125 6.1875 6.8125 6 5 C4.5459375 4.814375 4.5459375 4.814375 3.0625 4.625 C2.051875 4.41875 1.04125 4.2125 0 4 C-0.33 3.34 -0.66 2.68 -1 2 C-0.67 1.34 -0.34 0.68 0 0 Z " fill="#6095D4" transform="translate(490,92)"/>
<path d="M0 0 C0.66 0.33 1.32 0.66 2 1 C1.34 2.65 0.68 4.3 0 6 C-0.66 6 -1.32 6 -2 6 C-2.66 7.32 -3.32 8.64 -4 10 C-4.66 10 -5.32 10 -6 10 C-6.10957031 10.64066406 -6.21914063 11.28132813 -6.33203125 11.94140625 C-6.49058594 12.80636719 -6.64914062 13.67132813 -6.8125 14.5625 C-6.96332031 15.40941406 -7.11414063 16.25632812 -7.26953125 17.12890625 C-8 20 -8 20 -9.5625 23.15625 C-11.69676599 27.94121037 -11.3246665 32.7919976 -11.1875 37.9375 C-11.17396484 38.90751953 -11.16042969 39.87753906 -11.14648438 40.87695312 C-11.11138677 43.25189129 -11.06222275 45.62564378 -11 48 C-15.70560125 40.94159813 -14.72222784 30.98826853 -13.5390625 22.81640625 C-11.34564529 13.72017605 -6.04685302 6.93609611 0 0 Z " fill="#6697D0" transform="translate(277,96)"/>
<path d="M0 0 C1.76644008 2.64966013 2.88971705 4.94081299 4.0625 7.875 C4.57490234 9.13957031 4.57490234 9.13957031 5.09765625 10.4296875 C7.10574721 16.14970417 7.18292747 21.55876186 7.1875 27.5625 C7.19974609 28.41263672 7.21199219 29.26277344 7.22460938 30.13867188 C7.22654297 30.96044922 7.22847656 31.78222656 7.23046875 32.62890625 C7.23457764 33.37213135 7.23868652 34.11535645 7.24291992 34.88110352 C6.96733278 37.28494353 6.19207471 38.91143314 5 41 C4.97494385 40.39937744 4.9498877 39.79875488 4.92407227 39.17993164 C4.8084472 36.47388563 4.68557064 33.76821717 4.5625 31.0625 C4.52318359 30.11697266 4.48386719 29.17144531 4.44335938 28.19726562 C4.38051758 26.84858398 4.38051758 26.84858398 4.31640625 25.47265625 C4.27974854 24.64000244 4.24309082 23.80734863 4.20532227 22.94946289 C4.20632897 20.99661142 4.20632897 20.99661142 3 20 C2.71606022 17.48510484 2.5518876 14.97010418 2.37890625 12.4453125 C2.1367506 9.74931222 2.1367506 9.74931222 0 7 C-0.07905064 4.66800612 -0.08798769 2.33167378 0 0 Z " fill="#6A99CC" transform="translate(474,42)"/>
<path d="M0 0 C0 0.66 0 1.32 0 2 C2.64 2 5.28 2 8 2 C8 2.66 8 3.32 8 4 C9.32 4.66 10.64 5.32 12 6 C7.89789683 6.43180033 5.35587546 5.77174504 1.75 4 C-7.9083238 -0.15395993 -19.83827146 1.5828882 -30 3 C-22.58901333 -3.55587282 -9.15191206 -1.70268131 0 0 Z " fill="#84AEDD" transform="translate(436,12)"/>
<path d="M0 0 C0.66 0.33 1.32 0.66 2 1 C-1.34618176 5.30059099 -3.72630093 8.19187461 -9 10 C-9.33 10.99 -9.66 11.98 -10 13 C-12.20615997 14.86077289 -14.5266966 16.5014982 -16.87109375 18.18359375 C-19.02381354 20.02031797 -19.95535285 21.40265326 -21 24 C-22.32 23.67 -23.64 23.34 -25 23 C-21.58659602 15.23156335 -12.99589843 10.37518146 -6.39331055 5.37646484 C-4.14080544 3.66901284 -2.00152105 2.00152105 0 0 Z " fill="#D4EBFA" transform="translate(403,73)"/>
<path d="M0 0 C0.66 0 1.32 0 2 0 C1.80664062 0.56847656 1.61328125 1.13695313 1.4140625 1.72265625 C1.02347656 2.88087891 1.02347656 2.88087891 0.625 4.0625 C0.36976563 4.81660156 0.11453125 5.57070312 -0.1484375 6.34765625 C-0.56996094 7.66056641 -0.56996094 7.66056641 -1 9 C-1.53367187 10.64548828 -1.53367187 10.64548828 -2.078125 12.32421875 C-4.51755724 22.05093796 -3.85651294 31.80898761 0.125 40.9609375 C1 43 1 43 1 45 C-2 44 -2 44 -3.6640625 40.71484375 C-5.58374288 35.08252662 -5.43800848 29.45379298 -5.375 23.5625 C-5.38660156 22.48162109 -5.39820313 21.40074219 -5.41015625 20.28710938 C-5.38564577 13.55081229 -4.48992116 8.26432546 -2 2 C-1.34 2 -0.68 2 0 2 C0 1.34 0 0.68 0 0 Z " fill="#E1F6FE" transform="translate(267,106)"/>
<path d="M0 0 C0.66 0.33 1.32 0.66 2 1 C1.51789063 1.68707031 1.03578125 2.37414062 0.5390625 3.08203125 C-0.09257812 3.98308594 -0.72421875 4.88414063 -1.375 5.8125 C-2.00148438 6.70582031 -2.62796875 7.59914063 -3.2734375 8.51953125 C-6.02672255 12.28369084 -6.02672255 12.28369084 -7.5 16.625 C-7.665 17.40875 -7.83 18.1925 -8 19 C-8.66 19.33 -9.32 19.66 -10 20 C-10.33 21.98 -10.66 23.96 -11 26 C-16.61 26 -22.22 26 -28 26 C-28 25.67 -28 25.34 -28 25 C-23.38 25 -18.76 25 -14 25 C-13.608125 23.700625 -13.21625 22.40125 -12.8125 21.0625 C-10.04172033 12.81489884 -5.84711523 6.39103292 0 0 Z " fill="#6694CA" transform="translate(380,29)"/>
<path d="M0 0 C1.41702513 0.14230808 2.8336096 0.28900746 4.25 0.4375 C5.43335938 0.55931641 5.43335938 0.55931641 6.640625 0.68359375 C10.90387338 1.25532077 15.00720476 2.40288191 19 4 C20.2077558 7.62326739 19.54311128 8.64146369 18 12 C16.35 12 14.7 12 13 12 C12.7525 12.639375 12.505 13.27875 12.25 13.9375 C11 16 11 16 8.875 16.75 C7.946875 16.87375 7.946875 16.87375 7 17 C8.375 15 8.375 15 10 13 C10.66 13 11.32 13 12 13 C12 12.34 12 11.68 12 11 C12.9590625 10.5978125 12.9590625 10.5978125 13.9375 10.1875 C16.33131686 9.11332248 16.33131686 9.11332248 17 6 C16.05125 5.9175 15.1025 5.835 14.125 5.75 C9.11022533 5.06008234 4.61545074 2.99662356 0 1 C0 0.67 0 0.34 0 0 Z " fill="#6899D8" transform="translate(420,97)"/>
<path d="M0 0 C2 2 2 2 2 5 C1.1646875 5.0928125 1.1646875 5.0928125 0.3125 5.1875 C-3.00086472 6.35165517 -4.70475296 8.39458444 -7 11 C-8.05505336 13.8784917 -8.05505336 13.8784917 -8.375 16.5 C-9.06071544 19.24286174 -9.85493709 20.22799151 -12 22 C-12.99 21.67 -13.98 21.34 -15 21 C-12.36108646 13.52615397 -7.34249458 3.67124729 0 0 Z " fill="#548ED7" transform="translate(333,64)"/>
<path d="M0 0 C0.33 0.66 0.66 1.32 1 2 C0.34773438 2.30292969 -0.30453125 2.60585938 -0.9765625 2.91796875 C-7.03129625 5.81219184 -7.03129625 5.81219184 -12.375 9.8125 C-15 12 -15 12 -19 12 C-17.50819618 8.16030039 -15.37986478 6.57720591 -12 4.3125 C-11.113125 3.71050781 -10.22625 3.10851562 -9.3125 2.48828125 C-5.88668868 0.2834939 -4.05977264 -0.10683612 0 0 Z " fill="#6096D4" transform="translate(401,17)"/>
<path d="M0 0 C2.05042607 6.15127821 -2.0935946 12.85054397 -4.48828125 18.546875 C-6.26560917 21.43101437 -8.00556307 22.49525782 -11 24 C-9.48210922 18.94566211 -7.33199122 14.42761076 -4.9375 9.75 C-4.57333984 9.03070313 -4.20917969 8.31140625 -3.83398438 7.5703125 C-2.89258917 5.71188352 -1.94661263 3.85577685 -1 2 C-0.67 1.34 -0.34 0.68 0 0 Z " fill="#6194D1" transform="translate(425,63)"/>
<path d="M0 0 C1.65 0 3.3 0 5 0 C5 0.66 5 1.32 5 2 C6.175625 2.185625 6.175625 2.185625 7.375 2.375 C10 3 10 3 12 5 C16.17453138 7.3481739 19.95537545 7.1038952 24.59765625 6.875 C27.22579192 7.01174852 28.75437756 7.67233408 31 9 C22.85576019 11.2643178 15.83974862 9.74964044 8 7 C8 6.34 8 5.68 8 5 C7.05125 4.731875 6.1025 4.46375 5.125 4.1875 C2 3 2 3 0 0 Z " fill="#6D9DD9" transform="translate(280,164)"/>
<path d="M0 0 C1 3 1 3 0.00390625 5.48046875 C-0.47175781 6.37378906 -0.94742187 7.26710937 -1.4375 8.1875 C-1.91058594 9.08855469 -2.38367188 9.98960937 -2.87109375 10.91796875 C-3.42990234 11.94857422 -3.42990234 11.94857422 -4 13 C-4.66 13 -5.32 13 -6 13 C-6.2475 13.5775 -6.495 14.155 -6.75 14.75 C-8.18299988 17.32939979 -9.78424676 19.06121592 -12 21 C-12.66 21 -13.32 21 -14 21 C-13.67 19.68 -13.34 18.36 -13 17 C-11.68 16.67 -10.36 16.34 -9 16 C-8.67 14.02 -8.34 12.04 -8 10 C-7.01 9.67 -6.02 9.34 -5 9 C-4.0545706 7.16425007 -4.0545706 7.16425007 -3.4375 5 C-2.74609375 2.8125 -2.74609375 2.8125 -2 1 C-1.34 0.67 -0.68 0.34 0 0 Z " fill="#6695C9" transform="translate(508,143)"/>
<path d="M0 0 C-0.26554687 0.52078125 -0.53109375 1.0415625 -0.8046875 1.578125 C-2.30121311 4.61030108 -3.71191743 7.67808137 -5.125 10.75 C-5.93324219 12.50570312 -5.93324219 12.50570312 -6.7578125 14.296875 C-7.16773438 15.18890625 -7.57765625 16.0809375 -8 17 C-8.33 17 -8.66 17 -9 17 C-9.08226668 13.95613276 -8.97608217 11.92824652 -8 9 C-8.99 9 -9.98 9 -11 9 C-11 8.34 -11 7.68 -11 7 C-10.360625 6.896875 -9.72125 6.79375 -9.0625 6.6875 C-8.381875 6.460625 -7.70125 6.23375 -7 6 C-6.67 5.01 -6.34 4.02 -6 3 C-2.55555556 0 -2.55555556 0 0 0 Z " fill="#CEEBFC" transform="translate(431,52)"/>
<path d="M0 0 C0.33 0 0.66 0 1 0 C1.01458252 0.62567871 1.02916504 1.25135742 1.04418945 1.89599609 C1.11852804 4.72296402 1.21523234 7.54873208 1.3125 10.375 C1.33505859 11.35984375 1.35761719 12.3446875 1.38085938 13.359375 C1.41630859 14.30039063 1.45175781 15.24140625 1.48828125 16.2109375 C1.51446533 17.08024902 1.54064941 17.94956055 1.56762695 18.84521484 C1.81345218 21.38600027 1.81345218 21.38600027 5 23 C5 23.66 5 24.32 5 25 C2.69 24.34 0.38 23.68 -2 23 C-1.34 15.41 -0.68 7.82 0 0 Z " fill="#D4EFFC" transform="translate(481,64)"/>
<path d="M0 0 C0.66 0 1.32 0 2 0 C3.33333333 1.33333333 4.66666667 2.66666667 6 4 C6.66 4 7.32 4 8 4 C8 9.28 8 14.56 8 20 C7.67 20 7.34 20 7 20 C6.74476563 18.83984375 6.74476563 18.83984375 6.484375 17.65625 C4.99021397 11.23453664 3.2121897 5.75978843 0 0 Z " fill="#E3F5FD" transform="translate(504,104)"/>
<path d="M0 0 C0.99 0.99 1.98 1.98 3 3 C2.3125 4.9375 2.3125 4.9375 1 7 C-1.625 7.75 -1.625 7.75 -4 8 C-4.061875 8.61875 -4.12375 9.2375 -4.1875 9.875 C-5 12 -5 12 -7.5625 13.25 C-8.366875 13.4975 -9.17125 13.745 -10 14 C-9.21654285 12.82780457 -8.42297164 11.66236332 -7.625 10.5 C-7.18414062 9.8503125 -6.74328125 9.200625 -6.2890625 8.53125 C-5.86367188 8.0259375 -5.43828125 7.520625 -5 7 C-4.34 7 -3.68 7 -3 7 C-2.690625 6.030625 -2.38125 5.06125 -2.0625 4.0625 C-1 1 -1 1 0 0 Z " fill="#EBF4F9" transform="translate(507,149)"/>
<path d="M0 0 C2.37171947 0.71151584 4.7431474 1.42383702 7.11328125 2.140625 C9.02256409 2.70901773 10.93669293 3.26140268 12.85546875 3.796875 C13.74878906 4.04953125 14.64210938 4.3021875 15.5625 4.5625 C16.38878906 4.79066406 17.21507812 5.01882812 18.06640625 5.25390625 C20 6 20 6 21 8 C15.85382627 8.3765493 12.66124508 7.08952366 8 5 C5.34805093 4.23098138 2.69398517 3.61441767 0 3 C0 2.01 0 1.02 0 0 Z " fill="#6695D5" transform="translate(380,97)"/>
<path d="M0 0 C0.99 0.33 1.98 0.66 3 1 C1.37982158 2.33918806 -0.24629343 3.6711969 -1.875 5 C-2.77992188 5.7425 -3.68484375 6.485 -4.6171875 7.25 C-7 9 -7 9 -9 9 C-9 9.66 -9 10.32 -9 11 C-9.99 11.33 -10.98 11.66 -12 12 C-12 11.01 -12 10.02 -12 9 C-11.34 9 -10.68 9 -10 9 C-9.67 8.01 -9.34 7.02 -9 6 C-6.0974856 3.96039529 -3.49158202 2.64658926 0 2 C0 1.34 0 0.68 0 0 Z " fill="#E3F7FD" transform="translate(425,112)"/>
<path d="M0 0 C0.66 0.33 1.32 0.66 2 1 C-2.78521127 7.24735915 -2.78521127 7.24735915 -7 8 C-7.33 8.99 -7.66 9.98 -8 11 C-9.32 10.67 -10.64 10.34 -12 10 C-10.68 9.34 -9.36 8.68 -8 8 C-8 7.34 -8 6.68 -8 6 C-6.25 4.4921875 -6.25 4.4921875 -4 2.875 C-3.2575 2.33617188 -2.515 1.79734375 -1.75 1.2421875 C-1.1725 0.83226563 -0.595 0.42234375 0 0 Z " fill="#6E9FD3" transform="translate(424,115)"/>
<path d="M0 0 C0.88365234 0.00902344 1.76730469 0.01804687 2.67773438 0.02734375 C4.84777359 0.05080363 7.01767247 0.08667135 9.1875 0.125 C9.1875 0.455 9.1875 0.785 9.1875 1.125 C3.2475 1.125 -2.6925 1.125 -8.8125 1.125 C-8.8125 2.115 -8.8125 3.105 -8.8125 4.125 C-11.4525 4.125 -14.0925 4.125 -16.8125 4.125 C-12.00046838 -0.68703162 -6.37295274 -0.1235621 0 0 Z " fill="#79A7D9" transform="translate(306.8125,84.875)"/>
<path d="M0 0 C0.66 0 1.32 0 2 0 C0.6113673 2.97754895 -1.01261343 5.51158665 -3 8.125 C-3.515625 8.80820313 -4.03125 9.49140625 -4.5625 10.1953125 C-6 12 -6 12 -8 14 C-7.25 7.375 -7.25 7.375 -5 4 C-4.01 4 -3.02 4 -2 4 C-2 3.34 -2 2.68 -2 2 C-1.34 2 -0.68 2 0 2 C0 1.34 0 0.68 0 0 Z " fill="#DDF1FA" transform="translate(329,64)"/>
<path d="M0 0 C2 2 2 2 2 5 C1.46375 5.061875 0.9275 5.12375 0.375 5.1875 C-3.11156962 6.38027382 -5.24940393 8.56197166 -8 11 C-7.49268371 6.60325886 -4.88085945 4.16191891 -2 1 C-1.34 0.67 -0.68 0.34 0 0 Z " fill="#5B91CC" transform="translate(333,64)"/>
<path d="M0 0 C0.66 0 1.32 0 2 0 C2 0.99 2 1.98 2 3 C2.66 3 3.32 3 4 3 C4.103125 3.639375 4.20625 4.27875 4.3125 4.9375 C4.539375 5.618125 4.76625 6.29875 5 7 C5.99 7.33 6.98 7.66 8 8 C9.58965571 10.21701147 10.72327486 12.57862473 12 15 C7.35086494 13.45028831 4.86413115 9.87292611 2 6 C0.5625 2.5 0.5625 2.5 0 0 Z " fill="#6E9BD6" transform="translate(268,149)"/>
<path d="M0 0 C0.33 0 0.66 0 1 0 C1 5.28 1 10.56 1 16 C-0.32 16.33 -1.64 16.66 -3 17 C-2.86722656 16.443125 -2.73445313 15.88625 -2.59765625 15.3125 C-1.41779695 10.2141299 -0.56750461 5.20212559 0 0 Z " fill="#D9EFFB" transform="translate(511,132)"/>
<path d="M0 0 C0.66 1.32 1.32 2.64 2 4 C2.66 4 3.32 4 4 4 C4 4.66 4 5.32 4 6 C2.35 6.66 0.7 7.32 -1 8 C-1 8.66 -1 9.32 -1 10 C-1.99 10.33 -2.98 10.66 -4 11 C-2.95902388 7.13351728 -1.96301592 3.50538557 0 0 Z " fill="#D3EEFC" transform="translate(389,136)"/>
<path d="M0 0 C3.96 0.33 7.92 0.66 12 1 C12 1.66 12 2.32 12 3 C13.32 3.66 14.64 4.32 16 5 C9.99666876 5.6319296 5.36595205 3.37544123 0 1 C0 0.67 0 0.34 0 0 Z " fill="#6C9BD3" transform="translate(432,13)"/>
<path d="M0 0 C0.66 0.33 1.32 0.66 2 1 C0.02 5.29 -1.96 9.58 -4 14 C-5.01527342 9.93890631 -5.05430484 9.33033162 -3.5625 5.75 C-3.27503906 5.04359375 -2.98757813 4.3371875 -2.69140625 3.609375 C-2.46324219 3.07828125 -2.23507812 2.5471875 -2 2 C-1.34 2 -0.68 2 0 2 C0 1.34 0 0.68 0 0 Z " fill="#6196D1" transform="translate(395,120)"/>
<path d="M0 0 C-1.6396875 0.8971875 -1.6396875 0.8971875 -3.3125 1.8125 C-5.94218239 3.30229991 -7.91259729 4.80273399 -10 7 C-10.66 7 -11.32 7 -12 7 C-12 6.01 -12 5.02 -12 4 C-11.01 4 -10.02 4 -9 4 C-8.67 2.68 -8.34 1.36 -8 0 C-4.94736336 -0.98120464 -3.05263664 -0.98120464 0 0 Z " fill="#6094D7" transform="translate(432,52)"/>
<path d="M0 0 C1.65 0 3.3 0 5 0 C5 0.66 5 1.32 5 2 C6.175625 2.185625 6.175625 2.185625 7.375 2.375 C10 3 10 3 12 5 C9.44345185 5.95582656 8.39658231 6.17802782 5.859375 5.0390625 C5.16328125 4.57242188 4.4671875 4.10578125 3.75 3.625 C3.04359375 3.16351563 2.3371875 2.70203125 1.609375 2.2265625 C1.07828125 1.82179687 0.5471875 1.41703125 0 1 C0 0.67 0 0.34 0 0 Z " fill="#6296D6" transform="translate(280,164)"/>
<path d="M0 0 C1.9451 2.91765 2.45276317 4.62537285 3 8 C3.99 8 4.98 8 6 8 C6 8.66 6 9.32 6 10 C3.36 9.34 0.72 8.68 -2 8 C-1.125 2.25 -1.125 2.25 0 0 Z " fill="#699BCE" transform="translate(413,87)"/>
<path d="M0 0 C0.66 0 1.32 0 2 0 C2 1.98 2 3.96 2 6 C-3.61 6 -9.22 6 -15 6 C-15 5.67 -15 5.34 -15 5 C-10.38 5 -5.76 5 -1 5 C-0.67 3.35 -0.34 1.7 0 0 Z " fill="#729FD1" transform="translate(367,49)"/>
<path d="M0 0 C0.66 1.65 1.32 3.3 2 5 C2.99 5 3.98 5 5 5 C5.33 6.65 5.66 8.3 6 10 C5.44570313 9.57847656 4.89140625 9.15695313 4.3203125 8.72265625 C3.59585937 8.17480469 2.87140625 7.62695312 2.125 7.0625 C1.40570313 6.51722656 0.68640625 5.97195312 -0.0546875 5.41015625 C-1.94357079 3.96035376 -1.94357079 3.96035376 -4 3 C-4 2.34 -4 1.68 -4 1 C-2 0 -2 0 0 0 Z " fill="#DFF2FC" transform="translate(460,20)"/>
<path d="M0 0 C0.66 0 1.32 0 2 0 C2 1.65 2 3.3 2 5 C1.01 5.33 0.02 5.66 -1 6 C-1 5.34 -1 4.68 -1 4 C-1.99 4.33 -2.98 4.66 -4 5 C-5.32 3.68 -6.64 2.36 -8 1 C-6.576875 1.309375 -6.576875 1.309375 -5.125 1.625 C-4.09375 1.74875 -3.0625 1.8725 -2 2 C-1.34 1.34 -0.68 0.68 0 0 Z " fill="#4F8BDD" transform="translate(286,160)"/>
<path d="M0 0 C0.99 0 1.98 0 3 0 C3 0.66 3 1.32 3 2 C2.34 2 1.68 2 1 2 C0.9175 2.7425 0.835 3.485 0.75 4.25 C-0.14809799 7.54302595 -1.38416074 8.85976788 -4 11 C-4.66 11 -5.32 11 -6 11 C-5.67 9.68 -5.34 8.36 -5 7 C-3.68 6.67 -2.36 6.34 -1 6 C-0.67 4.02 -0.34 2.04 0 0 Z " fill="#5C8FD2" transform="translate(500,153)"/>
<path d="M0 0 C3.96 0 7.92 0 12 0 C11.34 2.97 10.68 5.94 10 9 C9 5 9 5 9 1 C6.03 1 3.06 1 0 1 C0 0.67 0 0.34 0 0 Z " fill="#303031" transform="translate(308,207)"/>
<path d="M0 0 C0.99 0 1.98 0 3 0 C2.67 1.32 2.34 2.64 2 4 C0.02 4.33 -1.96 4.66 -4 5 C-4 5.66 -4 6.32 -4 7 C-4.99 6.67 -5.98 6.34 -7 6 C-6.34 6 -5.68 6 -5 6 C-5 5.34 -5 4.68 -5 4 C-3.35 3.34 -1.7 2.68 0 2 C0 1.34 0 0.68 0 0 Z " fill="#6196DA" transform="translate(393,140)"/>
<path d="M0 0 C0.66 0 1.32 0 2 0 C-0.48677793 5.54742769 -3.51667716 7.44111601 -9 10 C-8.375 7.6875 -8.375 7.6875 -7 5 C-3.9375 3.3125 -3.9375 3.3125 -1 2 C-0.67 1.34 -0.34 0.68 0 0 Z " fill="#558CD7" transform="translate(433,109)"/>
<path d="M0 0 C2.50535913 2.34877419 3.90564909 4.0911787 4.265625 7.55859375 C4.25149142 10.04963675 4.17369194 12.51524028 4 15 C2.1866078 11.79989612 1.47786026 8.86716157 0.875 5.25 C0.70742188 4.26515625 0.53984375 3.2803125 0.3671875 2.265625 C0.24601562 1.51796875 0.12484375 0.7703125 0 0 Z " fill="#E5FAFE" transform="translate(478,49)"/>
<path d="M0 0 C1.65 0 3.3 0 5 0 C1.21087559 2.99972349 -2.88831832 5.47510809 -7 8 C-6.67 6.68 -6.34 5.36 -6 4 C-5.01 4 -4.02 4 -3 4 C-3 3.34 -3 2.68 -3 2 C-2.01 2 -1.02 2 0 2 C0 1.34 0 0.68 0 0 Z " fill="#DDF4FD" transform="translate(393,16)"/>
<path d="M0 0 C4.455 0.99 4.455 0.99 9 2 C8.67 3.32 8.34 4.64 8 6 C7.01 6.33 6.02 6.66 5 7 C4.731875 6.401875 4.46375 5.80375 4.1875 5.1875 C2.95598111 2.67189278 2.95598111 2.67189278 0 0 Z " fill="#D1ECFD" transform="translate(428,101)"/>
<path d="M0 0 C0.66 0.33 1.32 0.66 2 1 C0.02 5.29 -1.96 9.58 -4 14 C-5.51865978 9.44402067 -3.4284709 6.87342145 -1.375 2.6875 C-0.694375 1.3571875 -0.694375 1.3571875 0 0 Z " fill="#DFF5FE" transform="translate(420,69)"/>
<path d="M0 0 C0.66 0.33 1.32 0.66 2 1 C1.07347299 2.17539996 0.13336613 3.34010577 -0.8125 4.5 C-1.33457031 5.1496875 -1.85664063 5.799375 -2.39453125 6.46875 C-4 8 -4 8 -7 8 C-5.61918777 3.8575633 -3.40174442 2.67796901 0 0 Z " fill="#D5EFFB" transform="translate(403,73)"/>
<path d="M0 0 C0.66 0.33 1.32 0.66 2 1 C-3.5 6 -3.5 6 -8 6 C-7 3 -7 3 -3.5625 1.25 C-2.386875 0.8375 -1.21125 0.425 0 0 Z " fill="#5891D5" transform="translate(390,23)"/>
<path d="M0 0 C0.99 0 1.98 0 3 0 C2.57405412 1.44096586 2.13373367 2.87768712 1.6875 4.3125 C1.44386719 5.11300781 1.20023437 5.91351563 0.94921875 6.73828125 C-0.04182023 9.09964573 -1.08074943 10.33879993 -3 12 C-2.25749403 7.91621717 -1.17076699 3.98060777 0 0 Z " fill="#6695CA" transform="translate(401,105)"/>
<path d="M0 0 C0.66 0 1.32 0 2 0 C1.54554036 1.41791408 1.08625056 2.83428046 0.625 4.25 C0.36976563 5.03890625 0.11453125 5.8278125 -0.1484375 6.640625 C-0.95173667 8.86627958 -1.89711662 10.90931672 -3 13 C-3.14285714 5.57142857 -3.14285714 5.57142857 -2 2 C-1.34 2 -0.68 2 0 2 C0 1.34 0 0.68 0 0 Z " fill="#D9F0FB" transform="translate(267,106)"/>
<path d="M0 0 C2 1 2 1 3 3 C1.54618103 3.69699552 0.08677047 4.38233866 -1.375 5.0625 C-2.18710937 5.44535156 -2.99921875 5.82820313 -3.8359375 6.22265625 C-4.55007813 6.47917969 -5.26421875 6.73570313 -6 7 C-6.66 6.67 -7.32 6.34 -8 6 C-5.36 4.02 -2.72 2.04 0 0 Z " fill="#71A0D2" transform="translate(392,19)"/>
<path d="M0 0 C0.66 0.33 1.32 0.66 2 1 C-1.34596881 5.56268474 -3.51587765 7.33091929 -9 9 C-6 6 -3 3 0 0 Z " fill="#D3EAFB" transform="translate(414,64)"/>
<path d="M0 0 C1.485 0.99 1.485 0.99 3 2 C2.67 4.64 2.34 7.28 2 10 C1.34 9.67 0.68 9.34 0 9 C0 6.03 0 3.06 0 0 Z " fill="#5B97D3" transform="translate(477,53)"/>
<path d="M0 0 C5.75 1.75 5.75 1.75 8 4 C7.67 4.66 7.34 5.32 7 6 C5.68 5.67 4.36 5.34 3 5 C3 4.34 3 3.68 3 3 C2.01 2.67 1.02 2.34 0 2 C0 1.34 0 0.68 0 0 Z " fill="#6795DB" transform="translate(448,18)"/>
<path d="M0 0 C2.94721162 2.74395564 5.19168608 5.38337216 7 9 C6.67 9.66 6.34 10.32 6 11 C2.6433715 8.76224766 2.42003986 8.06679952 1.3125 4.375 C1.06113281 3.55773437 0.80976563 2.74046875 0.55078125 1.8984375 C0.36902344 1.27195312 0.18726563 0.64546875 0 0 Z " fill="#729AD5" transform="translate(501,101)"/>
<path d="M0 0 C0.66 0.33 1.32 0.66 2 1 C1.3125 3.4375 1.3125 3.4375 0 6 C-2.625 6.8125 -2.625 6.8125 -5 7 C-1.125 1.125 -1.125 1.125 0 0 Z " fill="#6E9EDA" transform="translate(277,96)"/>
<path d="M0 0 C2.97 0.33 5.94 0.66 9 1 C9.33 1.99 9.66 2.98 10 4 C5.78087253 3.5205537 3.20336822 2.83374881 0 0 Z " fill="#75A2D8" transform="translate(420,97)"/>
<path d="M0 0 C3.91211733 1.15585285 6.8745041 2.35534962 10 5 C7.03 4.505 7.03 4.505 4 4 C3.67 4.66 3.34 5.32 3 6 C2.01 4.02 1.02 2.04 0 0 Z " fill="#5995CB" transform="translate(480,87)"/>
<path d="M0 0 C2.25 0.25 2.25 0.25 4 1 C2.25 3.0625 2.25 3.0625 0 5 C-2.25 4.75 -2.25 4.75 -4 4 C-2.25 1.9375 -2.25 1.9375 0 0 Z " fill="#6F9ED6" transform="translate(283,91)"/>
<path d="M0 0 C0.66 0 1.32 0 2 0 C0.55746343 3.36591866 -1.33264727 5.51047079 -4 8 C-4.66 7.67 -5.32 7.34 -6 7 C-5.04882866 5.8274869 -4.08882991 4.66212985 -3.125 3.5 C-2.59132813 2.8503125 -2.05765625 2.200625 -1.5078125 1.53125 C-0.76144531 0.77328125 -0.76144531 0.77328125 0 0 Z " fill="#E4F6FC" transform="translate(418,61)"/>
<path d="M0 0 C0.66 0.33 1.32 0.66 2 1 C1.375 2.9375 1.375 2.9375 0 5 C-3.125 5.75 -3.125 5.75 -6 6 C-4 4 -2 2 0 0 Z " fill="#2E2E30" transform="translate(381,209)"/>
<path d="M0 0 C0.33 0.99 0.66 1.98 1 3 C0.34 3 -0.32 3 -1 3 C-1.061875 3.61875 -1.12375 4.2375 -1.1875 4.875 C-2 7 -2 7 -4.5625 8.25 C-5.366875 8.4975 -6.17125 8.745 -7 9 C-6.21654285 7.82780457 -5.42297164 6.66236332 -4.625 5.5 C-4.18414062 4.8503125 -3.74328125 4.200625 -3.2890625 3.53125 C-2.65097656 2.77328125 -2.65097656 2.77328125 -2 2 C-1.34 2 -0.68 2 0 2 C0 1.34 0 0.68 0 0 Z " fill="#D0E9FA" transform="translate(504,154)"/>
<path d="M0 0 C0.33 0 0.66 0 1 0 C1.3636198 4.24223102 0.5393228 6.58168085 -2 10 C-2.66 10 -3.32 10 -4 10 C-2.8905928 6.51329166 -1.73662334 3.22515763 0 0 Z " fill="#D4EDFB" transform="translate(394,126)"/>
<path d="M0 0 C1 2 1 2 0.0625 5.125 C-0.288125 6.07375 -0.63875 7.0225 -1 8 C-1.66 8 -2.32 8 -3 8 C-3.33 8.99 -3.66 9.98 -4 11 C-4.33 10.34 -4.66 9.68 -5 9 C-4.00390625 6.8359375 -4.00390625 6.8359375 -2.5625 4.375 C-2.08941406 3.55773437 -1.61632812 2.74046875 -1.12890625 1.8984375 C-0.75636719 1.27195312 -0.38382812 0.64546875 0 0 Z " fill="#7BA5D7" transform="translate(324,73)"/>
<path d="M0 0 C0.33 0.66 0.66 1.32 1 2 C1.66 2.33 2.32 2.66 3 3 C1.35 4.32 -0.3 5.64 -2 7 C-2.33 6.01 -2.66 5.02 -3 4 C-1.5625 1.8125 -1.5625 1.8125 0 0 Z " fill="#5D9BD3" transform="translate(399,72)"/>
<path d="M0 0 C1.2077558 3.62326739 0.54311128 4.64146369 -1 8 C-1.66 8 -2.32 8 -3 8 C-3 8.99 -3 9.98 -3 11 C-3.66 10.67 -4.32 10.34 -5 10 C-3.35 6.7 -1.7 3.4 0 0 Z " fill="#729FD3" transform="translate(425,63)"/>
<path d="M0 0 C3.53600465 1.91135386 5.78972846 3.62642766 8 7 C6.35 6.67 4.7 6.34 3 6 C2.67 4.68 2.34 3.36 2 2 C1.34 2 0.68 2 0 2 C0 1.34 0 0.68 0 0 Z " fill="#6FA0D5" transform="translate(457,23)"/>
<path d="M0 0 C0.99 0.33 1.98 0.66 3 1 C0.36 2.98 -2.28 4.96 -5 7 C-4.67 5.68 -4.34 4.36 -4 3 C-2.68 2.67 -1.36 2.34 0 2 C0 1.34 0 0.68 0 0 Z " fill="#D7EFFB" transform="translate(425,112)"/>
<path d="M0 0 C2.475 0.99 2.475 0.99 5 2 C5 2.99 5 3.98 5 5 C3.02 4.34 1.04 3.68 -1 3 C-0.67 2.01 -0.34 1.02 0 0 Z " fill="#5794D1" transform="translate(490,92)"/>
<path d="M0 0 C-5.75 3.875 -5.75 3.875 -8 5 C-7.67 3.35 -7.34 1.7 -7 0 C-2.25 -1.125 -2.25 -1.125 0 0 Z " fill="#CDE5F8" transform="translate(340,60)"/>
<path d="M0 0 C0.99 0.33 1.98 0.66 3 1 C0.69 2.65 -1.62 4.3 -4 6 C-4.33 5.01 -4.66 4.02 -5 3 C-2.6875 1.4375 -2.6875 1.4375 0 0 Z " fill="#DAEFFC" transform="translate(398,134)"/>
<path d="M0 0 C-1.39332574 3.36720387 -2.9789286 4.9859524 -6 7 C-5.37162381 3.35541809 -4.14650034 0 0 0 Z " fill="#6497D2" transform="translate(414,63)"/>
</svg>
